<svg width="26" height="32" viewBox="0 0 26 32" fill="none" xmlns="http://www.w3.org/2000/svg">
<path d="M18.4416 1.01594C17.0425 1.1775 15.0625 2.41156 14.0794 3.73156C13.5122 4.48781 13.1788 5.20969 12.89 6.29594L12.7457 6.83906L12.7525 7.41656C12.7594 7.73281 12.7766 8.02844 12.7938 8.07656C12.8385 8.19 12.9244 8.20719 13.5294 8.21063C14.0313 8.21406 14.0622 8.21063 14.4919 8.08344C15.64 7.75 16.4822 7.24813 17.0804 6.53656C17.2247 6.36125 17.4413 6.1275 17.5547 6.01063C17.9329 5.63938 18.4175 4.81438 18.6857 4.09938C18.9538 3.38094 19.0741 2.71406 19.1085 1.76531L19.1291 1.15688L19.0397 1.0675C18.94 0.967813 18.885 0.964376 18.4416 1.01594Z" fill="black"/>
<path d="M18.1219 8.12124C17.4413 8.15562 15.6091 8.66437 14.2925 9.17999C13.495 9.49281 13.495 9.49281 13.3369 9.52031C13.0619 9.56499 12.3882 9.36906 11.2297 8.90156C10.6144 8.65749 9.9819 8.47187 9.0469 8.25875C8.65503 8.17281 8.00534 8.16249 7.72346 8.24156C7.61003 8.2725 7.25253 8.34468 6.9294 8.39968C6.23503 8.52343 5.84315 8.64375 5.32065 8.90156C3.74284 9.67156 2.6669 10.7784 1.8144 12.5109C1.43628 13.2741 1.15784 14.02 0.951589 14.8141C0.645652 15.9931 0.638777 18.255 0.937839 19.6266C0.972214 19.795 1.00315 19.9944 1.00315 20.0734C1.00315 20.2384 1.03409 20.3622 1.32284 21.5C1.59096 22.5519 1.56346 22.4659 2.07565 23.7516C2.79409 25.5562 3.02096 25.955 4.48878 27.9797C5.09034 28.8081 5.39628 29.1862 5.83971 29.6366C6.30378 30.1109 6.67846 30.3859 7.20784 30.6472C7.80596 30.9394 8.06721 31.0047 8.61721 31.0012C9.3219 31.0012 9.88909 30.8569 10.9685 30.4031C11.6491 30.1178 11.6938 30.1041 12.9313 29.8497C13.3025 29.7706 13.6463 29.7775 14.1688 29.8634C14.3475 29.8909 14.6157 29.9322 14.76 29.9528C15.0522 29.9941 15.3478 30.0903 16.111 30.3962C17.0322 30.7675 17.6819 30.9325 18.3625 30.9737C19.3525 31.0356 20.3081 30.5956 21.3291 29.6159C22.3706 28.6087 23.3435 27.2303 24.3266 25.3706C24.5913 24.8687 25.0141 23.8409 25.0863 23.5316C25.1172 23.4078 25.1688 23.2531 25.2066 23.1912C25.241 23.1294 25.2719 23.0434 25.2719 23.0056C25.2719 22.8819 25.021 22.6859 24.5775 22.4625C23.7422 22.0328 22.9207 21.2972 22.3672 20.4687C21.9719 19.8741 21.5732 18.9837 21.4735 18.4578C21.305 17.5916 21.2569 16.6428 21.3531 15.9828C21.3772 15.8109 21.4632 15.45 21.5457 15.175C21.8997 13.9822 22.1438 13.5044 22.6972 12.9131C22.8657 12.7378 23.0031 12.5762 23.0031 12.5625C23.0031 12.5041 23.8453 11.7994 24.0516 11.6859C24.165 11.6206 24.3094 11.5209 24.3713 11.4591C24.5603 11.2734 24.5328 11.2012 24.0585 10.6444C23.4225 9.89843 22.6216 9.28656 21.6797 8.82937C21.0919 8.54406 20.6863 8.40312 20.1191 8.28625C19.5382 8.16249 18.6719 8.09031 18.1219 8.12124Z" fill="black"/>
</svg>
