<svg width="348" height="155" viewBox="0 0 348 155" fill="none" xmlns="http://www.w3.org/2000/svg">
<g clip-path="url(#clip0_34_1635)">
<g clip-path="url(#clip1_34_1635)">
<rect width="348" height="155" rx="16" fill="url(#paint0_linear_34_1635)"/>
<g filter="url(#filter0_d_34_1635)">
<g filter="url(#filter1_i_34_1635)">
<rect x="297.344" y="42" width="95.7377" height="95.7377" fill="url(#paint1_linear_34_1635)"/>
</g>
<g filter="url(#filter2_i_34_1635)">
<rect x="129.803" y="137.738" width="70.6066" height="70.6066" fill="url(#paint2_linear_34_1635)"/>
</g>
<g filter="url(#filter3_i_34_1635)">
<path d="M200.41 137.738L297.344 42V137.738L200.41 208.344V137.738Z" fill="url(#paint3_linear_34_1635)"/>
</g>
<path d="M393.082 137.738L342.002 208.344L200.41 208.344L297.344 137.738H393.082Z" fill="url(#paint4_linear_34_1635)"/>
<g filter="url(#filter4_i_34_1635)">
<path d="M58 208.68L129.803 137.738V208.68L58 261V208.68Z" fill="url(#paint5_linear_34_1635)"/>
</g>
</g>
</g>
<g filter="url(#filter5_d_34_1635)">
<path d="M37.32 36.288C36.936 35.584 36.408 35.048 35.736 34.68C35.064 34.312 34.28 34.128 33.384 34.128C32.392 34.128 31.512 34.352 30.744 34.8C29.976 35.248 29.376 35.888 28.944 36.72C28.512 37.552 28.296 38.512 28.296 39.6C28.296 40.72 28.512 41.696 28.944 42.528C29.392 43.36 30.008 44 30.792 44.448C31.576 44.896 32.488 45.12 33.528 45.12C34.808 45.12 35.856 44.784 36.672 44.112C37.488 43.424 38.024 42.472 38.28 41.256H32.52V38.688H41.592V41.616C41.368 42.784 40.888 43.864 40.152 44.856C39.416 45.848 38.464 46.648 37.296 47.256C36.144 47.848 34.848 48.144 33.408 48.144C31.792 48.144 30.328 47.784 29.016 47.064C27.72 46.328 26.696 45.312 25.944 44.016C25.208 42.72 24.84 41.248 24.84 39.6C24.84 37.952 25.208 36.48 25.944 35.184C26.696 33.872 27.72 32.856 29.016 32.136C30.328 31.4 31.784 31.032 33.384 31.032C35.272 31.032 36.912 31.496 38.304 32.424C39.696 33.336 40.656 34.624 41.184 36.288H37.32ZM47.4379 36.768C47.8699 36.064 48.4299 35.512 49.1179 35.112C49.8219 34.712 50.6219 34.512 51.5179 34.512V38.04H50.6299C49.5739 38.04 48.7739 38.288 48.2299 38.784C47.7019 39.28 47.4379 40.144 47.4379 41.376V48H44.0779V34.704H47.4379V36.768ZM52.917 41.304C52.917 39.96 53.181 38.768 53.709 37.728C54.253 36.688 54.981 35.888 55.893 35.328C56.821 34.768 57.853 34.488 58.989 34.488C59.981 34.488 60.845 34.688 61.581 35.088C62.333 35.488 62.933 35.992 63.381 36.6V34.704H66.765V48H63.381V46.056C62.949 46.68 62.349 47.2 61.581 47.616C60.829 48.016 59.957 48.216 58.965 48.216C57.845 48.216 56.821 47.928 55.893 47.352C54.981 46.776 54.253 45.968 53.709 44.928C53.181 43.872 52.917 42.664 52.917 41.304ZM63.381 41.352C63.381 40.536 63.221 39.84 62.901 39.264C62.581 38.672 62.149 38.224 61.605 37.92C61.061 37.6 60.477 37.44 59.853 37.44C59.229 37.44 58.653 37.592 58.125 37.896C57.597 38.2 57.165 38.648 56.829 39.24C56.509 39.816 56.349 40.504 56.349 41.304C56.349 42.104 56.509 42.808 56.829 43.416C57.165 44.008 57.597 44.464 58.125 44.784C58.669 45.104 59.245 45.264 59.853 45.264C60.477 45.264 61.061 45.112 61.605 44.808C62.149 44.488 62.581 44.04 62.901 43.464C63.221 42.872 63.381 42.168 63.381 41.352ZM73.9586 37.464V43.896C73.9586 44.344 74.0626 44.672 74.2706 44.88C74.4946 45.072 74.8626 45.168 75.3746 45.168H76.9346V48H74.8226C71.9906 48 70.5746 46.624 70.5746 43.872V37.464H68.9906V34.704H70.5746V31.416H73.9586V34.704H76.9346V37.464H73.9586ZM81.0553 33.12C80.4633 33.12 79.9673 32.936 79.5673 32.568C79.1833 32.184 78.9913 31.712 78.9913 31.152C78.9913 30.592 79.1833 30.128 79.5673 29.76C79.9673 29.376 80.4633 29.184 81.0553 29.184C81.6473 29.184 82.1353 29.376 82.5193 29.76C82.9193 30.128 83.1193 30.592 83.1193 31.152C83.1193 31.712 82.9193 32.184 82.5193 32.568C82.1353 32.936 81.6473 33.12 81.0553 33.12ZM82.7113 34.704V48H79.3513V34.704H82.7113ZM91.119 48.216C90.031 48.216 89.055 48.024 88.191 47.64C87.327 47.24 86.639 46.704 86.127 46.032C85.631 45.36 85.359 44.616 85.311 43.8H88.695C88.759 44.312 89.007 44.736 89.439 45.072C89.887 45.408 90.439 45.576 91.095 45.576C91.735 45.576 92.231 45.448 92.583 45.192C92.951 44.936 93.135 44.608 93.135 44.208C93.135 43.776 92.911 43.456 92.463 43.248C92.031 43.024 91.335 42.784 90.375 42.528C89.383 42.288 88.567 42.04 87.927 41.784C87.303 41.528 86.759 41.136 86.295 40.608C85.847 40.08 85.623 39.368 85.623 38.472C85.623 37.736 85.831 37.064 86.247 36.456C86.679 35.848 87.287 35.368 88.071 35.016C88.871 34.664 89.807 34.488 90.879 34.488C92.463 34.488 93.727 34.888 94.671 35.688C95.615 36.472 96.135 37.536 96.231 38.88H93.015C92.967 38.352 92.743 37.936 92.343 37.632C91.959 37.312 91.439 37.152 90.783 37.152C90.175 37.152 89.703 37.264 89.367 37.488C89.047 37.712 88.887 38.024 88.887 38.424C88.887 38.872 89.111 39.216 89.559 39.456C90.007 39.68 90.703 39.912 91.647 40.152C92.607 40.392 93.399 40.64 94.023 40.896C94.647 41.152 95.183 41.552 95.631 42.096C96.095 42.624 96.335 43.328 96.351 44.208C96.351 44.976 96.135 45.664 95.703 46.272C95.287 46.88 94.679 47.36 93.879 47.712C93.095 48.048 92.175 48.216 91.119 48.216ZM112.604 48.168C111.036 48.168 109.596 47.8 108.284 47.064C106.972 46.328 105.932 45.312 105.164 44.016C104.396 42.704 104.012 41.224 104.012 39.576C104.012 37.944 104.396 36.48 105.164 35.184C105.932 33.872 106.972 32.848 108.284 32.112C109.596 31.376 111.036 31.008 112.604 31.008C114.188 31.008 115.628 31.376 116.924 32.112C118.236 32.848 119.268 33.872 120.02 35.184C120.788 36.48 121.172 37.944 121.172 39.576C121.172 41.224 120.788 42.704 120.02 44.016C119.268 45.312 118.236 46.328 116.924 47.064C115.612 47.8 114.172 48.168 112.604 48.168ZM112.604 45.168C113.612 45.168 114.5 44.944 115.268 44.496C116.036 44.032 116.636 43.376 117.068 42.528C117.5 41.68 117.716 40.696 117.716 39.576C117.716 38.456 117.5 37.48 117.068 36.648C116.636 35.8 116.036 35.152 115.268 34.704C114.5 34.256 113.612 34.032 112.604 34.032C111.596 34.032 110.7 34.256 109.916 34.704C109.148 35.152 108.548 35.8 108.116 36.648C107.684 37.48 107.468 38.456 107.468 39.576C107.468 40.696 107.684 41.68 108.116 42.528C108.548 43.376 109.148 44.032 109.916 44.496C110.7 44.944 111.596 45.168 112.604 45.168ZM131.04 34.512C132.624 34.512 133.904 35.016 134.88 36.024C135.856 37.016 136.344 38.408 136.344 40.2V48H132.984V40.656C132.984 39.6 132.72 38.792 132.192 38.232C131.664 37.656 130.944 37.368 130.032 37.368C129.104 37.368 128.368 37.656 127.824 38.232C127.296 38.792 127.032 39.6 127.032 40.656V48H123.672V34.704H127.032V36.36C127.48 35.784 128.048 35.336 128.736 35.016C129.44 34.68 130.208 34.512 131.04 34.512ZM144.747 34.488C145.739 34.488 146.611 34.688 147.363 35.088C148.115 35.472 148.707 35.976 149.139 36.6V34.704H152.523V48.096C152.523 49.328 152.275 50.424 151.779 51.384C151.283 52.36 150.539 53.128 149.547 53.688C148.555 54.264 147.355 54.552 145.947 54.552C144.059 54.552 142.507 54.112 141.291 53.232C140.091 52.352 139.411 51.152 139.251 49.632H142.587C142.763 50.24 143.139 50.72 143.715 51.072C144.307 51.44 145.019 51.624 145.851 51.624C146.827 51.624 147.619 51.328 148.227 50.736C148.835 50.16 149.139 49.28 149.139 48.096V46.032C148.707 46.656 148.107 47.176 147.339 47.592C146.587 48.008 145.723 48.216 144.747 48.216C143.627 48.216 142.603 47.928 141.675 47.352C140.747 46.776 140.011 45.968 139.467 44.928C138.939 43.872 138.675 42.664 138.675 41.304C138.675 39.96 138.939 38.768 139.467 37.728C140.011 36.688 140.739 35.888 141.651 35.328C142.579 34.768 143.611 34.488 144.747 34.488ZM149.139 41.352C149.139 40.536 148.979 39.84 148.659 39.264C148.339 38.672 147.907 38.224 147.363 37.92C146.819 37.6 146.235 37.44 145.611 37.44C144.987 37.44 144.411 37.592 143.883 37.896C143.355 38.2 142.923 38.648 142.587 39.24C142.267 39.816 142.107 40.504 142.107 41.304C142.107 42.104 142.267 42.808 142.587 43.416C142.923 44.008 143.355 44.464 143.883 44.784C144.427 45.104 145.003 45.264 145.611 45.264C146.235 45.264 146.819 45.112 147.363 44.808C147.907 44.488 148.339 44.04 148.659 43.464C148.979 42.872 149.139 42.168 149.139 41.352ZM163.676 48L159.164 42.336V48H155.804V30.24H159.164V40.344L163.628 34.704H167.996L162.14 41.376L168.044 48H163.676ZM171.524 33.12C170.932 33.12 170.436 32.936 170.036 32.568C169.652 32.184 169.46 31.712 169.46 31.152C169.46 30.592 169.652 30.128 170.036 29.76C170.436 29.376 170.932 29.184 171.524 29.184C172.116 29.184 172.604 29.376 172.988 29.76C173.388 30.128 173.588 30.592 173.588 31.152C173.588 31.712 173.388 32.184 172.988 32.568C172.604 32.936 172.116 33.12 171.524 33.12ZM173.18 34.704V48H169.82V34.704H173.18ZM179.86 36.768C180.292 36.064 180.852 35.512 181.54 35.112C182.244 34.712 183.044 34.512 183.94 34.512V38.04H183.052C181.996 38.04 181.196 38.288 180.652 38.784C180.124 39.28 179.86 40.144 179.86 41.376V48H176.5V34.704H179.86V36.768Z" fill="white"/>
<path d="M36.208 62.96V74H35.088V65.184L31.152 74H30.336L26.4 65.216V74H25.28V62.96H26.464L30.736 72.528L35.008 62.96H36.208ZM39.3088 63.616C39.0848 63.616 38.8928 63.536 38.7328 63.376C38.5728 63.216 38.4928 63.0187 38.4928 62.784C38.4928 62.5493 38.5728 62.3573 38.7328 62.208C38.8928 62.048 39.0848 61.968 39.3088 61.968C39.5328 61.968 39.7248 62.048 39.8848 62.208C40.0448 62.3573 40.1248 62.5493 40.1248 62.784C40.1248 63.0187 40.0448 63.216 39.8848 63.376C39.7248 63.536 39.5328 63.616 39.3088 63.616ZM39.8688 65.264V74H38.7488V65.264H39.8688ZM46.501 65.104C47.5463 65.104 48.3997 65.4293 49.061 66.08C49.7223 66.72 50.053 67.6533 50.053 68.88V74H48.949V69.008C48.949 68.0587 48.709 67.3333 48.229 66.832C47.7597 66.3307 47.1143 66.08 46.293 66.08C45.4503 66.08 44.7783 66.3467 44.277 66.88C43.7757 67.4133 43.525 68.1973 43.525 69.232V74H42.405V65.264H43.525V66.752C43.8023 66.2187 44.2023 65.8133 44.725 65.536C45.2477 65.248 45.8397 65.104 46.501 65.104ZM53.09 63.616C52.866 63.616 52.674 63.536 52.514 63.376C52.354 63.216 52.274 63.0187 52.274 62.784C52.274 62.5493 52.354 62.3573 52.514 62.208C52.674 62.048 52.866 61.968 53.09 61.968C53.314 61.968 53.506 62.048 53.666 62.208C53.826 62.3573 53.906 62.5493 53.906 62.784C53.906 63.0187 53.826 63.216 53.666 63.376C53.506 63.536 53.314 63.616 53.09 63.616ZM53.65 65.264V74H52.53V65.264H53.65ZM66.5863 65.104C67.6103 65.104 68.4423 65.4293 69.0823 66.08C69.7329 66.72 70.0583 67.6533 70.0583 68.88V74H68.9543V69.008C68.9543 68.0587 68.7249 67.3333 68.2663 66.832C67.8076 66.3307 67.1836 66.08 66.3943 66.08C65.5729 66.08 64.9169 66.352 64.4263 66.896C63.9356 67.44 63.6903 68.2293 63.6903 69.264V74H62.5863V69.008C62.5863 68.0587 62.3569 67.3333 61.8983 66.832C61.4396 66.3307 60.8103 66.08 60.0103 66.08C59.1889 66.08 58.5329 66.352 58.0423 66.896C57.5516 67.44 57.3063 68.2293 57.3063 69.264V74H56.1863V65.264H57.3063V66.768C57.5836 66.224 57.9783 65.8133 58.4903 65.536C59.0023 65.248 59.5729 65.104 60.2023 65.104C60.9596 65.104 61.6209 65.2853 62.1863 65.648C62.7623 66.0107 63.1783 66.544 63.4343 67.248C63.6689 66.5547 64.0689 66.0267 64.6343 65.664C65.2103 65.2907 65.8609 65.104 66.5863 65.104ZM72.0336 69.616C72.0336 68.72 72.2096 67.936 72.5616 67.264C72.9243 66.5813 73.4203 66.0587 74.0496 65.696C74.6896 65.3227 75.4096 65.136 76.2096 65.136C77.0416 65.136 77.7563 65.328 78.3536 65.712C78.9616 66.096 79.399 66.5867 79.6656 67.184V65.264H80.7856V74H79.6656V72.064C79.3883 72.6613 78.9456 73.1573 78.3376 73.552C77.7403 73.936 77.0256 74.128 76.1936 74.128C75.4043 74.128 74.6896 73.9413 74.0496 73.568C73.4203 73.1947 72.9243 72.6667 72.5616 71.984C72.2096 71.3013 72.0336 70.512 72.0336 69.616ZM79.6656 69.632C79.6656 68.928 79.5216 68.3093 79.2336 67.776C78.9456 67.2427 78.551 66.832 78.0496 66.544C77.559 66.256 77.015 66.112 76.4176 66.112C75.799 66.112 75.2443 66.2507 74.7536 66.528C74.263 66.8053 73.8736 67.2107 73.5856 67.744C73.3083 68.2667 73.1696 68.8907 73.1696 69.616C73.1696 70.3307 73.3083 70.96 73.5856 71.504C73.8736 72.0373 74.263 72.448 74.7536 72.736C75.2443 73.0133 75.799 73.152 76.4176 73.152C77.015 73.152 77.559 73.008 78.0496 72.72C78.551 72.432 78.9456 72.0213 79.2336 71.488C79.5216 70.9547 79.6656 70.336 79.6656 69.632ZM84.4625 62.16V74H83.3425V62.16H84.4625ZM90.8774 68.4C90.8774 67.3013 91.1174 66.32 91.5974 65.456C92.0774 64.5813 92.7334 63.904 93.5654 63.424C94.3974 62.9333 95.3254 62.688 96.3494 62.688C97.5974 62.688 98.664 62.9867 99.5494 63.584C100.445 64.1707 101.096 65.0027 101.501 66.08H100.189C99.8694 65.3227 99.3787 64.7307 98.7174 64.304C98.0667 63.8773 97.2774 63.664 96.3494 63.664C95.528 63.664 94.7867 63.856 94.1254 64.24C93.4747 64.624 92.9627 65.1787 92.5894 65.904C92.216 66.6187 92.0294 67.4507 92.0294 68.4C92.0294 69.3493 92.216 70.1813 92.5894 70.896C92.9627 71.6107 93.4747 72.16 94.1254 72.544C94.7867 72.928 95.528 73.12 96.3494 73.12C97.2774 73.12 98.0667 72.912 98.7174 72.496C99.3787 72.0693 99.8694 71.4827 100.189 70.736H101.501C101.096 71.8027 100.445 72.6293 99.5494 73.216C98.6534 73.8027 97.5867 74.096 96.3494 74.096C95.3254 74.096 94.3974 73.856 93.5654 73.376C92.7334 72.8853 92.0774 72.208 91.5974 71.344C91.1174 70.48 90.8774 69.4987 90.8774 68.4ZM111.301 65.264V74H110.181V72.464C109.925 73.008 109.53 73.424 108.997 73.712C108.464 74 107.866 74.144 107.205 74.144C106.16 74.144 105.306 73.824 104.645 73.184C103.984 72.5333 103.653 71.5947 103.653 70.368V65.264H104.757V70.24C104.757 71.1893 104.992 71.9147 105.461 72.416C105.941 72.9173 106.592 73.168 107.413 73.168C108.256 73.168 108.928 72.9013 109.429 72.368C109.93 71.8347 110.181 71.0507 110.181 70.016V65.264H111.301ZM113.346 69.632C113.346 68.7253 113.527 67.936 113.89 67.264C114.253 66.5813 114.754 66.0587 115.394 65.696C116.034 65.3227 116.765 65.136 117.586 65.136C118.663 65.136 119.549 65.4027 120.242 65.936C120.946 66.4693 121.399 67.1947 121.602 68.112H120.402C120.253 67.4827 119.927 66.992 119.426 66.64C118.935 66.2773 118.322 66.096 117.586 66.096C116.999 66.096 116.471 66.2293 116.002 66.496C115.533 66.7627 115.159 67.1627 114.882 67.696C114.615 68.2187 114.482 68.864 114.482 69.632C114.482 70.4 114.615 71.0507 114.882 71.584C115.159 72.1173 115.533 72.5173 116.002 72.784C116.471 73.0507 116.999 73.184 117.586 73.184C118.322 73.184 118.935 73.008 119.426 72.656C119.927 72.2933 120.253 71.792 120.402 71.152H121.602C121.399 72.048 120.946 72.768 120.242 73.312C119.538 73.856 118.653 74.128 117.586 74.128C116.765 74.128 116.034 73.9467 115.394 73.584C114.754 73.2107 114.253 72.688 113.89 72.016C113.527 71.3333 113.346 70.5387 113.346 69.632ZM124.231 63.616C124.007 63.616 123.815 63.536 123.655 63.376C123.495 63.216 123.415 63.0187 123.415 62.784C123.415 62.5493 123.495 62.3573 123.655 62.208C123.815 62.048 124.007 61.968 124.231 61.968C124.455 61.968 124.647 62.048 124.807 62.208C124.967 62.3573 125.047 62.5493 125.047 62.784C125.047 63.0187 124.967 63.216 124.807 63.376C124.647 63.536 124.455 63.616 124.231 63.616ZM124.791 65.264V74H123.671V65.264H124.791ZM138.71 63.488H132.854V67.584C133.12 67.2107 133.51 66.9067 134.022 66.672C134.534 66.4267 135.088 66.304 135.686 66.304C136.56 66.304 137.275 66.4853 137.83 66.848C138.384 67.2 138.784 67.664 139.03 68.24C139.275 68.8053 139.398 69.4133 139.398 70.064C139.398 70.8107 139.254 71.488 138.966 72.096C138.688 72.6933 138.256 73.168 137.67 73.52C137.094 73.872 136.374 74.048 135.51 74.048C134.411 74.048 133.52 73.7653 132.838 73.2C132.155 72.624 131.739 71.8507 131.59 70.88H132.694C132.832 71.584 133.152 72.128 133.654 72.512C134.155 72.896 134.774 73.088 135.51 73.088C136.438 73.088 137.136 72.816 137.606 72.272C138.086 71.7173 138.326 70.9867 138.326 70.08C138.326 69.1947 138.086 68.5067 137.606 68.016C137.126 67.5147 136.438 67.264 135.542 67.264C134.923 67.264 134.379 67.408 133.91 67.696C133.44 67.984 133.094 68.3733 132.87 68.864H131.814V62.512H138.71V63.488ZM151.951 74L147.103 68.832V74H145.983V62.816H147.103V68.048L151.951 62.816H153.375L148.143 68.4L153.423 74H151.951ZM163.877 66.08C163.557 65.344 163.066 64.768 162.405 64.352C161.754 63.9253 160.986 63.712 160.101 63.712C159.269 63.712 158.522 63.904 157.861 64.288C157.2 64.672 156.677 65.2213 156.293 65.936C155.909 66.64 155.717 67.4613 155.717 68.4C155.717 69.3387 155.909 70.1653 156.293 70.88C156.677 71.5947 157.2 72.144 157.861 72.528C158.522 72.912 159.269 73.104 160.101 73.104C160.88 73.104 161.578 72.9387 162.197 72.608C162.826 72.2667 163.328 71.7867 163.701 71.168C164.085 70.5387 164.304 69.808 164.357 68.976H159.653V68.064H165.541V68.88C165.488 69.8613 165.221 70.752 164.741 71.552C164.261 72.3413 163.616 72.9653 162.805 73.424C162.005 73.8827 161.104 74.112 160.101 74.112C159.066 74.112 158.128 73.872 157.285 73.392C156.442 72.9013 155.776 72.224 155.285 71.36C154.805 70.4853 154.565 69.4987 154.565 68.4C154.565 67.3013 154.805 66.32 155.285 65.456C155.776 64.5813 156.442 63.904 157.285 63.424C158.128 62.9333 159.066 62.688 160.101 62.688C161.296 62.688 162.341 62.9867 163.237 63.584C164.133 64.1813 164.784 65.0133 165.189 66.08H163.877Z" fill="white"/>
</g>
<path d="M24.518 123.114C24.518 122.162 24.7373 121.308 25.176 120.552C25.624 119.796 26.226 119.208 26.982 118.788C27.7473 118.359 28.5827 118.144 29.488 118.144C30.524 118.144 31.4433 118.401 32.246 118.914C33.058 119.418 33.646 120.137 34.01 121.07H32.092C31.84 120.557 31.49 120.174 31.042 119.922C30.594 119.67 30.076 119.544 29.488 119.544C28.844 119.544 28.27 119.689 27.766 119.978C27.262 120.267 26.8653 120.683 26.576 121.224C26.296 121.765 26.156 122.395 26.156 123.114C26.156 123.833 26.296 124.463 26.576 125.004C26.8653 125.545 27.262 125.965 27.766 126.264C28.27 126.553 28.844 126.698 29.488 126.698C30.076 126.698 30.594 126.572 31.042 126.32C31.49 126.068 31.84 125.685 32.092 125.172H34.01C33.646 126.105 33.058 126.824 32.246 127.328C31.4433 127.832 30.524 128.084 29.488 128.084C28.5733 128.084 27.738 127.874 26.982 127.454C26.226 127.025 25.624 126.432 25.176 125.676C24.7373 124.92 24.518 124.066 24.518 123.114ZM42.9481 123.954C42.9481 124.243 42.9295 124.505 42.8921 124.738H36.9981C37.0448 125.354 37.2735 125.849 37.6841 126.222C38.0948 126.595 38.5988 126.782 39.1961 126.782C40.0548 126.782 40.6615 126.423 41.0161 125.704H42.7381C42.5048 126.413 42.0801 126.997 41.4641 127.454C40.8575 127.902 40.1015 128.126 39.1961 128.126C38.4588 128.126 37.7961 127.963 37.2081 127.636C36.6295 127.3 36.1721 126.833 35.8361 126.236C35.5095 125.629 35.3461 124.929 35.3461 124.136C35.3461 123.343 35.5048 122.647 35.8221 122.05C36.1488 121.443 36.6015 120.977 37.1801 120.65C37.7681 120.323 38.4401 120.16 39.1961 120.16C39.9241 120.16 40.5728 120.319 41.1421 120.636C41.7115 120.953 42.1548 121.401 42.4721 121.98C42.7895 122.549 42.9481 123.207 42.9481 123.954ZM41.2821 123.45C41.2728 122.862 41.0628 122.391 40.6521 122.036C40.2415 121.681 39.7328 121.504 39.1261 121.504C38.5755 121.504 38.1041 121.681 37.7121 122.036C37.3201 122.381 37.0868 122.853 37.0121 123.45H41.2821ZM47.5708 124.15L51.1268 128H48.9708L46.1148 124.682V128H44.5188V117.64H46.1148V123.66L48.9148 120.286H51.1268L47.5708 124.15ZM59.1134 128.098C58.4601 128.098 57.8721 127.986 57.3494 127.762C56.8268 127.529 56.4161 127.202 56.1174 126.782C55.8188 126.362 55.6694 125.872 55.6694 125.312H57.3774C57.4148 125.732 57.5781 126.077 57.8674 126.348C58.1661 126.619 58.5814 126.754 59.1134 126.754C59.6641 126.754 60.0934 126.623 60.4014 126.362C60.7094 126.091 60.8634 125.746 60.8634 125.326C60.8634 124.999 60.7654 124.733 60.5694 124.528C60.3828 124.323 60.1448 124.164 59.8554 124.052C59.5754 123.94 59.1834 123.819 58.6794 123.688C58.0448 123.52 57.5268 123.352 57.1254 123.184C56.7334 123.007 56.3974 122.736 56.1174 122.372C55.8374 122.008 55.6974 121.523 55.6974 120.916C55.6974 120.356 55.8374 119.866 56.1174 119.446C56.3974 119.026 56.7894 118.704 57.2934 118.48C57.7974 118.256 58.3808 118.144 59.0434 118.144C59.9861 118.144 60.7561 118.382 61.3534 118.858C61.9601 119.325 62.2961 119.969 62.3614 120.79H60.5974C60.5694 120.435 60.4014 120.132 60.0934 119.88C59.7854 119.628 59.3794 119.502 58.8754 119.502C58.4181 119.502 58.0448 119.619 57.7554 119.852C57.4661 120.085 57.3214 120.421 57.3214 120.86C57.3214 121.159 57.4101 121.406 57.5874 121.602C57.7741 121.789 58.0074 121.938 58.2874 122.05C58.5674 122.162 58.9501 122.283 59.4354 122.414C60.0794 122.591 60.6021 122.769 61.0034 122.946C61.4141 123.123 61.7594 123.399 62.0394 123.772C62.3288 124.136 62.4734 124.626 62.4734 125.242C62.4734 125.737 62.3381 126.203 62.0674 126.642C61.8061 127.081 61.4188 127.435 60.9054 127.706C60.4014 127.967 59.8041 128.098 59.1134 128.098ZM71.4266 123.954C71.4266 124.243 71.408 124.505 71.3706 124.738H65.4766C65.5233 125.354 65.752 125.849 66.1626 126.222C66.5733 126.595 67.0773 126.782 67.6746 126.782C68.5333 126.782 69.14 126.423 69.4946 125.704H71.2166C70.9833 126.413 70.5586 126.997 69.9426 127.454C69.336 127.902 68.58 128.126 67.6746 128.126C66.9373 128.126 66.2746 127.963 65.6866 127.636C65.108 127.3 64.6506 126.833 64.3146 126.236C63.988 125.629 63.8246 124.929 63.8246 124.136C63.8246 123.343 63.9833 122.647 64.3006 122.05C64.6273 121.443 65.08 120.977 65.6586 120.65C66.2466 120.323 66.9186 120.16 67.6746 120.16C68.4026 120.16 69.0513 120.319 69.6206 120.636C70.19 120.953 70.6333 121.401 70.9506 121.98C71.268 122.549 71.4266 123.207 71.4266 123.954ZM69.7606 123.45C69.7513 122.862 69.5413 122.391 69.1306 122.036C68.72 121.681 68.2113 121.504 67.6046 121.504C67.054 121.504 66.5826 121.681 66.1906 122.036C65.7986 122.381 65.5653 122.853 65.4906 123.45H69.7606ZM76.0493 124.15L79.6053 128H77.4493L74.5933 124.682V128H72.9973V117.64H74.5933V123.66L77.3933 120.286H79.6053L76.0493 124.15ZM80.2172 124.108C80.2172 123.333 80.3759 122.647 80.6932 122.05C81.0199 121.453 81.4586 120.991 82.0092 120.664C82.5692 120.328 83.1852 120.16 83.8572 120.16C84.4639 120.16 84.9912 120.281 85.4392 120.524C85.8966 120.757 86.2606 121.051 86.5312 121.406V120.286H88.1412V128H86.5312V126.852C86.2606 127.216 85.8919 127.519 85.4252 127.762C84.9586 128.005 84.4266 128.126 83.8292 128.126C83.1666 128.126 82.5599 127.958 82.0092 127.622C81.4586 127.277 81.0199 126.801 80.6932 126.194C80.3759 125.578 80.2172 124.883 80.2172 124.108ZM86.5312 124.136C86.5312 123.604 86.4192 123.142 86.1952 122.75C85.9806 122.358 85.6959 122.059 85.3412 121.854C84.9866 121.649 84.6039 121.546 84.1932 121.546C83.7826 121.546 83.3999 121.649 83.0452 121.854C82.6906 122.05 82.4012 122.344 82.1772 122.736C81.9626 123.119 81.8552 123.576 81.8552 124.108C81.8552 124.64 81.9626 125.107 82.1772 125.508C82.4012 125.909 82.6906 126.217 83.0452 126.432C83.4092 126.637 83.7919 126.74 84.1932 126.74C84.6039 126.74 84.9866 126.637 85.3412 126.432C85.6959 126.227 85.9806 125.928 86.1952 125.536C86.4192 125.135 86.5312 124.668 86.5312 124.136ZM91.8335 121.406C92.0668 121.014 92.3748 120.711 92.7575 120.496C93.1495 120.272 93.6115 120.16 94.1435 120.16V121.812H93.7375C93.1122 121.812 92.6362 121.971 92.3095 122.288C91.9922 122.605 91.8335 123.156 91.8335 123.94V128H90.2375V120.286H91.8335V121.406ZM95.0785 124.108C95.0785 123.333 95.2372 122.647 95.5545 122.05C95.8812 121.453 96.3199 120.991 96.8705 120.664C97.4305 120.328 98.0465 120.16 98.7185 120.16C99.3252 120.16 99.8525 120.281 100.301 120.524C100.758 120.757 101.122 121.051 101.393 121.406V120.286H103.003V128H101.393V126.852C101.122 127.216 100.753 127.519 100.287 127.762C99.8199 128.005 99.2879 128.126 98.6905 128.126C98.0279 128.126 97.4212 127.958 96.8705 127.622C96.3199 127.277 95.8812 126.801 95.5545 126.194C95.2372 125.578 95.0785 124.883 95.0785 124.108ZM101.393 124.136C101.393 123.604 101.281 123.142 101.057 122.75C100.842 122.358 100.557 122.059 100.203 121.854C99.8479 121.649 99.4652 121.546 99.0545 121.546C98.6439 121.546 98.2612 121.649 97.9065 121.854C97.5519 122.05 97.2625 122.344 97.0385 122.736C96.8239 123.119 96.7165 123.576 96.7165 124.108C96.7165 124.64 96.8239 125.107 97.0385 125.508C97.2625 125.909 97.5519 126.217 97.9065 126.432C98.2705 126.637 98.6532 126.74 99.0545 126.74C99.4652 126.74 99.8479 126.637 100.203 126.432C100.557 126.227 100.842 125.928 101.057 125.536C101.281 125.135 101.393 124.668 101.393 124.136ZM108.991 120.16C109.597 120.16 110.139 120.286 110.615 120.538C111.1 120.79 111.478 121.163 111.749 121.658C112.019 122.153 112.155 122.75 112.155 123.45V128H110.573V123.688C110.573 122.997 110.4 122.47 110.055 122.106C109.709 121.733 109.238 121.546 108.641 121.546C108.043 121.546 107.567 121.733 107.213 122.106C106.867 122.47 106.695 122.997 106.695 123.688V128H105.099V120.286H106.695V121.168C106.956 120.851 107.287 120.603 107.689 120.426C108.099 120.249 108.533 120.16 108.991 120.16ZM117.299 120.16C117.896 120.16 118.423 120.281 118.881 120.524C119.347 120.757 119.711 121.051 119.973 121.406V120.286H121.583V128.126C121.583 128.835 121.433 129.465 121.135 130.016C120.836 130.576 120.402 131.015 119.833 131.332C119.273 131.649 118.601 131.808 117.817 131.808C116.771 131.808 115.903 131.561 115.213 131.066C114.522 130.581 114.13 129.918 114.037 129.078H115.619C115.74 129.479 115.997 129.801 116.389 130.044C116.79 130.296 117.266 130.422 117.817 130.422C118.461 130.422 118.979 130.226 119.371 129.834C119.772 129.442 119.973 128.873 119.973 128.126V126.838C119.702 127.202 119.333 127.51 118.867 127.762C118.409 128.005 117.887 128.126 117.299 128.126C116.627 128.126 116.011 127.958 115.451 127.622C114.9 127.277 114.461 126.801 114.135 126.194C113.817 125.578 113.659 124.883 113.659 124.108C113.659 123.333 113.817 122.647 114.135 122.05C114.461 121.453 114.9 120.991 115.451 120.664C116.011 120.328 116.627 120.16 117.299 120.16ZM119.973 124.136C119.973 123.604 119.861 123.142 119.637 122.75C119.422 122.358 119.137 122.059 118.783 121.854C118.428 121.649 118.045 121.546 117.635 121.546C117.224 121.546 116.841 121.649 116.487 121.854C116.132 122.05 115.843 122.344 115.619 122.736C115.404 123.119 115.297 123.576 115.297 124.108C115.297 124.64 115.404 125.107 115.619 125.508C115.843 125.909 116.132 126.217 116.487 126.432C116.851 126.637 117.233 126.74 117.635 126.74C118.045 126.74 118.428 126.637 118.783 126.432C119.137 126.227 119.422 125.928 119.637 125.536C119.861 125.135 119.973 124.668 119.973 124.136ZM125.681 118.27L125.499 125.06H124.169L123.987 118.27H125.681ZM124.883 128.098C124.594 128.098 124.351 128 124.155 127.804C123.959 127.608 123.861 127.365 123.861 127.076C123.861 126.787 123.959 126.544 124.155 126.348C124.351 126.152 124.594 126.054 124.883 126.054C125.163 126.054 125.401 126.152 125.597 126.348C125.793 126.544 125.891 126.787 125.891 127.076C125.891 127.365 125.793 127.608 125.597 127.804C125.401 128 125.163 128.098 124.883 128.098Z" fill="white"/>
</g>
<defs>
<filter id="filter0_d_34_1635" x="18" y="18" width="415.082" height="299" filterUnits="userSpaceOnUse" color-interpolation-filters="sRGB">
<feFlood flood-opacity="0" result="BackgroundImageFix"/>
<feColorMatrix in="SourceAlpha" type="matrix" values="0 0 0 0 0 0 0 0 0 0 0 0 0 0 0 0 0 0 127 0" result="hardAlpha"/>
<feOffset dy="16"/>
<feGaussianBlur stdDeviation="20"/>
<feColorMatrix type="matrix" values="0 0 0 0 0 0 0 0 0 0 0 0 0 0 0 0 0 0 0.16 0"/>
<feBlend mode="normal" in2="BackgroundImageFix" result="effect1_dropShadow_34_1635"/>
<feBlend mode="normal" in="SourceGraphic" in2="effect1_dropShadow_34_1635" result="shape"/>
</filter>
<filter id="filter1_i_34_1635" x="297.344" y="42" width="96.7377" height="97.7377" filterUnits="userSpaceOnUse" color-interpolation-filters="sRGB">
<feFlood flood-opacity="0" result="BackgroundImageFix"/>
<feBlend mode="normal" in="SourceGraphic" in2="BackgroundImageFix" result="shape"/>
<feColorMatrix in="SourceAlpha" type="matrix" values="0 0 0 0 0 0 0 0 0 0 0 0 0 0 0 0 0 0 127 0" result="hardAlpha"/>
<feOffset dx="1" dy="2"/>
<feGaussianBlur stdDeviation="1"/>
<feComposite in2="hardAlpha" operator="arithmetic" k2="-1" k3="1"/>
<feColorMatrix type="matrix" values="0 0 0 0 1 0 0 0 0 1 0 0 0 0 1 0 0 0 0.25 0"/>
<feBlend mode="overlay" in2="shape" result="effect1_innerShadow_34_1635"/>
</filter>
<filter id="filter2_i_34_1635" x="129.803" y="137.738" width="70.6066" height="71.6066" filterUnits="userSpaceOnUse" color-interpolation-filters="sRGB">
<feFlood flood-opacity="0" result="BackgroundImageFix"/>
<feBlend mode="normal" in="SourceGraphic" in2="BackgroundImageFix" result="shape"/>
<feColorMatrix in="SourceAlpha" type="matrix" values="0 0 0 0 0 0 0 0 0 0 0 0 0 0 0 0 0 0 127 0" result="hardAlpha"/>
<feOffset dy="1"/>
<feGaussianBlur stdDeviation="1"/>
<feComposite in2="hardAlpha" operator="arithmetic" k2="-1" k3="1"/>
<feColorMatrix type="matrix" values="0 0 0 0 1 0 0 0 0 1 0 0 0 0 1 0 0 0 0.25 0"/>
<feBlend mode="overlay" in2="shape" result="effect1_innerShadow_34_1635"/>
</filter>
<filter id="filter3_i_34_1635" x="199.41" y="42" width="97.9344" height="167.344" filterUnits="userSpaceOnUse" color-interpolation-filters="sRGB">
<feFlood flood-opacity="0" result="BackgroundImageFix"/>
<feBlend mode="normal" in="SourceGraphic" in2="BackgroundImageFix" result="shape"/>
<feColorMatrix in="SourceAlpha" type="matrix" values="0 0 0 0 0 0 0 0 0 0 0 0 0 0 0 0 0 0 127 0" result="hardAlpha"/>
<feOffset dx="-1" dy="1"/>
<feGaussianBlur stdDeviation="1"/>
<feComposite in2="hardAlpha" operator="arithmetic" k2="-1" k3="1"/>
<feColorMatrix type="matrix" values="0 0 0 0 1 0 0 0 0 1 0 0 0 0 1 0 0 0 0.25 0"/>
<feBlend mode="overlay" in2="shape" result="effect1_innerShadow_34_1635"/>
</filter>
<filter id="filter4_i_34_1635" x="58" y="137.738" width="71.8032" height="125.262" filterUnits="userSpaceOnUse" color-interpolation-filters="sRGB">
<feFlood flood-opacity="0" result="BackgroundImageFix"/>
<feBlend mode="normal" in="SourceGraphic" in2="BackgroundImageFix" result="shape"/>
<feColorMatrix in="SourceAlpha" type="matrix" values="0 0 0 0 0 0 0 0 0 0 0 0 0 0 0 0 0 0 127 0" result="hardAlpha"/>
<feOffset dy="2"/>
<feGaussianBlur stdDeviation="1"/>
<feComposite in2="hardAlpha" operator="arithmetic" k2="-1" k3="1"/>
<feColorMatrix type="matrix" values="0 0 0 0 1 0 0 0 0 1 0 0 0 0 1 0 0 0 0.25 0"/>
<feBlend mode="overlay" in2="shape" result="effect1_innerShadow_34_1635"/>
</filter>
<filter id="filter5_d_34_1635" x="22" y="24" width="316" height="60" filterUnits="userSpaceOnUse" color-interpolation-filters="sRGB">
<feFlood flood-opacity="0" result="BackgroundImageFix"/>
<feColorMatrix in="SourceAlpha" type="matrix" values="0 0 0 0 0 0 0 0 0 0 0 0 0 0 0 0 0 0 127 0" result="hardAlpha"/>
<feOffset dy="2"/>
<feGaussianBlur stdDeviation="1"/>
<feColorMatrix type="matrix" values="0 0 0 0 0 0 0 0 0 0 0 0 0 0 0 0 0 0 0.24 0"/>
<feBlend mode="multiply" in2="BackgroundImageFix" result="effect1_dropShadow_34_1635"/>
<feBlend mode="normal" in="SourceGraphic" in2="effect1_dropShadow_34_1635" result="shape"/>
</filter>
<linearGradient id="paint0_linear_34_1635" x1="18.3667" y1="12.9167" x2="278.102" y2="164.168" gradientUnits="userSpaceOnUse">
<stop stop-color="#363359"/>
<stop offset="1" stop-color="#201D49"/>
</linearGradient>
<linearGradient id="paint1_linear_34_1635" x1="297.344" y1="42" x2="345.213" y2="152.098" gradientUnits="userSpaceOnUse">
<stop stop-color="#5E05C7"/>
<stop offset="1" stop-color="#9205AF"/>
</linearGradient>
<linearGradient id="paint2_linear_34_1635" x1="129.803" y1="137.738" x2="152.541" y2="237.066" gradientUnits="userSpaceOnUse">
<stop stop-color="#9A05B7"/>
<stop offset="1" stop-color="#5A05C9"/>
</linearGradient>
<linearGradient id="paint3_linear_34_1635" x1="200.41" y1="125.77" x2="279.574" y2="94.2722" gradientUnits="userSpaceOnUse">
<stop stop-color="#5E05C7"/>
<stop offset="1" stop-color="#9205AF"/>
</linearGradient>
<linearGradient id="paint4_linear_34_1635" x1="303.328" y1="137.738" x2="281.784" y2="221.104" gradientUnits="userSpaceOnUse">
<stop stop-color="#5E05C7"/>
<stop offset="1" stop-color="#9205AF"/>
</linearGradient>
<linearGradient id="paint5_linear_34_1635" x1="113.049" y1="146.115" x2="153.432" y2="218.171" gradientUnits="userSpaceOnUse">
<stop stop-color="#5E05C7"/>
<stop offset="1" stop-color="#9205AF"/>
</linearGradient>
<clipPath id="clip0_34_1635">
<rect width="348" height="155" fill="white"/>
</clipPath>
<clipPath id="clip1_34_1635">
<rect width="348" height="155" rx="16" fill="white"/>
</clipPath>
</defs>
</svg>
