<svg width="348" height="155" viewBox="0 0 348 155" fill="none" xmlns="http://www.w3.org/2000/svg">
<g clip-path="url(#clip0_34_1632)">
<g clip-path="url(#clip1_34_1632)">
<rect width="348" height="155" rx="16" fill="url(#paint0_linear_34_1632)"/>
<g style="mix-blend-mode:lighten" filter="url(#filter0_i_34_1632)">
<path d="M202.714 172H462.121L332.203 60L202.714 172Z" fill="url(#paint1_linear_34_1632)"/>
</g>
<g style="mix-blend-mode:hard-light" filter="url(#filter1_bi_34_1632)">
<path d="M165 182H320L242.372 116L165 182Z" fill="url(#paint2_linear_34_1632)"/>
</g>
<g style="mix-blend-mode:lighten" filter="url(#filter2_i_34_1632)">
<path d="M140 186H254L196.906 137L140 186Z" fill="url(#paint3_linear_34_1632)"/>
</g>
</g>
<g filter="url(#filter3_d_34_1632)">
<path d="M31.512 31.248C33.272 31.248 34.816 31.592 36.144 32.28C37.488 32.968 38.52 33.952 39.24 35.232C39.976 36.496 40.344 37.968 40.344 39.648C40.344 41.328 39.976 42.8 39.24 44.064C38.52 45.312 37.488 46.28 36.144 46.968C34.816 47.656 33.272 48 31.512 48H25.656V31.248H31.512ZM31.392 45.144C33.152 45.144 34.512 44.664 35.472 43.704C36.432 42.744 36.912 41.392 36.912 39.648C36.912 37.904 36.432 36.544 35.472 35.568C34.512 34.576 33.152 34.08 31.392 34.08H29.016V45.144H31.392ZM41.9951 41.304C41.9951 39.96 42.2591 38.768 42.7871 37.728C43.3311 36.688 44.0591 35.888 44.9711 35.328C45.8991 34.768 46.9311 34.488 48.0671 34.488C49.0591 34.488 49.9231 34.688 50.6591 35.088C51.4111 35.488 52.0111 35.992 52.4591 36.6V34.704H55.8431V48H52.4591V46.056C52.0271 46.68 51.4271 47.2 50.6591 47.616C49.9071 48.016 49.0351 48.216 48.0431 48.216C46.9231 48.216 45.8991 47.928 44.9711 47.352C44.0591 46.776 43.3311 45.968 42.7871 44.928C42.2591 43.872 41.9951 42.664 41.9951 41.304ZM52.4591 41.352C52.4591 40.536 52.2991 39.84 51.9791 39.264C51.6591 38.672 51.2271 38.224 50.6831 37.92C50.1391 37.6 49.5551 37.44 48.9311 37.44C48.3071 37.44 47.7311 37.592 47.2031 37.896C46.6751 38.2 46.2431 38.648 45.9071 39.24C45.5871 39.816 45.4271 40.504 45.4271 41.304C45.4271 42.104 45.5871 42.808 45.9071 43.416C46.2431 44.008 46.6751 44.464 47.2031 44.784C47.7471 45.104 48.3231 45.264 48.9311 45.264C49.5551 45.264 50.1391 45.112 50.6831 44.808C51.2271 44.488 51.6591 44.04 51.9791 43.464C52.2991 42.872 52.4591 42.168 52.4591 41.352ZM62.4848 36.624C62.9168 36.016 63.5088 35.512 64.2608 35.112C65.0288 34.696 65.9008 34.488 66.8768 34.488C68.0128 34.488 69.0368 34.768 69.9488 35.328C70.8768 35.888 71.6048 36.688 72.1328 37.728C72.6768 38.752 72.9488 39.944 72.9488 41.304C72.9488 42.664 72.6768 43.872 72.1328 44.928C71.6048 45.968 70.8768 46.776 69.9488 47.352C69.0368 47.928 68.0128 48.216 66.8768 48.216C65.9008 48.216 65.0368 48.016 64.2848 47.616C63.5488 47.216 62.9488 46.712 62.4848 46.104V54.336H59.1248V34.704H62.4848V36.624ZM69.5168 41.304C69.5168 40.504 69.3488 39.816 69.0128 39.24C68.6928 38.648 68.2608 38.2 67.7168 37.896C67.1888 37.592 66.6128 37.44 65.9888 37.44C65.3808 37.44 64.8048 37.6 64.2608 37.92C63.7328 38.224 63.3008 38.672 62.9648 39.264C62.6448 39.856 62.4848 40.552 62.4848 41.352C62.4848 42.152 62.6448 42.848 62.9648 43.44C63.3008 44.032 63.7328 44.488 64.2608 44.808C64.8048 45.112 65.3808 45.264 65.9888 45.264C66.6128 45.264 67.1888 45.104 67.7168 44.784C68.2608 44.464 68.6928 44.008 69.0128 43.416C69.3488 42.824 69.5168 42.12 69.5168 41.304ZM74.5264 41.304C74.5264 39.96 74.7904 38.768 75.3184 37.728C75.8624 36.688 76.5904 35.888 77.5024 35.328C78.4304 34.768 79.4624 34.488 80.5984 34.488C81.5904 34.488 82.4544 34.688 83.1904 35.088C83.9424 35.488 84.5424 35.992 84.9904 36.6V34.704H88.3744V48H84.9904V46.056C84.5584 46.68 83.9584 47.2 83.1904 47.616C82.4384 48.016 81.5664 48.216 80.5744 48.216C79.4544 48.216 78.4304 47.928 77.5024 47.352C76.5904 46.776 75.8624 45.968 75.3184 44.928C74.7904 43.872 74.5264 42.664 74.5264 41.304ZM84.9904 41.352C84.9904 40.536 84.8304 39.84 84.5104 39.264C84.1904 38.672 83.7584 38.224 83.2144 37.92C82.6704 37.6 82.0864 37.44 81.4624 37.44C80.8384 37.44 80.2624 37.592 79.7344 37.896C79.2064 38.2 78.7744 38.648 78.4384 39.24C78.1184 39.816 77.9584 40.504 77.9584 41.304C77.9584 42.104 78.1184 42.808 78.4384 43.416C78.7744 44.008 79.2064 44.464 79.7344 44.784C80.2784 45.104 80.8544 45.264 81.4624 45.264C82.0864 45.264 82.6704 45.112 83.2144 44.808C83.7584 44.488 84.1904 44.04 84.5104 43.464C84.8304 42.872 84.9904 42.168 84.9904 41.352ZM95.568 37.464V43.896C95.568 44.344 95.672 44.672 95.88 44.88C96.104 45.072 96.472 45.168 96.984 45.168H98.544V48H96.432C93.6 48 92.184 46.624 92.184 43.872V37.464H90.6V34.704H92.184V31.416H95.568V34.704H98.544V37.464H95.568ZM108.833 48L104.321 42.336V48H100.961V30.24H104.321V40.344L108.785 34.704H113.153L107.297 41.376L113.201 48H108.833ZM114.112 41.304C114.112 39.96 114.376 38.768 114.904 37.728C115.448 36.688 116.176 35.888 117.088 35.328C118.016 34.768 119.048 34.488 120.184 34.488C121.176 34.488 122.04 34.688 122.776 35.088C123.528 35.488 124.128 35.992 124.576 36.6V34.704H127.96V48H124.576V46.056C124.144 46.68 123.544 47.2 122.776 47.616C122.024 48.016 121.152 48.216 120.16 48.216C119.04 48.216 118.016 47.928 117.088 47.352C116.176 46.776 115.448 45.968 114.904 44.928C114.376 43.872 114.112 42.664 114.112 41.304ZM124.576 41.352C124.576 40.536 124.416 39.84 124.096 39.264C123.776 38.672 123.344 38.224 122.8 37.92C122.256 37.6 121.672 37.44 121.048 37.44C120.424 37.44 119.848 37.592 119.32 37.896C118.792 38.2 118.36 38.648 118.024 39.24C117.704 39.816 117.544 40.504 117.544 41.304C117.544 42.104 117.704 42.808 118.024 43.416C118.36 44.008 118.792 44.464 119.32 44.784C119.864 45.104 120.44 45.264 121.048 45.264C121.672 45.264 122.256 45.112 122.8 44.808C123.344 44.488 123.776 44.04 124.096 43.464C124.416 42.872 124.576 42.168 124.576 41.352ZM138.61 34.512C140.194 34.512 141.474 35.016 142.45 36.024C143.426 37.016 143.914 38.408 143.914 40.2V48H140.554V40.656C140.554 39.6 140.29 38.792 139.762 38.232C139.234 37.656 138.514 37.368 137.602 37.368C136.674 37.368 135.938 37.656 135.394 38.232C134.866 38.792 134.602 39.6 134.602 40.656V48H131.242V34.704H134.602V36.36C135.05 35.784 135.618 35.336 136.306 35.016C137.01 34.68 137.778 34.512 138.61 34.512ZM158.684 31.248C160.444 31.248 161.988 31.592 163.316 32.28C164.66 32.968 165.692 33.952 166.412 35.232C167.148 36.496 167.516 37.968 167.516 39.648C167.516 41.328 167.148 42.8 166.412 44.064C165.692 45.312 164.66 46.28 163.316 46.968C161.988 47.656 160.444 48 158.684 48H152.828V31.248H158.684ZM158.564 45.144C160.324 45.144 161.684 44.664 162.644 43.704C163.604 42.744 164.084 41.392 164.084 39.648C164.084 37.904 163.604 36.544 162.644 35.568C161.684 34.576 160.324 34.08 158.564 34.08H156.188V45.144H158.564ZM171.735 33.12C171.143 33.12 170.647 32.936 170.247 32.568C169.863 32.184 169.671 31.712 169.671 31.152C169.671 30.592 169.863 30.128 170.247 29.76C170.647 29.376 171.143 29.184 171.735 29.184C172.327 29.184 172.815 29.376 173.199 29.76C173.599 30.128 173.799 30.592 173.799 31.152C173.799 31.712 173.599 32.184 173.199 32.568C172.815 32.936 172.327 33.12 171.735 33.12ZM173.391 34.704V48H170.031V34.704H173.391ZM181.799 48.216C180.711 48.216 179.735 48.024 178.871 47.64C178.007 47.24 177.319 46.704 176.807 46.032C176.311 45.36 176.039 44.616 175.991 43.8H179.375C179.439 44.312 179.687 44.736 180.119 45.072C180.567 45.408 181.119 45.576 181.775 45.576C182.415 45.576 182.911 45.448 183.263 45.192C183.631 44.936 183.815 44.608 183.815 44.208C183.815 43.776 183.591 43.456 183.143 43.248C182.711 43.024 182.015 42.784 181.055 42.528C180.063 42.288 179.247 42.04 178.607 41.784C177.983 41.528 177.439 41.136 176.975 40.608C176.527 40.08 176.303 39.368 176.303 38.472C176.303 37.736 176.511 37.064 176.927 36.456C177.359 35.848 177.967 35.368 178.751 35.016C179.551 34.664 180.487 34.488 181.559 34.488C183.143 34.488 184.407 34.888 185.351 35.688C186.295 36.472 186.815 37.536 186.911 38.88H183.695C183.647 38.352 183.423 37.936 183.023 37.632C182.639 37.312 182.119 37.152 181.463 37.152C180.855 37.152 180.383 37.264 180.047 37.488C179.727 37.712 179.567 38.024 179.567 38.424C179.567 38.872 179.791 39.216 180.239 39.456C180.687 39.68 181.383 39.912 182.327 40.152C183.287 40.392 184.079 40.64 184.703 40.896C185.327 41.152 185.863 41.552 186.311 42.096C186.775 42.624 187.015 43.328 187.031 44.208C187.031 44.976 186.815 45.664 186.383 46.272C185.967 46.88 185.359 47.36 184.559 47.712C183.775 48.048 182.855 48.216 181.799 48.216ZM197.661 48L193.149 42.336V48H189.789V30.24H193.149V40.344L197.613 34.704H201.981L196.125 41.376L202.029 48H197.661ZM209.708 48.216C208.428 48.216 207.276 47.936 206.252 47.376C205.228 46.8 204.42 45.992 203.828 44.952C203.252 43.912 202.964 42.712 202.964 41.352C202.964 39.992 203.26 38.792 203.852 37.752C204.46 36.712 205.284 35.912 206.324 35.352C207.364 34.776 208.524 34.488 209.804 34.488C211.084 34.488 212.244 34.776 213.284 35.352C214.324 35.912 215.14 36.712 215.732 37.752C216.34 38.792 216.644 39.992 216.644 41.352C216.644 42.712 216.332 43.912 215.708 44.952C215.1 45.992 214.268 46.8 213.212 47.376C212.172 47.936 211.004 48.216 209.708 48.216ZM209.708 45.288C210.316 45.288 210.884 45.144 211.412 44.856C211.956 44.552 212.388 44.104 212.708 43.512C213.028 42.92 213.188 42.2 213.188 41.352C213.188 40.088 212.852 39.12 212.18 38.448C211.524 37.76 210.716 37.416 209.756 37.416C208.796 37.416 207.988 37.76 207.332 38.448C206.692 39.12 206.372 40.088 206.372 41.352C206.372 42.616 206.684 43.592 207.308 44.28C207.948 44.952 208.748 45.288 209.708 45.288ZM226.477 34.512C228.061 34.512 229.341 35.016 230.317 36.024C231.293 37.016 231.781 38.408 231.781 40.2V48H228.421V40.656C228.421 39.6 228.157 38.792 227.629 38.232C227.101 37.656 226.381 37.368 225.469 37.368C224.541 37.368 223.805 37.656 223.261 38.232C222.733 38.792 222.469 39.6 222.469 40.656V48H219.109V34.704H222.469V36.36C222.917 35.784 223.485 35.336 224.173 35.016C224.877 34.68 225.645 34.512 226.477 34.512Z" fill="white"/>
<path d="M28.672 74.112C27.936 74.112 27.2853 73.984 26.72 73.728C26.1653 73.472 25.728 73.1147 25.408 72.656C25.088 72.1973 24.9173 71.6853 24.896 71.12H26.08C26.1333 71.664 26.3733 72.144 26.8 72.56C27.2267 72.9653 27.8507 73.168 28.672 73.168C29.4293 73.168 30.0267 72.976 30.464 72.592C30.912 72.1973 31.136 71.7013 31.136 71.104C31.136 70.624 31.0133 70.24 30.768 69.952C30.5227 69.6533 30.2187 69.4347 29.856 69.296C29.4933 69.1467 28.992 68.9867 28.352 68.816C27.6053 68.6133 27.0133 68.416 26.576 68.224C26.1387 68.032 25.7653 67.7333 25.456 67.328C25.1467 66.9227 24.992 66.3733 24.992 65.68C24.992 65.104 25.1413 64.592 25.44 64.144C25.7387 63.6853 26.16 63.328 26.704 63.072C27.248 62.816 27.872 62.688 28.576 62.688C29.6107 62.688 30.4427 62.944 31.072 63.456C31.712 63.9573 32.08 64.608 32.176 65.408H30.96C30.8853 64.9493 30.6347 64.544 30.208 64.192C29.7813 63.8293 29.2053 63.648 28.48 63.648C27.808 63.648 27.248 63.8293 26.8 64.192C26.352 64.544 26.128 65.0293 26.128 65.648C26.128 66.1173 26.2507 66.496 26.496 66.784C26.7413 67.072 27.0453 67.2907 27.408 67.44C27.7813 67.5893 28.2827 67.7493 28.912 67.92C29.6373 68.1227 30.224 68.3253 30.672 68.528C31.12 68.72 31.4987 69.0187 31.808 69.424C32.1173 69.8293 32.272 70.3733 32.272 71.056C32.272 71.5787 32.1333 72.0747 31.856 72.544C31.5787 73.0133 31.168 73.392 30.624 73.68C30.08 73.968 29.4293 74.112 28.672 74.112ZM42.3403 69.184C42.3403 69.568 42.3296 69.8613 42.3083 70.064H35.0603C35.0923 70.7253 35.2523 71.2907 35.5403 71.76C35.8283 72.2293 36.2069 72.5867 36.6763 72.832C37.1456 73.0667 37.6576 73.184 38.2123 73.184C38.9376 73.184 39.5456 73.008 40.0363 72.656C40.5376 72.304 40.8683 71.8293 41.0283 71.232H42.2123C41.9989 72.0853 41.5403 72.784 40.8363 73.328C40.1429 73.8613 39.2683 74.128 38.2123 74.128C37.3909 74.128 36.6549 73.9467 36.0043 73.584C35.3536 73.2107 34.8416 72.688 34.4683 72.016C34.1056 71.3333 33.9243 70.5387 33.9243 69.632C33.9243 68.7253 34.1056 67.9307 34.4683 67.248C34.8309 66.5653 35.3376 66.0427 35.9883 65.68C36.6389 65.3173 37.3803 65.136 38.2123 65.136C39.0443 65.136 39.7696 65.3173 40.3883 65.68C41.0176 66.0427 41.4976 66.5333 41.8283 67.152C42.1696 67.76 42.3403 68.4373 42.3403 69.184ZM41.2043 69.152C41.2149 68.5013 41.0816 67.9467 40.8043 67.488C40.5376 67.0293 40.1696 66.6827 39.7003 66.448C39.2309 66.2133 38.7189 66.096 38.1643 66.096C37.3323 66.096 36.6229 66.3627 36.0363 66.896C35.4496 67.4293 35.1243 68.1813 35.0603 69.152H41.2043ZM45.4934 67.2C45.7814 66.592 46.224 66.096 46.8214 65.712C47.4294 65.328 48.144 65.136 48.9654 65.136C49.7654 65.136 50.48 65.3227 51.1094 65.696C51.7387 66.0587 52.2294 66.5813 52.5814 67.264C52.944 67.936 53.1254 68.72 53.1254 69.616C53.1254 70.512 52.944 71.3013 52.5814 71.984C52.2294 72.6667 51.7334 73.1947 51.0934 73.568C50.464 73.9413 49.7547 74.128 48.9654 74.128C48.1334 74.128 47.4134 73.9413 46.8054 73.568C46.208 73.184 45.7707 72.688 45.4934 72.08V74H44.3894V62.16H45.4934V67.2ZM51.9894 69.616C51.9894 68.8907 51.8454 68.2667 51.5574 67.744C51.28 67.2107 50.896 66.8053 50.4054 66.528C49.9147 66.2507 49.36 66.112 48.7414 66.112C48.144 66.112 47.5947 66.256 47.0934 66.544C46.6027 66.832 46.2134 67.2427 45.9254 67.776C45.6374 68.3093 45.4934 68.928 45.4934 69.632C45.4934 70.336 45.6374 70.9547 45.9254 71.488C46.2134 72.0213 46.6027 72.432 47.0934 72.72C47.5947 73.008 48.144 73.152 48.7414 73.152C49.36 73.152 49.9147 73.0133 50.4054 72.736C50.896 72.448 51.28 72.0373 51.5574 71.504C51.8454 70.96 51.9894 70.3307 51.9894 69.616ZM63.0903 69.184C63.0903 69.568 63.0796 69.8613 63.0583 70.064H55.8103C55.8423 70.7253 56.0023 71.2907 56.2903 71.76C56.5783 72.2293 56.9569 72.5867 57.4263 72.832C57.8956 73.0667 58.4076 73.184 58.9623 73.184C59.6876 73.184 60.2956 73.008 60.7863 72.656C61.2876 72.304 61.6183 71.8293 61.7783 71.232H62.9623C62.7489 72.0853 62.2903 72.784 61.5863 73.328C60.8929 73.8613 60.0183 74.128 58.9623 74.128C58.1409 74.128 57.4049 73.9467 56.7543 73.584C56.1036 73.2107 55.5916 72.688 55.2183 72.016C54.8556 71.3333 54.6743 70.5387 54.6743 69.632C54.6743 68.7253 54.8556 67.9307 55.2183 67.248C55.5809 66.5653 56.0876 66.0427 56.7383 65.68C57.3889 65.3173 58.1303 65.136 58.9623 65.136C59.7943 65.136 60.5196 65.3173 61.1383 65.68C61.7676 66.0427 62.2476 66.5333 62.5783 67.152C62.9196 67.76 63.0903 68.4373 63.0903 69.184ZM61.9543 69.152C61.9649 68.5013 61.8316 67.9467 61.5543 67.488C61.2876 67.0293 60.9196 66.6827 60.4503 66.448C59.9809 66.2133 59.4689 66.096 58.9143 66.096C58.0823 66.096 57.3729 66.3627 56.7863 66.896C56.1996 67.4293 55.8743 68.1813 55.8103 69.152H61.9543ZM68.1474 74.128C67.1447 74.128 66.3234 73.8987 65.6834 73.44C65.054 72.9707 64.702 72.336 64.6274 71.536H65.7794C65.8327 72.0267 66.062 72.4267 66.4674 72.736C66.8834 73.0347 67.438 73.184 68.1314 73.184C68.7394 73.184 69.214 73.04 69.5554 72.752C69.9074 72.464 70.0834 72.1067 70.0834 71.68C70.0834 71.3813 69.9874 71.136 69.7954 70.944C69.6034 70.752 69.358 70.6027 69.0594 70.496C68.7714 70.3787 68.3767 70.256 67.8754 70.128C67.2247 69.9573 66.6967 69.7867 66.2914 69.616C65.886 69.4453 65.5394 69.1947 65.2514 68.864C64.974 68.5227 64.8354 68.0693 64.8354 67.504C64.8354 67.0773 64.9634 66.6827 65.2194 66.32C65.4754 65.9573 65.838 65.6693 66.3074 65.456C66.7767 65.2427 67.31 65.136 67.9074 65.136C68.846 65.136 69.6034 65.376 70.1794 65.856C70.7554 66.3253 71.0647 66.976 71.1074 67.808H69.9874C69.9554 67.296 69.7527 66.8853 69.3794 66.576C69.0167 66.256 68.5154 66.096 67.8754 66.096C67.31 66.096 66.8514 66.2293 66.4994 66.496C66.1474 66.7627 65.9714 67.0933 65.9714 67.488C65.9714 67.8293 66.0727 68.112 66.2754 68.336C66.4887 68.5493 66.75 68.72 67.0594 68.848C67.3687 68.9653 67.7847 69.0987 68.3074 69.248C68.9367 69.4187 69.438 69.584 69.8114 69.744C70.1847 69.904 70.5047 70.1387 70.7714 70.448C71.038 70.7573 71.1767 71.168 71.1874 71.68C71.1874 72.1493 71.0594 72.5707 70.8034 72.944C70.5474 73.3067 70.19 73.5947 69.7314 73.808C69.2727 74.0213 68.7447 74.128 68.1474 74.128ZM72.7836 69.616C72.7836 68.72 72.9596 67.936 73.3116 67.264C73.6743 66.5813 74.1703 66.0587 74.7996 65.696C75.4396 65.3227 76.1596 65.136 76.9596 65.136C77.7916 65.136 78.5063 65.328 79.1036 65.712C79.7116 66.096 80.149 66.5867 80.4156 67.184V65.264H81.5356V74H80.4156V72.064C80.1383 72.6613 79.6956 73.1573 79.0876 73.552C78.4903 73.936 77.7756 74.128 76.9436 74.128C76.1543 74.128 75.4396 73.9413 74.7996 73.568C74.1703 73.1947 73.6743 72.6667 73.3116 71.984C72.9596 71.3013 72.7836 70.512 72.7836 69.616ZM80.4156 69.632C80.4156 68.928 80.2716 68.3093 79.9836 67.776C79.6956 67.2427 79.301 66.832 78.7996 66.544C78.309 66.256 77.765 66.112 77.1676 66.112C76.549 66.112 75.9943 66.2507 75.5036 66.528C75.013 66.8053 74.6236 67.2107 74.3356 67.744C74.0583 68.2667 73.9196 68.8907 73.9196 69.616C73.9196 70.3307 74.0583 70.96 74.3356 71.504C74.6236 72.0373 75.013 72.448 75.5036 72.736C75.9943 73.0133 76.549 73.152 77.1676 73.152C77.765 73.152 78.309 73.008 78.7996 72.72C79.301 72.432 79.6956 72.0213 79.9836 71.488C80.2716 70.9547 80.4156 70.336 80.4156 69.632ZM85.2125 66.816C85.4578 66.272 85.8312 65.8507 86.3325 65.552C86.8445 65.2533 87.4685 65.104 88.2045 65.104V66.272H87.9005C87.0898 66.272 86.4392 66.4907 85.9485 66.928C85.4578 67.3653 85.2125 68.096 85.2125 69.12V74H84.0925V65.264H85.2125V66.816ZM93.496 63.536V62.528H96.216V74H95.08V63.536H93.496ZM98.7119 68.16C98.7119 66.3253 98.9945 64.9013 99.5599 63.888C100.125 62.8747 101.139 62.368 102.6 62.368C104.061 62.368 105.075 62.8747 105.64 63.888C106.205 64.9013 106.488 66.3253 106.488 68.16C106.488 70.0267 106.205 71.472 105.64 72.496C105.075 73.52 104.061 74.032 102.6 74.032C101.128 74.032 100.109 73.52 99.5439 72.496C98.9892 71.472 98.7119 70.0267 98.7119 68.16ZM105.384 68.16C105.384 67.168 105.315 66.3307 105.176 65.648C105.037 64.9653 104.765 64.416 104.36 64C103.955 63.584 103.368 63.376 102.6 63.376C101.832 63.376 101.245 63.584 100.84 64C100.435 64.416 100.163 64.9653 100.024 65.648C99.8852 66.3307 99.8159 67.168 99.8159 68.16C99.8159 69.184 99.8852 70.0427 100.024 70.736C100.163 71.4187 100.435 71.968 100.84 72.384C101.245 72.8 101.832 73.008 102.6 73.008C103.368 73.008 103.955 72.8 104.36 72.384C104.765 71.968 105.037 71.4187 105.176 70.736C105.315 70.0427 105.384 69.184 105.384 68.16ZM114.779 74L109.931 68.832V74H108.811V62.816H109.931V68.048L114.779 62.816H116.203L110.971 68.4L116.251 74H114.779ZM123.416 62.816V74H122.296V62.816H123.416ZM129.264 62.816C130.501 62.816 131.563 63.04 132.448 63.488C133.333 63.936 134.011 64.5813 134.48 65.424C134.949 66.2667 135.184 67.2693 135.184 68.432C135.184 69.584 134.949 70.5813 134.48 71.424C134.011 72.256 133.333 72.896 132.448 73.344C131.563 73.7813 130.501 74 129.264 74H125.952V62.816H129.264ZM129.264 73.072C130.821 73.072 132.005 72.6667 132.816 71.856C133.637 71.0347 134.048 69.8933 134.048 68.432C134.048 66.96 133.637 65.8133 132.816 64.992C132.005 64.16 130.821 63.744 129.264 63.744H127.072V73.072H129.264ZM143.201 74L140.433 69.328H138.369V74H137.249V62.816H140.609C141.857 62.816 142.801 63.1147 143.441 63.712C144.091 64.3093 144.417 65.0933 144.417 66.064C144.417 66.8747 144.182 67.568 143.713 68.144C143.254 68.7093 142.571 69.0773 141.665 69.248L144.545 74H143.201ZM138.369 68.416H140.625C141.499 68.416 142.155 68.2027 142.593 67.776C143.041 67.3493 143.265 66.7787 143.265 66.064C143.265 65.328 143.051 64.7627 142.625 64.368C142.198 63.9627 141.526 63.76 140.609 63.76H138.369V68.416Z" fill="white"/>
</g>
<path d="M24.518 123.114C24.518 122.162 24.7373 121.308 25.176 120.552C25.624 119.796 26.226 119.208 26.982 118.788C27.7473 118.359 28.5827 118.144 29.488 118.144C30.524 118.144 31.4433 118.401 32.246 118.914C33.058 119.418 33.646 120.137 34.01 121.07H32.092C31.84 120.557 31.49 120.174 31.042 119.922C30.594 119.67 30.076 119.544 29.488 119.544C28.844 119.544 28.27 119.689 27.766 119.978C27.262 120.267 26.8653 120.683 26.576 121.224C26.296 121.765 26.156 122.395 26.156 123.114C26.156 123.833 26.296 124.463 26.576 125.004C26.8653 125.545 27.262 125.965 27.766 126.264C28.27 126.553 28.844 126.698 29.488 126.698C30.076 126.698 30.594 126.572 31.042 126.32C31.49 126.068 31.84 125.685 32.092 125.172H34.01C33.646 126.105 33.058 126.824 32.246 127.328C31.4433 127.832 30.524 128.084 29.488 128.084C28.5733 128.084 27.738 127.874 26.982 127.454C26.226 127.025 25.624 126.432 25.176 125.676C24.7373 124.92 24.518 124.066 24.518 123.114ZM42.9481 123.954C42.9481 124.243 42.9295 124.505 42.8921 124.738H36.9981C37.0448 125.354 37.2735 125.849 37.6841 126.222C38.0948 126.595 38.5988 126.782 39.1961 126.782C40.0548 126.782 40.6615 126.423 41.0161 125.704H42.7381C42.5048 126.413 42.0801 126.997 41.4641 127.454C40.8575 127.902 40.1015 128.126 39.1961 128.126C38.4588 128.126 37.7961 127.963 37.2081 127.636C36.6295 127.3 36.1721 126.833 35.8361 126.236C35.5095 125.629 35.3461 124.929 35.3461 124.136C35.3461 123.343 35.5048 122.647 35.8221 122.05C36.1488 121.443 36.6015 120.977 37.1801 120.65C37.7681 120.323 38.4401 120.16 39.1961 120.16C39.9241 120.16 40.5728 120.319 41.1421 120.636C41.7115 120.953 42.1548 121.401 42.4721 121.98C42.7895 122.549 42.9481 123.207 42.9481 123.954ZM41.2821 123.45C41.2728 122.862 41.0628 122.391 40.6521 122.036C40.2415 121.681 39.7328 121.504 39.1261 121.504C38.5755 121.504 38.1041 121.681 37.7121 122.036C37.3201 122.381 37.0868 122.853 37.0121 123.45H41.2821ZM47.5708 124.15L51.1268 128H48.9708L46.1148 124.682V128H44.5188V117.64H46.1148V123.66L48.9148 120.286H51.1268L47.5708 124.15ZM59.1134 128.098C58.4601 128.098 57.8721 127.986 57.3494 127.762C56.8268 127.529 56.4161 127.202 56.1174 126.782C55.8188 126.362 55.6694 125.872 55.6694 125.312H57.3774C57.4148 125.732 57.5781 126.077 57.8674 126.348C58.1661 126.619 58.5814 126.754 59.1134 126.754C59.6641 126.754 60.0934 126.623 60.4014 126.362C60.7094 126.091 60.8634 125.746 60.8634 125.326C60.8634 124.999 60.7654 124.733 60.5694 124.528C60.3828 124.323 60.1448 124.164 59.8554 124.052C59.5754 123.94 59.1834 123.819 58.6794 123.688C58.0448 123.52 57.5268 123.352 57.1254 123.184C56.7334 123.007 56.3974 122.736 56.1174 122.372C55.8374 122.008 55.6974 121.523 55.6974 120.916C55.6974 120.356 55.8374 119.866 56.1174 119.446C56.3974 119.026 56.7894 118.704 57.2934 118.48C57.7974 118.256 58.3808 118.144 59.0434 118.144C59.9861 118.144 60.7561 118.382 61.3534 118.858C61.9601 119.325 62.2961 119.969 62.3614 120.79H60.5974C60.5694 120.435 60.4014 120.132 60.0934 119.88C59.7854 119.628 59.3794 119.502 58.8754 119.502C58.4181 119.502 58.0448 119.619 57.7554 119.852C57.4661 120.085 57.3214 120.421 57.3214 120.86C57.3214 121.159 57.4101 121.406 57.5874 121.602C57.7741 121.789 58.0074 121.938 58.2874 122.05C58.5674 122.162 58.9501 122.283 59.4354 122.414C60.0794 122.591 60.6021 122.769 61.0034 122.946C61.4141 123.123 61.7594 123.399 62.0394 123.772C62.3288 124.136 62.4734 124.626 62.4734 125.242C62.4734 125.737 62.3381 126.203 62.0674 126.642C61.8061 127.081 61.4188 127.435 60.9054 127.706C60.4014 127.967 59.8041 128.098 59.1134 128.098ZM71.4266 123.954C71.4266 124.243 71.408 124.505 71.3706 124.738H65.4766C65.5233 125.354 65.752 125.849 66.1626 126.222C66.5733 126.595 67.0773 126.782 67.6746 126.782C68.5333 126.782 69.14 126.423 69.4946 125.704H71.2166C70.9833 126.413 70.5586 126.997 69.9426 127.454C69.336 127.902 68.58 128.126 67.6746 128.126C66.9373 128.126 66.2746 127.963 65.6866 127.636C65.108 127.3 64.6506 126.833 64.3146 126.236C63.988 125.629 63.8246 124.929 63.8246 124.136C63.8246 123.343 63.9833 122.647 64.3006 122.05C64.6273 121.443 65.08 120.977 65.6586 120.65C66.2466 120.323 66.9186 120.16 67.6746 120.16C68.4026 120.16 69.0513 120.319 69.6206 120.636C70.19 120.953 70.6333 121.401 70.9506 121.98C71.268 122.549 71.4266 123.207 71.4266 123.954ZM69.7606 123.45C69.7513 122.862 69.5413 122.391 69.1306 122.036C68.72 121.681 68.2113 121.504 67.6046 121.504C67.054 121.504 66.5826 121.681 66.1906 122.036C65.7986 122.381 65.5653 122.853 65.4906 123.45H69.7606ZM76.0493 124.15L79.6053 128H77.4493L74.5933 124.682V128H72.9973V117.64H74.5933V123.66L77.3933 120.286H79.6053L76.0493 124.15ZM80.2172 124.108C80.2172 123.333 80.3759 122.647 80.6932 122.05C81.0199 121.453 81.4586 120.991 82.0092 120.664C82.5692 120.328 83.1852 120.16 83.8572 120.16C84.4639 120.16 84.9912 120.281 85.4392 120.524C85.8966 120.757 86.2606 121.051 86.5312 121.406V120.286H88.1412V128H86.5312V126.852C86.2606 127.216 85.8919 127.519 85.4252 127.762C84.9586 128.005 84.4266 128.126 83.8292 128.126C83.1666 128.126 82.5599 127.958 82.0092 127.622C81.4586 127.277 81.0199 126.801 80.6932 126.194C80.3759 125.578 80.2172 124.883 80.2172 124.108ZM86.5312 124.136C86.5312 123.604 86.4192 123.142 86.1952 122.75C85.9806 122.358 85.6959 122.059 85.3412 121.854C84.9866 121.649 84.6039 121.546 84.1932 121.546C83.7826 121.546 83.3999 121.649 83.0452 121.854C82.6906 122.05 82.4012 122.344 82.1772 122.736C81.9626 123.119 81.8552 123.576 81.8552 124.108C81.8552 124.64 81.9626 125.107 82.1772 125.508C82.4012 125.909 82.6906 126.217 83.0452 126.432C83.4092 126.637 83.7919 126.74 84.1932 126.74C84.6039 126.74 84.9866 126.637 85.3412 126.432C85.6959 126.227 85.9806 125.928 86.1952 125.536C86.4192 125.135 86.5312 124.668 86.5312 124.136ZM91.8335 121.406C92.0668 121.014 92.3748 120.711 92.7575 120.496C93.1495 120.272 93.6115 120.16 94.1435 120.16V121.812H93.7375C93.1122 121.812 92.6362 121.971 92.3095 122.288C91.9922 122.605 91.8335 123.156 91.8335 123.94V128H90.2375V120.286H91.8335V121.406ZM95.0785 124.108C95.0785 123.333 95.2372 122.647 95.5545 122.05C95.8812 121.453 96.3199 120.991 96.8705 120.664C97.4305 120.328 98.0465 120.16 98.7185 120.16C99.3252 120.16 99.8525 120.281 100.301 120.524C100.758 120.757 101.122 121.051 101.393 121.406V120.286H103.003V128H101.393V126.852C101.122 127.216 100.753 127.519 100.287 127.762C99.8199 128.005 99.2879 128.126 98.6905 128.126C98.0279 128.126 97.4212 127.958 96.8705 127.622C96.3199 127.277 95.8812 126.801 95.5545 126.194C95.2372 125.578 95.0785 124.883 95.0785 124.108ZM101.393 124.136C101.393 123.604 101.281 123.142 101.057 122.75C100.842 122.358 100.557 122.059 100.203 121.854C99.8479 121.649 99.4652 121.546 99.0545 121.546C98.6439 121.546 98.2612 121.649 97.9065 121.854C97.5519 122.05 97.2625 122.344 97.0385 122.736C96.8239 123.119 96.7165 123.576 96.7165 124.108C96.7165 124.64 96.8239 125.107 97.0385 125.508C97.2625 125.909 97.5519 126.217 97.9065 126.432C98.2705 126.637 98.6532 126.74 99.0545 126.74C99.4652 126.74 99.8479 126.637 100.203 126.432C100.557 126.227 100.842 125.928 101.057 125.536C101.281 125.135 101.393 124.668 101.393 124.136ZM108.991 120.16C109.597 120.16 110.139 120.286 110.615 120.538C111.1 120.79 111.478 121.163 111.749 121.658C112.019 122.153 112.155 122.75 112.155 123.45V128H110.573V123.688C110.573 122.997 110.4 122.47 110.055 122.106C109.709 121.733 109.238 121.546 108.641 121.546C108.043 121.546 107.567 121.733 107.213 122.106C106.867 122.47 106.695 122.997 106.695 123.688V128H105.099V120.286H106.695V121.168C106.956 120.851 107.287 120.603 107.689 120.426C108.099 120.249 108.533 120.16 108.991 120.16ZM117.299 120.16C117.896 120.16 118.423 120.281 118.881 120.524C119.347 120.757 119.711 121.051 119.973 121.406V120.286H121.583V128.126C121.583 128.835 121.433 129.465 121.135 130.016C120.836 130.576 120.402 131.015 119.833 131.332C119.273 131.649 118.601 131.808 117.817 131.808C116.771 131.808 115.903 131.561 115.213 131.066C114.522 130.581 114.13 129.918 114.037 129.078H115.619C115.74 129.479 115.997 129.801 116.389 130.044C116.79 130.296 117.266 130.422 117.817 130.422C118.461 130.422 118.979 130.226 119.371 129.834C119.772 129.442 119.973 128.873 119.973 128.126V126.838C119.702 127.202 119.333 127.51 118.867 127.762C118.409 128.005 117.887 128.126 117.299 128.126C116.627 128.126 116.011 127.958 115.451 127.622C114.9 127.277 114.461 126.801 114.135 126.194C113.817 125.578 113.659 124.883 113.659 124.108C113.659 123.333 113.817 122.647 114.135 122.05C114.461 121.453 114.9 120.991 115.451 120.664C116.011 120.328 116.627 120.16 117.299 120.16ZM119.973 124.136C119.973 123.604 119.861 123.142 119.637 122.75C119.422 122.358 119.137 122.059 118.783 121.854C118.428 121.649 118.045 121.546 117.635 121.546C117.224 121.546 116.841 121.649 116.487 121.854C116.132 122.05 115.843 122.344 115.619 122.736C115.404 123.119 115.297 123.576 115.297 124.108C115.297 124.64 115.404 125.107 115.619 125.508C115.843 125.909 116.132 126.217 116.487 126.432C116.851 126.637 117.233 126.74 117.635 126.74C118.045 126.74 118.428 126.637 118.783 126.432C119.137 126.227 119.422 125.928 119.637 125.536C119.861 125.135 119.973 124.668 119.973 124.136ZM125.681 118.27L125.499 125.06H124.169L123.987 118.27H125.681ZM124.883 128.098C124.594 128.098 124.351 128 124.155 127.804C123.959 127.608 123.861 127.365 123.861 127.076C123.861 126.787 123.959 126.544 124.155 126.348C124.351 126.152 124.594 126.054 124.883 126.054C125.163 126.054 125.401 126.152 125.597 126.348C125.793 126.544 125.891 126.787 125.891 127.076C125.891 127.365 125.793 127.608 125.597 127.804C125.401 128 125.163 128.098 124.883 128.098Z" fill="white"/>
</g>
<defs>
<filter id="filter0_i_34_1632" x="202.714" y="60" width="259.406" height="113" filterUnits="userSpaceOnUse" color-interpolation-filters="sRGB">
<feFlood flood-opacity="0" result="BackgroundImageFix"/>
<feBlend mode="normal" in="SourceGraphic" in2="BackgroundImageFix" result="shape"/>
<feColorMatrix in="SourceAlpha" type="matrix" values="0 0 0 0 0 0 0 0 0 0 0 0 0 0 0 0 0 0 127 0" result="hardAlpha"/>
<feOffset dy="1"/>
<feGaussianBlur stdDeviation="2"/>
<feComposite in2="hardAlpha" operator="arithmetic" k2="-1" k3="1"/>
<feColorMatrix type="matrix" values="0 0 0 0 1 0 0 0 0 1 0 0 0 0 1 0 0 0 0.16 0"/>
<feBlend mode="normal" in2="shape" result="effect1_innerShadow_34_1632"/>
</filter>
<filter id="filter1_bi_34_1632" x="161" y="112" width="163" height="74" filterUnits="userSpaceOnUse" color-interpolation-filters="sRGB">
<feFlood flood-opacity="0" result="BackgroundImageFix"/>
<feGaussianBlur in="BackgroundImageFix" stdDeviation="2"/>
<feComposite in2="SourceAlpha" operator="in" result="effect1_backgroundBlur_34_1632"/>
<feBlend mode="normal" in="SourceGraphic" in2="effect1_backgroundBlur_34_1632" result="shape"/>
<feColorMatrix in="SourceAlpha" type="matrix" values="0 0 0 0 0 0 0 0 0 0 0 0 0 0 0 0 0 0 127 0" result="hardAlpha"/>
<feOffset dx="1" dy="1"/>
<feGaussianBlur stdDeviation="1"/>
<feComposite in2="hardAlpha" operator="arithmetic" k2="-1" k3="1"/>
<feColorMatrix type="matrix" values="0 0 0 0 1 0 0 0 0 1 0 0 0 0 1 0 0 0 0.25 0"/>
<feBlend mode="normal" in2="shape" result="effect2_innerShadow_34_1632"/>
</filter>
<filter id="filter2_i_34_1632" x="140" y="137" width="114" height="51" filterUnits="userSpaceOnUse" color-interpolation-filters="sRGB">
<feFlood flood-opacity="0" result="BackgroundImageFix"/>
<feBlend mode="normal" in="SourceGraphic" in2="BackgroundImageFix" result="shape"/>
<feColorMatrix in="SourceAlpha" type="matrix" values="0 0 0 0 0 0 0 0 0 0 0 0 0 0 0 0 0 0 127 0" result="hardAlpha"/>
<feOffset dy="2"/>
<feGaussianBlur stdDeviation="2"/>
<feComposite in2="hardAlpha" operator="arithmetic" k2="-1" k3="1"/>
<feColorMatrix type="matrix" values="0 0 0 0 1 0 0 0 0 1 0 0 0 0 1 0 0 0 0.16 0"/>
<feBlend mode="normal" in2="shape" result="effect1_innerShadow_34_1632"/>
</filter>
<filter id="filter3_d_34_1632" x="22" y="24" width="316" height="60" filterUnits="userSpaceOnUse" color-interpolation-filters="sRGB">
<feFlood flood-opacity="0" result="BackgroundImageFix"/>
<feColorMatrix in="SourceAlpha" type="matrix" values="0 0 0 0 0 0 0 0 0 0 0 0 0 0 0 0 0 0 127 0" result="hardAlpha"/>
<feOffset dy="2"/>
<feGaussianBlur stdDeviation="1"/>
<feColorMatrix type="matrix" values="0 0 0 0 0 0 0 0 0 0 0 0 0 0 0 0 0 0 0.24 0"/>
<feBlend mode="multiply" in2="BackgroundImageFix" result="effect1_dropShadow_34_1632"/>
<feBlend mode="normal" in="SourceGraphic" in2="effect1_dropShadow_34_1632" result="shape"/>
</filter>
<linearGradient id="paint0_linear_34_1632" x1="0" y1="0" x2="317.306" y2="202.982" gradientUnits="userSpaceOnUse">
<stop stop-color="#336DF5"/>
<stop offset="1" stop-color="#0049F3"/>
</linearGradient>
<linearGradient id="paint1_linear_34_1632" x1="311" y1="71" x2="351.998" y2="164.001" gradientUnits="userSpaceOnUse">
<stop stop-color="#4C7EF6"/>
<stop offset="1" stop-color="#B1C7FB" stop-opacity="0.8"/>
</linearGradient>
<linearGradient id="paint2_linear_34_1632" x1="242.5" y1="116" x2="255.002" y2="164.999" gradientUnits="userSpaceOnUse">
<stop stop-color="#FF232F"/>
<stop offset="1" stop-color="#FF2832" stop-opacity="0.58"/>
</linearGradient>
<linearGradient id="paint3_linear_34_1632" x1="182" y1="137" x2="196.906" y2="174.692" gradientUnits="userSpaceOnUse">
<stop stop-color="#4C7EF6"/>
<stop offset="1" stop-color="#B1C7FB" stop-opacity="0.8"/>
</linearGradient>
<clipPath id="clip0_34_1632">
<rect width="348" height="155" fill="white"/>
</clipPath>
<clipPath id="clip1_34_1632">
<rect width="348" height="155" rx="16" fill="white"/>
</clipPath>
</defs>
</svg>
