<svg width="348" height="155" viewBox="0 0 348 155" fill="none" xmlns="http://www.w3.org/2000/svg">
<g clip-path="url(#clip0_34_1634)">
<g clip-path="url(#clip1_34_1634)">
<rect width="348" height="155" rx="16" fill="url(#paint0_linear_34_1634)"/>
<g filter="url(#filter0_d_34_1634)">
<g filter="url(#filter1_i_34_1634)">
<path d="M368 167.5L254.245 154.927V119.603L368 154.927V167.5Z" fill="url(#paint1_linear_34_1634)"/>
</g>
<g filter="url(#filter2_i_34_1634)">
<path d="M368 113.616L254.245 154.927V119.603L368 59.1331V113.616Z" fill="url(#paint2_linear_34_1634)"/>
</g>
<g filter="url(#filter3_i_34_1634)">
<path d="M368 113.616L89 -0.738205V-154.607L368 59.133V113.616Z" fill="url(#paint3_linear_34_1634)"/>
</g>
</g>
</g>
<g filter="url(#filter4_d_34_1634)">
<path d="M37.872 36.432C37.872 37.328 37.656 38.168 37.224 38.952C36.808 39.736 36.144 40.368 35.232 40.848C34.336 41.328 33.2 41.568 31.824 41.568H29.016V48H25.656V31.248H31.824C33.12 31.248 34.224 31.472 35.136 31.92C36.048 32.368 36.728 32.984 37.176 33.768C37.64 34.552 37.872 35.44 37.872 36.432ZM31.68 38.856C32.608 38.856 33.296 38.648 33.744 38.232C34.192 37.8 34.416 37.2 34.416 36.432C34.416 34.8 33.504 33.984 31.68 33.984H29.016V38.856H31.68ZM43.6176 36.768C44.0496 36.064 44.6096 35.512 45.2976 35.112C46.0016 34.712 46.8016 34.512 47.6976 34.512V38.04H46.8096C45.7536 38.04 44.9536 38.288 44.4096 38.784C43.8816 39.28 43.6176 40.144 43.6176 41.376V48H40.2576V34.704H43.6176V36.768ZM55.8647 48.216C54.5847 48.216 53.4327 47.936 52.4087 47.376C51.3847 46.8 50.5767 45.992 49.9847 44.952C49.4087 43.912 49.1207 42.712 49.1207 41.352C49.1207 39.992 49.4167 38.792 50.0087 37.752C50.6167 36.712 51.4407 35.912 52.4807 35.352C53.5207 34.776 54.6807 34.488 55.9607 34.488C57.2407 34.488 58.4007 34.776 59.4407 35.352C60.4807 35.912 61.2967 36.712 61.8887 37.752C62.4967 38.792 62.8007 39.992 62.8007 41.352C62.8007 42.712 62.4887 43.912 61.8647 44.952C61.2567 45.992 60.4247 46.8 59.3687 47.376C58.3287 47.936 57.1607 48.216 55.8647 48.216ZM55.8647 45.288C56.4727 45.288 57.0407 45.144 57.5687 44.856C58.1127 44.552 58.5447 44.104 58.8647 43.512C59.1847 42.92 59.3447 42.2 59.3447 41.352C59.3447 40.088 59.0087 39.12 58.3367 38.448C57.6807 37.76 56.8727 37.416 55.9127 37.416C54.9527 37.416 54.1447 37.76 53.4887 38.448C52.8487 39.12 52.5287 40.088 52.5287 41.352C52.5287 42.616 52.8407 43.592 53.4647 44.28C54.1047 44.952 54.9047 45.288 55.8647 45.288ZM81.7774 34.512C83.4094 34.512 84.7214 35.016 85.7134 36.024C86.7214 37.016 87.2254 38.408 87.2254 40.2V48H83.8654V40.656C83.8654 39.616 83.6014 38.824 83.0734 38.28C82.5454 37.72 81.8254 37.44 80.9134 37.44C80.0014 37.44 79.2734 37.72 78.7294 38.28C78.2014 38.824 77.9374 39.616 77.9374 40.656V48H74.5774V40.656C74.5774 39.616 74.3134 38.824 73.7854 38.28C73.2574 37.72 72.5374 37.44 71.6254 37.44C70.6974 37.44 69.9614 37.72 69.4174 38.28C68.8894 38.824 68.6254 39.616 68.6254 40.656V48H65.2654V34.704H68.6254V36.312C69.0574 35.752 69.6094 35.312 70.2814 34.992C70.9694 34.672 71.7214 34.512 72.5374 34.512C73.5774 34.512 74.5054 34.736 75.3214 35.184C76.1374 35.616 76.7694 36.24 77.2174 37.056C77.6494 36.288 78.2734 35.672 79.0894 35.208C79.9214 34.744 80.8174 34.512 81.7774 34.512ZM96.3178 48.216C95.0378 48.216 93.8858 47.936 92.8618 47.376C91.8378 46.8 91.0298 45.992 90.4378 44.952C89.8618 43.912 89.5738 42.712 89.5738 41.352C89.5738 39.992 89.8698 38.792 90.4618 37.752C91.0698 36.712 91.8938 35.912 92.9338 35.352C93.9738 34.776 95.1338 34.488 96.4138 34.488C97.6938 34.488 98.8538 34.776 99.8938 35.352C100.934 35.912 101.75 36.712 102.342 37.752C102.95 38.792 103.254 39.992 103.254 41.352C103.254 42.712 102.942 43.912 102.318 44.952C101.71 45.992 100.878 46.8 99.8218 47.376C98.7818 47.936 97.6138 48.216 96.3178 48.216ZM96.3178 45.288C96.9258 45.288 97.4938 45.144 98.0218 44.856C98.5658 44.552 98.9978 44.104 99.3178 43.512C99.6378 42.92 99.7978 42.2 99.7978 41.352C99.7978 40.088 99.4618 39.12 98.7898 38.448C98.1338 37.76 97.3258 37.416 96.3658 37.416C95.4058 37.416 94.5978 37.76 93.9418 38.448C93.3018 39.12 92.9818 40.088 92.9818 41.352C92.9818 42.616 93.2938 43.592 93.9178 44.28C94.5578 44.952 95.3578 45.288 96.3178 45.288ZM117.293 31.248C119.053 31.248 120.597 31.592 121.925 32.28C123.269 32.968 124.301 33.952 125.021 35.232C125.757 36.496 126.125 37.968 126.125 39.648C126.125 41.328 125.757 42.8 125.021 44.064C124.301 45.312 123.269 46.28 121.925 46.968C120.597 47.656 119.053 48 117.293 48H111.437V31.248H117.293ZM117.173 45.144C118.933 45.144 120.293 44.664 121.253 43.704C122.213 42.744 122.693 41.392 122.693 39.648C122.693 37.904 122.213 36.544 121.253 35.568C120.293 34.576 118.933 34.08 117.173 34.08H114.797V45.144H117.173ZM141 41.064C141 41.544 140.968 41.976 140.904 42.36H131.184C131.264 43.32 131.6 44.072 132.192 44.616C132.784 45.16 133.512 45.432 134.376 45.432C135.624 45.432 136.512 44.896 137.04 43.824H140.664C140.28 45.104 139.544 46.16 138.456 46.992C137.368 47.808 136.032 48.216 134.448 48.216C133.168 48.216 132.016 47.936 130.992 47.376C129.984 46.8 129.192 45.992 128.616 44.952C128.056 43.912 127.776 42.712 127.776 41.352C127.776 39.976 128.056 38.768 128.616 37.728C129.176 36.688 129.96 35.888 130.968 35.328C131.976 34.768 133.136 34.488 134.448 34.488C135.712 34.488 136.84 34.76 137.832 35.304C138.84 35.848 139.616 36.624 140.16 37.632C140.72 38.624 141 39.768 141 41.064ZM137.52 40.104C137.504 39.24 137.192 38.552 136.584 38.04C135.976 37.512 135.232 37.248 134.352 37.248C133.52 37.248 132.816 37.504 132.24 38.016C131.68 38.512 131.336 39.208 131.208 40.104H137.52ZM148.541 48.216C147.453 48.216 146.477 48.024 145.613 47.64C144.749 47.24 144.061 46.704 143.549 46.032C143.053 45.36 142.781 44.616 142.733 43.8H146.117C146.181 44.312 146.429 44.736 146.861 45.072C147.309 45.408 147.861 45.576 148.517 45.576C149.157 45.576 149.653 45.448 150.005 45.192C150.373 44.936 150.557 44.608 150.557 44.208C150.557 43.776 150.333 43.456 149.885 43.248C149.453 43.024 148.757 42.784 147.797 42.528C146.805 42.288 145.989 42.04 145.349 41.784C144.725 41.528 144.181 41.136 143.717 40.608C143.269 40.08 143.045 39.368 143.045 38.472C143.045 37.736 143.253 37.064 143.669 36.456C144.101 35.848 144.709 35.368 145.493 35.016C146.293 34.664 147.229 34.488 148.301 34.488C149.885 34.488 151.149 34.888 152.093 35.688C153.037 36.472 153.557 37.536 153.653 38.88H150.437C150.389 38.352 150.165 37.936 149.765 37.632C149.381 37.312 148.861 37.152 148.205 37.152C147.597 37.152 147.125 37.264 146.789 37.488C146.469 37.712 146.309 38.024 146.309 38.424C146.309 38.872 146.533 39.216 146.981 39.456C147.429 39.68 148.125 39.912 149.069 40.152C150.029 40.392 150.821 40.64 151.445 40.896C152.069 41.152 152.605 41.552 153.053 42.096C153.517 42.624 153.757 43.328 153.773 44.208C153.773 44.976 153.557 45.664 153.125 46.272C152.709 46.88 152.101 47.36 151.301 47.712C150.517 48.048 149.597 48.216 148.541 48.216ZM168.891 41.064C168.891 41.544 168.859 41.976 168.795 42.36H159.075C159.155 43.32 159.491 44.072 160.083 44.616C160.675 45.16 161.403 45.432 162.267 45.432C163.515 45.432 164.403 44.896 164.931 43.824H168.555C168.171 45.104 167.435 46.16 166.347 46.992C165.259 47.808 163.923 48.216 162.339 48.216C161.059 48.216 159.907 47.936 158.883 47.376C157.875 46.8 157.083 45.992 156.507 44.952C155.947 43.912 155.667 42.712 155.667 41.352C155.667 39.976 155.947 38.768 156.507 37.728C157.067 36.688 157.851 35.888 158.859 35.328C159.867 34.768 161.027 34.488 162.339 34.488C163.603 34.488 164.731 34.76 165.723 35.304C166.731 35.848 167.507 36.624 168.051 37.632C168.611 38.624 168.891 39.768 168.891 41.064ZM165.411 40.104C165.395 39.24 165.083 38.552 164.475 38.04C163.867 37.512 163.123 37.248 162.243 37.248C161.411 37.248 160.707 37.504 160.131 38.016C159.571 38.512 159.227 39.208 159.099 40.104H165.411ZM187.856 34.512C189.488 34.512 190.8 35.016 191.792 36.024C192.8 37.016 193.304 38.408 193.304 40.2V48H189.944V40.656C189.944 39.616 189.68 38.824 189.152 38.28C188.624 37.72 187.904 37.44 186.992 37.44C186.08 37.44 185.352 37.72 184.808 38.28C184.28 38.824 184.016 39.616 184.016 40.656V48H180.656V40.656C180.656 39.616 180.392 38.824 179.864 38.28C179.336 37.72 178.616 37.44 177.704 37.44C176.776 37.44 176.04 37.72 175.496 38.28C174.968 38.824 174.704 39.616 174.704 40.656V48H171.344V34.704H174.704V36.312C175.136 35.752 175.688 35.312 176.36 34.992C177.048 34.672 177.8 34.512 178.616 34.512C179.656 34.512 180.584 34.736 181.4 35.184C182.216 35.616 182.848 36.24 183.296 37.056C183.728 36.288 184.352 35.672 185.168 35.208C186 34.744 186.896 34.512 187.856 34.512ZM199.852 36.648C200.284 36.008 200.876 35.488 201.628 35.088C202.396 34.688 203.268 34.488 204.244 34.488C205.38 34.488 206.404 34.768 207.316 35.328C208.244 35.888 208.972 36.688 209.5 37.728C210.044 38.752 210.316 39.944 210.316 41.304C210.316 42.664 210.044 43.872 209.5 44.928C208.972 45.968 208.244 46.776 207.316 47.352C206.404 47.928 205.38 48.216 204.244 48.216C203.252 48.216 202.38 48.024 201.628 47.64C200.892 47.24 200.3 46.728 199.852 46.104V48H196.492V30.24H199.852V36.648ZM206.884 41.304C206.884 40.504 206.716 39.816 206.38 39.24C206.06 38.648 205.628 38.2 205.084 37.896C204.556 37.592 203.98 37.44 203.356 37.44C202.748 37.44 202.172 37.6 201.628 37.92C201.1 38.224 200.668 38.672 200.332 39.264C200.012 39.856 199.852 40.552 199.852 41.352C199.852 42.152 200.012 42.848 200.332 43.44C200.668 44.032 201.1 44.488 201.628 44.808C202.172 45.112 202.748 45.264 203.356 45.264C203.98 45.264 204.556 45.104 205.084 44.784C205.628 44.464 206.06 44.008 206.38 43.416C206.716 42.824 206.884 42.12 206.884 41.304ZM225.118 41.064C225.118 41.544 225.086 41.976 225.022 42.36H215.302C215.382 43.32 215.718 44.072 216.31 44.616C216.902 45.16 217.63 45.432 218.494 45.432C219.742 45.432 220.63 44.896 221.158 43.824H224.782C224.398 45.104 223.662 46.16 222.574 46.992C221.486 47.808 220.15 48.216 218.566 48.216C217.286 48.216 216.134 47.936 215.11 47.376C214.102 46.8 213.31 45.992 212.734 44.952C212.174 43.912 211.894 42.712 211.894 41.352C211.894 39.976 212.174 38.768 212.734 37.728C213.294 36.688 214.078 35.888 215.086 35.328C216.094 34.768 217.254 34.488 218.566 34.488C219.83 34.488 220.958 34.76 221.95 35.304C222.958 35.848 223.734 36.624 224.278 37.632C224.838 38.624 225.118 39.768 225.118 41.064ZM221.638 40.104C221.622 39.24 221.31 38.552 220.702 38.04C220.094 37.512 219.35 37.248 218.47 37.248C217.638 37.248 216.934 37.504 216.358 38.016C215.798 38.512 215.454 39.208 215.326 40.104H221.638ZM230.93 36.768C231.362 36.064 231.922 35.512 232.61 35.112C233.314 34.712 234.114 34.512 235.01 34.512V38.04H234.122C233.066 38.04 232.266 38.288 231.722 38.784C231.194 39.28 230.93 40.144 230.93 41.376V48H227.57V34.704H230.93V36.768Z" fill="white"/>
<path d="M34.08 66.08C33.76 65.344 33.2693 64.768 32.608 64.352C31.9573 63.9253 31.1893 63.712 30.304 63.712C29.472 63.712 28.7253 63.904 28.064 64.288C27.4027 64.672 26.88 65.2213 26.496 65.936C26.112 66.64 25.92 67.4613 25.92 68.4C25.92 69.3387 26.112 70.1653 26.496 70.88C26.88 71.5947 27.4027 72.144 28.064 72.528C28.7253 72.912 29.472 73.104 30.304 73.104C31.0827 73.104 31.7813 72.9387 32.4 72.608C33.0293 72.2667 33.5307 71.7867 33.904 71.168C34.288 70.5387 34.5067 69.808 34.56 68.976H29.856V68.064H35.744V68.88C35.6907 69.8613 35.424 70.752 34.944 71.552C34.464 72.3413 33.8187 72.9653 33.008 73.424C32.208 73.8827 31.3067 74.112 30.304 74.112C29.2693 74.112 28.3307 73.872 27.488 73.392C26.6453 72.9013 25.9787 72.224 25.488 71.36C25.008 70.4853 24.768 69.4987 24.768 68.4C24.768 67.3013 25.008 66.32 25.488 65.456C25.9787 64.5813 26.6453 63.904 27.488 63.424C28.3307 62.9333 29.2693 62.688 30.304 62.688C31.4987 62.688 32.544 62.9867 33.44 63.584C34.336 64.1813 34.9867 65.0133 35.392 66.08H34.08ZM38.9156 66.816C39.161 66.272 39.5343 65.8507 40.0356 65.552C40.5476 65.2533 41.1716 65.104 41.9076 65.104V66.272H41.6036C40.793 66.272 40.1423 66.4907 39.6516 66.928C39.161 67.3653 38.9156 68.096 38.9156 69.12V74H37.7956V65.264H38.9156V66.816ZM43.0805 69.616C43.0805 68.72 43.2565 67.936 43.6085 67.264C43.9712 66.5813 44.4672 66.0587 45.0965 65.696C45.7365 65.3227 46.4565 65.136 47.2565 65.136C48.0885 65.136 48.8032 65.328 49.4005 65.712C50.0085 66.096 50.4458 66.5867 50.7125 67.184V65.264H51.8325V74H50.7125V72.064C50.4352 72.6613 49.9925 73.1573 49.3845 73.552C48.7872 73.936 48.0725 74.128 47.2405 74.128C46.4512 74.128 45.7365 73.9413 45.0965 73.568C44.4672 73.1947 43.9712 72.6667 43.6085 71.984C43.2565 71.3013 43.0805 70.512 43.0805 69.616ZM50.7125 69.632C50.7125 68.928 50.5685 68.3093 50.2805 67.776C49.9925 67.2427 49.5978 66.832 49.0965 66.544C48.6058 66.256 48.0618 66.112 47.4645 66.112C46.8458 66.112 46.2912 66.2507 45.8005 66.528C45.3098 66.8053 44.9205 67.2107 44.6325 67.744C44.3552 68.2667 44.2165 68.8907 44.2165 69.616C44.2165 70.3307 44.3552 70.96 44.6325 71.504C44.9205 72.0373 45.3098 72.448 45.8005 72.736C46.2912 73.0133 46.8458 73.152 47.4645 73.152C48.0618 73.152 48.6058 73.008 49.0965 72.72C49.5978 72.432 49.9925 72.0213 50.2805 71.488C50.5685 70.9547 50.7125 70.336 50.7125 69.632ZM55.8454 66.208V71.632C55.8454 72.1653 55.9467 72.5333 56.1494 72.736C56.352 72.9387 56.7094 73.04 57.2214 73.04H58.2454V74H57.0454C56.256 74 55.6694 73.8187 55.2854 73.456C54.9014 73.0827 54.7094 72.4747 54.7094 71.632V66.208H53.4934V65.264H54.7094V63.072H55.8454V65.264H58.2454V66.208H55.8454ZM60.6525 63.616C60.4285 63.616 60.2365 63.536 60.0765 63.376C59.9165 63.216 59.8365 63.0187 59.8365 62.784C59.8365 62.5493 59.9165 62.3573 60.0765 62.208C60.2365 62.048 60.4285 61.968 60.6525 61.968C60.8765 61.968 61.0685 62.048 61.2285 62.208C61.3885 62.3573 61.4685 62.5493 61.4685 62.784C61.4685 63.0187 61.3885 63.216 61.2285 63.376C61.0685 63.536 60.8765 63.616 60.6525 63.616ZM61.2125 65.264V74H60.0925V65.264H61.2125ZM66.7568 74.128C65.7541 74.128 64.9328 73.8987 64.2928 73.44C63.6634 72.9707 63.3114 72.336 63.2368 71.536H64.3888C64.4421 72.0267 64.6714 72.4267 65.0768 72.736C65.4928 73.0347 66.0474 73.184 66.7408 73.184C67.3488 73.184 67.8234 73.04 68.1648 72.752C68.5168 72.464 68.6928 72.1067 68.6928 71.68C68.6928 71.3813 68.5968 71.136 68.4048 70.944C68.2128 70.752 67.9674 70.6027 67.6688 70.496C67.3808 70.3787 66.9861 70.256 66.4848 70.128C65.8341 69.9573 65.3061 69.7867 64.9008 69.616C64.4954 69.4453 64.1488 69.1947 63.8608 68.864C63.5834 68.5227 63.4448 68.0693 63.4448 67.504C63.4448 67.0773 63.5728 66.6827 63.8288 66.32C64.0848 65.9573 64.4474 65.6693 64.9168 65.456C65.3861 65.2427 65.9194 65.136 66.5168 65.136C67.4554 65.136 68.2128 65.376 68.7888 65.856C69.3648 66.3253 69.6741 66.976 69.7168 67.808H68.5968C68.5648 67.296 68.3621 66.8853 67.9888 66.576C67.6261 66.256 67.1248 66.096 66.4848 66.096C65.9194 66.096 65.4608 66.2293 65.1088 66.496C64.7568 66.7627 64.5807 67.0933 64.5807 67.488C64.5807 67.8293 64.6821 68.112 64.8848 68.336C65.0981 68.5493 65.3594 68.72 65.6688 68.848C65.9781 68.9653 66.3941 69.0987 66.9168 69.248C67.5461 69.4187 68.0474 69.584 68.4208 69.744C68.7941 69.904 69.1141 70.1387 69.3808 70.448C69.6474 70.7573 69.7861 71.168 69.7968 71.68C69.7968 72.1493 69.6688 72.5707 69.4128 72.944C69.1568 73.3067 68.7994 73.5947 68.3408 73.808C67.8821 74.0213 67.3541 74.128 66.7568 74.128ZM75.7836 68.4C75.7836 67.3013 76.0236 66.32 76.5036 65.456C76.9836 64.5813 77.6396 63.904 78.4716 63.424C79.3036 62.9333 80.2316 62.688 81.2556 62.688C82.5036 62.688 83.5703 62.9867 84.4556 63.584C85.3516 64.1707 86.0023 65.0027 86.4076 66.08H85.0956C84.7756 65.3227 84.285 64.7307 83.6236 64.304C82.973 63.8773 82.1836 63.664 81.2556 63.664C80.4343 63.664 79.693 63.856 79.0316 64.24C78.381 64.624 77.869 65.1787 77.4956 65.904C77.1223 66.6187 76.9356 67.4507 76.9356 68.4C76.9356 69.3493 77.1223 70.1813 77.4956 70.896C77.869 71.6107 78.381 72.16 79.0316 72.544C79.693 72.928 80.4343 73.12 81.2556 73.12C82.1836 73.12 82.973 72.912 83.6236 72.496C84.285 72.0693 84.7756 71.4827 85.0956 70.736H86.4076C86.0023 71.8027 85.3516 72.6293 84.4556 73.216C83.5596 73.8027 82.493 74.096 81.2556 74.096C80.2316 74.096 79.3036 73.856 78.4716 73.376C77.6396 72.8853 76.9836 72.208 76.5036 71.344C76.0236 70.48 75.7836 69.4987 75.7836 68.4ZM96.2074 65.264V74H95.0874V72.464C94.8314 73.008 94.4367 73.424 93.9034 73.712C93.37 74 92.7727 74.144 92.1114 74.144C91.066 74.144 90.2127 73.824 89.5514 73.184C88.89 72.5333 88.5594 71.5947 88.5594 70.368V65.264H89.6634V70.24C89.6634 71.1893 89.898 71.9147 90.3674 72.416C90.8474 72.9173 91.498 73.168 92.3194 73.168C93.162 73.168 93.834 72.9013 94.3354 72.368C94.8367 71.8347 95.0874 71.0507 95.0874 70.016V65.264H96.2074ZM98.2524 69.632C98.2524 68.7253 98.4337 67.936 98.7964 67.264C99.159 66.5813 99.6604 66.0587 100.3 65.696C100.94 65.3227 101.671 65.136 102.492 65.136C103.57 65.136 104.455 65.4027 105.148 65.936C105.852 66.4693 106.306 67.1947 106.508 68.112H105.308C105.159 67.4827 104.834 66.992 104.332 66.64C103.842 66.2773 103.228 66.096 102.492 66.096C101.906 66.096 101.378 66.2293 100.908 66.496C100.439 66.7627 100.066 67.1627 99.7884 67.696C99.5217 68.2187 99.3884 68.864 99.3884 69.632C99.3884 70.4 99.5217 71.0507 99.7884 71.584C100.066 72.1173 100.439 72.5173 100.908 72.784C101.378 73.0507 101.906 73.184 102.492 73.184C103.228 73.184 103.842 73.008 104.332 72.656C104.834 72.2933 105.159 71.792 105.308 71.152H106.508C106.306 72.048 105.852 72.768 105.148 73.312C104.444 73.856 103.559 74.128 102.492 74.128C101.671 74.128 100.94 73.9467 100.3 73.584C99.6604 73.2107 99.159 72.688 98.7964 72.016C98.4337 71.3333 98.2524 70.5387 98.2524 69.632ZM109.137 63.616C108.913 63.616 108.721 63.536 108.561 63.376C108.401 63.216 108.321 63.0187 108.321 62.784C108.321 62.5493 108.401 62.3573 108.561 62.208C108.721 62.048 108.913 61.968 109.137 61.968C109.361 61.968 109.553 62.048 109.713 62.208C109.873 62.3573 109.953 62.5493 109.953 62.784C109.953 63.0187 109.873 63.216 109.713 63.376C109.553 63.536 109.361 63.616 109.137 63.616ZM109.697 65.264V74H108.577V65.264H109.697ZM121.856 68.224C122.485 68.3413 123.018 68.6613 123.456 69.184C123.893 69.7067 124.112 70.3147 124.112 71.008C124.112 71.5733 123.968 72.0853 123.68 72.544C123.402 72.992 122.992 73.3493 122.448 73.616C121.904 73.872 121.253 74 120.496 74H116.624V62.816H120.384C121.514 62.816 122.373 63.0773 122.96 63.6C123.557 64.1227 123.856 64.8 123.856 65.632C123.856 66.3253 123.669 66.8907 123.296 67.328C122.922 67.7547 122.442 68.0533 121.856 68.224ZM117.744 67.76H120.352C121.109 67.76 121.69 67.584 122.096 67.232C122.512 66.8693 122.72 66.3733 122.72 65.744C122.72 65.1253 122.512 64.64 122.096 64.288C121.69 63.936 121.093 63.76 120.304 63.76H117.744V67.76ZM120.416 73.056C121.226 73.056 121.856 72.864 122.304 72.48C122.762 72.096 122.992 71.568 122.992 70.896C122.992 70.224 122.752 69.6907 122.272 69.296C121.802 68.8907 121.168 68.688 120.368 68.688H117.744V73.056H120.416ZM126.731 63.616C126.507 63.616 126.315 63.536 126.155 63.376C125.995 63.216 125.915 63.0187 125.915 62.784C125.915 62.5493 125.995 62.3573 126.155 62.208C126.315 62.048 126.507 61.968 126.731 61.968C126.955 61.968 127.147 62.048 127.307 62.208C127.467 62.3573 127.547 62.5493 127.547 62.784C127.547 63.0187 127.467 63.216 127.307 63.376C127.147 63.536 126.955 63.616 126.731 63.616ZM127.291 65.264V74H126.171V65.264H127.291ZM129.315 69.616C129.315 68.72 129.491 67.936 129.843 67.264C130.206 66.5813 130.702 66.0587 131.331 65.696C131.971 65.3227 132.691 65.136 133.491 65.136C134.323 65.136 135.038 65.328 135.635 65.712C136.243 66.096 136.68 66.5867 136.947 67.184V65.264H138.067V74H136.947V72.064C136.67 72.6613 136.227 73.1573 135.619 73.552C135.022 73.936 134.307 74.128 133.475 74.128C132.686 74.128 131.971 73.9413 131.331 73.568C130.702 73.1947 130.206 72.6667 129.843 71.984C129.491 71.3013 129.315 70.512 129.315 69.616ZM136.947 69.632C136.947 68.928 136.803 68.3093 136.515 67.776C136.227 67.2427 135.832 66.832 135.331 66.544C134.84 66.256 134.296 66.112 133.699 66.112C133.08 66.112 132.526 66.2507 132.035 66.528C131.544 66.8053 131.155 67.2107 130.867 67.744C130.59 68.2667 130.451 68.8907 130.451 69.616C130.451 70.3307 130.59 70.96 130.867 71.504C131.155 72.0373 131.544 72.448 132.035 72.736C132.526 73.0133 133.08 73.152 133.699 73.152C134.296 73.152 134.84 73.008 135.331 72.72C135.832 72.432 136.227 72.0213 136.515 71.488C136.803 70.9547 136.947 70.336 136.947 69.632ZM143.632 74.128C142.629 74.128 141.808 73.8987 141.168 73.44C140.538 72.9707 140.186 72.336 140.112 71.536H141.264C141.317 72.0267 141.546 72.4267 141.952 72.736C142.368 73.0347 142.922 73.184 143.616 73.184C144.224 73.184 144.698 73.04 145.04 72.752C145.392 72.464 145.568 72.1067 145.568 71.68C145.568 71.3813 145.472 71.136 145.28 70.944C145.088 70.752 144.842 70.6027 144.544 70.496C144.256 70.3787 143.861 70.256 143.36 70.128C142.709 69.9573 142.181 69.7867 141.776 69.616C141.37 69.4453 141.024 69.1947 140.736 68.864C140.458 68.5227 140.32 68.0693 140.32 67.504C140.32 67.0773 140.448 66.6827 140.704 66.32C140.96 65.9573 141.322 65.6693 141.792 65.456C142.261 65.2427 142.794 65.136 143.392 65.136C144.33 65.136 145.088 65.376 145.664 65.856C146.24 66.3253 146.549 66.976 146.592 67.808H145.472C145.44 67.296 145.237 66.8853 144.864 66.576C144.501 66.256 144 66.096 143.36 66.096C142.794 66.096 142.336 66.2293 141.984 66.496C141.632 66.7627 141.456 67.0933 141.456 67.488C141.456 67.8293 141.557 68.112 141.76 68.336C141.973 68.5493 142.234 68.72 142.544 68.848C142.853 68.9653 143.269 69.0987 143.792 69.248C144.421 69.4187 144.922 69.584 145.296 69.744C145.669 69.904 145.989 70.1387 146.256 70.448C146.522 70.7573 146.661 71.168 146.672 71.68C146.672 72.1493 146.544 72.5707 146.288 72.944C146.032 73.3067 145.674 73.5947 145.216 73.808C144.757 74.0213 144.229 74.128 143.632 74.128ZM148.268 69.616C148.268 68.72 148.444 67.936 148.796 67.264C149.159 66.5813 149.655 66.0587 150.284 65.696C150.924 65.3227 151.644 65.136 152.444 65.136C153.276 65.136 153.991 65.328 154.588 65.712C155.196 66.096 155.633 66.5867 155.9 67.184V65.264H157.02V74H155.9V72.064C155.623 72.6613 155.18 73.1573 154.572 73.552C153.975 73.936 153.26 74.128 152.428 74.128C151.639 74.128 150.924 73.9413 150.284 73.568C149.655 73.1947 149.159 72.6667 148.796 71.984C148.444 71.3013 148.268 70.512 148.268 69.616ZM155.9 69.632C155.9 68.928 155.756 68.3093 155.468 67.776C155.18 67.2427 154.785 66.832 154.284 66.544C153.793 66.256 153.249 66.112 152.652 66.112C152.033 66.112 151.479 66.2507 150.988 66.528C150.497 66.8053 150.108 67.2107 149.82 67.744C149.543 68.2667 149.404 68.8907 149.404 69.616C149.404 70.3307 149.543 70.96 149.82 71.504C150.108 72.0373 150.497 72.448 150.988 72.736C151.479 73.0133 152.033 73.152 152.652 73.152C153.249 73.152 153.793 73.008 154.284 72.72C154.785 72.432 155.18 72.0213 155.468 71.488C155.756 70.9547 155.9 70.336 155.9 69.632ZM163.184 63.536V62.528H165.904V74H164.768V63.536H163.184ZM178.998 74L174.15 68.832V74H173.03V62.816H174.15V68.048L178.998 62.816H180.422L175.19 68.4L180.47 74H178.998ZM190.924 66.08C190.604 65.344 190.113 64.768 189.452 64.352C188.801 63.9253 188.033 63.712 187.148 63.712C186.316 63.712 185.569 63.904 184.908 64.288C184.246 64.672 183.724 65.2213 183.34 65.936C182.956 66.64 182.764 67.4613 182.764 68.4C182.764 69.3387 182.956 70.1653 183.34 70.88C183.724 71.5947 184.246 72.144 184.908 72.528C185.569 72.912 186.316 73.104 187.148 73.104C187.926 73.104 188.625 72.9387 189.244 72.608C189.873 72.2667 190.374 71.7867 190.748 71.168C191.132 70.5387 191.35 69.808 191.404 68.976H186.7V68.064H192.588V68.88C192.534 69.8613 192.268 70.752 191.788 71.552C191.308 72.3413 190.662 72.9653 189.852 73.424C189.052 73.8827 188.15 74.112 187.148 74.112C186.113 74.112 185.174 73.872 184.332 73.392C183.489 72.9013 182.822 72.224 182.332 71.36C181.852 70.4853 181.612 69.4987 181.612 68.4C181.612 67.3013 181.852 66.32 182.332 65.456C182.822 64.5813 183.489 63.904 184.332 63.424C185.174 62.9333 186.113 62.688 187.148 62.688C188.342 62.688 189.388 62.9867 190.284 63.584C191.18 64.1813 191.83 65.0133 192.236 66.08H190.924Z" fill="white"/>
</g>
<path d="M24.518 123.114C24.518 122.162 24.7373 121.308 25.176 120.552C25.624 119.796 26.226 119.208 26.982 118.788C27.7473 118.359 28.5827 118.144 29.488 118.144C30.524 118.144 31.4433 118.401 32.246 118.914C33.058 119.418 33.646 120.137 34.01 121.07H32.092C31.84 120.557 31.49 120.174 31.042 119.922C30.594 119.67 30.076 119.544 29.488 119.544C28.844 119.544 28.27 119.689 27.766 119.978C27.262 120.267 26.8653 120.683 26.576 121.224C26.296 121.765 26.156 122.395 26.156 123.114C26.156 123.833 26.296 124.463 26.576 125.004C26.8653 125.545 27.262 125.965 27.766 126.264C28.27 126.553 28.844 126.698 29.488 126.698C30.076 126.698 30.594 126.572 31.042 126.32C31.49 126.068 31.84 125.685 32.092 125.172H34.01C33.646 126.105 33.058 126.824 32.246 127.328C31.4433 127.832 30.524 128.084 29.488 128.084C28.5733 128.084 27.738 127.874 26.982 127.454C26.226 127.025 25.624 126.432 25.176 125.676C24.7373 124.92 24.518 124.066 24.518 123.114ZM42.9481 123.954C42.9481 124.243 42.9295 124.505 42.8921 124.738H36.9981C37.0448 125.354 37.2735 125.849 37.6841 126.222C38.0948 126.595 38.5988 126.782 39.1961 126.782C40.0548 126.782 40.6615 126.423 41.0161 125.704H42.7381C42.5048 126.413 42.0801 126.997 41.4641 127.454C40.8575 127.902 40.1015 128.126 39.1961 128.126C38.4588 128.126 37.7961 127.963 37.2081 127.636C36.6295 127.3 36.1721 126.833 35.8361 126.236C35.5095 125.629 35.3461 124.929 35.3461 124.136C35.3461 123.343 35.5048 122.647 35.8221 122.05C36.1488 121.443 36.6015 120.977 37.1801 120.65C37.7681 120.323 38.4401 120.16 39.1961 120.16C39.9241 120.16 40.5728 120.319 41.1421 120.636C41.7115 120.953 42.1548 121.401 42.4721 121.98C42.7895 122.549 42.9481 123.207 42.9481 123.954ZM41.2821 123.45C41.2728 122.862 41.0628 122.391 40.6521 122.036C40.2415 121.681 39.7328 121.504 39.1261 121.504C38.5755 121.504 38.1041 121.681 37.7121 122.036C37.3201 122.381 37.0868 122.853 37.0121 123.45H41.2821ZM47.5708 124.15L51.1268 128H48.9708L46.1148 124.682V128H44.5188V117.64H46.1148V123.66L48.9148 120.286H51.1268L47.5708 124.15ZM59.1134 128.098C58.4601 128.098 57.8721 127.986 57.3494 127.762C56.8268 127.529 56.4161 127.202 56.1174 126.782C55.8188 126.362 55.6694 125.872 55.6694 125.312H57.3774C57.4148 125.732 57.5781 126.077 57.8674 126.348C58.1661 126.619 58.5814 126.754 59.1134 126.754C59.6641 126.754 60.0934 126.623 60.4014 126.362C60.7094 126.091 60.8634 125.746 60.8634 125.326C60.8634 124.999 60.7654 124.733 60.5694 124.528C60.3828 124.323 60.1448 124.164 59.8554 124.052C59.5754 123.94 59.1834 123.819 58.6794 123.688C58.0448 123.52 57.5268 123.352 57.1254 123.184C56.7334 123.007 56.3974 122.736 56.1174 122.372C55.8374 122.008 55.6974 121.523 55.6974 120.916C55.6974 120.356 55.8374 119.866 56.1174 119.446C56.3974 119.026 56.7894 118.704 57.2934 118.48C57.7974 118.256 58.3808 118.144 59.0434 118.144C59.9861 118.144 60.7561 118.382 61.3534 118.858C61.9601 119.325 62.2961 119.969 62.3614 120.79H60.5974C60.5694 120.435 60.4014 120.132 60.0934 119.88C59.7854 119.628 59.3794 119.502 58.8754 119.502C58.4181 119.502 58.0448 119.619 57.7554 119.852C57.4661 120.085 57.3214 120.421 57.3214 120.86C57.3214 121.159 57.4101 121.406 57.5874 121.602C57.7741 121.789 58.0074 121.938 58.2874 122.05C58.5674 122.162 58.9501 122.283 59.4354 122.414C60.0794 122.591 60.6021 122.769 61.0034 122.946C61.4141 123.123 61.7594 123.399 62.0394 123.772C62.3288 124.136 62.4734 124.626 62.4734 125.242C62.4734 125.737 62.3381 126.203 62.0674 126.642C61.8061 127.081 61.4188 127.435 60.9054 127.706C60.4014 127.967 59.8041 128.098 59.1134 128.098ZM71.4266 123.954C71.4266 124.243 71.408 124.505 71.3706 124.738H65.4766C65.5233 125.354 65.752 125.849 66.1626 126.222C66.5733 126.595 67.0773 126.782 67.6746 126.782C68.5333 126.782 69.14 126.423 69.4946 125.704H71.2166C70.9833 126.413 70.5586 126.997 69.9426 127.454C69.336 127.902 68.58 128.126 67.6746 128.126C66.9373 128.126 66.2746 127.963 65.6866 127.636C65.108 127.3 64.6506 126.833 64.3146 126.236C63.988 125.629 63.8246 124.929 63.8246 124.136C63.8246 123.343 63.9833 122.647 64.3006 122.05C64.6273 121.443 65.08 120.977 65.6586 120.65C66.2466 120.323 66.9186 120.16 67.6746 120.16C68.4026 120.16 69.0513 120.319 69.6206 120.636C70.19 120.953 70.6333 121.401 70.9506 121.98C71.268 122.549 71.4266 123.207 71.4266 123.954ZM69.7606 123.45C69.7513 122.862 69.5413 122.391 69.1306 122.036C68.72 121.681 68.2113 121.504 67.6046 121.504C67.054 121.504 66.5826 121.681 66.1906 122.036C65.7986 122.381 65.5653 122.853 65.4906 123.45H69.7606ZM76.0493 124.15L79.6053 128H77.4493L74.5933 124.682V128H72.9973V117.64H74.5933V123.66L77.3933 120.286H79.6053L76.0493 124.15ZM80.2172 124.108C80.2172 123.333 80.3759 122.647 80.6932 122.05C81.0199 121.453 81.4586 120.991 82.0092 120.664C82.5692 120.328 83.1852 120.16 83.8572 120.16C84.4639 120.16 84.9912 120.281 85.4392 120.524C85.8966 120.757 86.2606 121.051 86.5312 121.406V120.286H88.1412V128H86.5312V126.852C86.2606 127.216 85.8919 127.519 85.4252 127.762C84.9586 128.005 84.4266 128.126 83.8292 128.126C83.1666 128.126 82.5599 127.958 82.0092 127.622C81.4586 127.277 81.0199 126.801 80.6932 126.194C80.3759 125.578 80.2172 124.883 80.2172 124.108ZM86.5312 124.136C86.5312 123.604 86.4192 123.142 86.1952 122.75C85.9806 122.358 85.6959 122.059 85.3412 121.854C84.9866 121.649 84.6039 121.546 84.1932 121.546C83.7826 121.546 83.3999 121.649 83.0452 121.854C82.6906 122.05 82.4012 122.344 82.1772 122.736C81.9626 123.119 81.8552 123.576 81.8552 124.108C81.8552 124.64 81.9626 125.107 82.1772 125.508C82.4012 125.909 82.6906 126.217 83.0452 126.432C83.4092 126.637 83.7919 126.74 84.1932 126.74C84.6039 126.74 84.9866 126.637 85.3412 126.432C85.6959 126.227 85.9806 125.928 86.1952 125.536C86.4192 125.135 86.5312 124.668 86.5312 124.136ZM91.8335 121.406C92.0668 121.014 92.3748 120.711 92.7575 120.496C93.1495 120.272 93.6115 120.16 94.1435 120.16V121.812H93.7375C93.1122 121.812 92.6362 121.971 92.3095 122.288C91.9922 122.605 91.8335 123.156 91.8335 123.94V128H90.2375V120.286H91.8335V121.406ZM95.0785 124.108C95.0785 123.333 95.2372 122.647 95.5545 122.05C95.8812 121.453 96.3199 120.991 96.8705 120.664C97.4305 120.328 98.0465 120.16 98.7185 120.16C99.3252 120.16 99.8525 120.281 100.301 120.524C100.758 120.757 101.122 121.051 101.393 121.406V120.286H103.003V128H101.393V126.852C101.122 127.216 100.753 127.519 100.287 127.762C99.8199 128.005 99.2879 128.126 98.6905 128.126C98.0279 128.126 97.4212 127.958 96.8705 127.622C96.3199 127.277 95.8812 126.801 95.5545 126.194C95.2372 125.578 95.0785 124.883 95.0785 124.108ZM101.393 124.136C101.393 123.604 101.281 123.142 101.057 122.75C100.842 122.358 100.557 122.059 100.203 121.854C99.8479 121.649 99.4652 121.546 99.0545 121.546C98.6439 121.546 98.2612 121.649 97.9065 121.854C97.5519 122.05 97.2625 122.344 97.0385 122.736C96.8239 123.119 96.7165 123.576 96.7165 124.108C96.7165 124.64 96.8239 125.107 97.0385 125.508C97.2625 125.909 97.5519 126.217 97.9065 126.432C98.2705 126.637 98.6532 126.74 99.0545 126.74C99.4652 126.74 99.8479 126.637 100.203 126.432C100.557 126.227 100.842 125.928 101.057 125.536C101.281 125.135 101.393 124.668 101.393 124.136ZM108.991 120.16C109.597 120.16 110.139 120.286 110.615 120.538C111.1 120.79 111.478 121.163 111.749 121.658C112.019 122.153 112.155 122.75 112.155 123.45V128H110.573V123.688C110.573 122.997 110.4 122.47 110.055 122.106C109.709 121.733 109.238 121.546 108.641 121.546C108.043 121.546 107.567 121.733 107.213 122.106C106.867 122.47 106.695 122.997 106.695 123.688V128H105.099V120.286H106.695V121.168C106.956 120.851 107.287 120.603 107.689 120.426C108.099 120.249 108.533 120.16 108.991 120.16ZM117.299 120.16C117.896 120.16 118.423 120.281 118.881 120.524C119.347 120.757 119.711 121.051 119.973 121.406V120.286H121.583V128.126C121.583 128.835 121.433 129.465 121.135 130.016C120.836 130.576 120.402 131.015 119.833 131.332C119.273 131.649 118.601 131.808 117.817 131.808C116.771 131.808 115.903 131.561 115.213 131.066C114.522 130.581 114.13 129.918 114.037 129.078H115.619C115.74 129.479 115.997 129.801 116.389 130.044C116.79 130.296 117.266 130.422 117.817 130.422C118.461 130.422 118.979 130.226 119.371 129.834C119.772 129.442 119.973 128.873 119.973 128.126V126.838C119.702 127.202 119.333 127.51 118.867 127.762C118.409 128.005 117.887 128.126 117.299 128.126C116.627 128.126 116.011 127.958 115.451 127.622C114.9 127.277 114.461 126.801 114.135 126.194C113.817 125.578 113.659 124.883 113.659 124.108C113.659 123.333 113.817 122.647 114.135 122.05C114.461 121.453 114.9 120.991 115.451 120.664C116.011 120.328 116.627 120.16 117.299 120.16ZM119.973 124.136C119.973 123.604 119.861 123.142 119.637 122.75C119.422 122.358 119.137 122.059 118.783 121.854C118.428 121.649 118.045 121.546 117.635 121.546C117.224 121.546 116.841 121.649 116.487 121.854C116.132 122.05 115.843 122.344 115.619 122.736C115.404 123.119 115.297 123.576 115.297 124.108C115.297 124.64 115.404 125.107 115.619 125.508C115.843 125.909 116.132 126.217 116.487 126.432C116.851 126.637 117.233 126.74 117.635 126.74C118.045 126.74 118.428 126.637 118.783 126.432C119.137 126.227 119.422 125.928 119.637 125.536C119.861 125.135 119.973 124.668 119.973 124.136ZM125.681 118.27L125.499 125.06H124.169L123.987 118.27H125.681ZM124.883 128.098C124.594 128.098 124.351 128 124.155 127.804C123.959 127.608 123.861 127.365 123.861 127.076C123.861 126.787 123.959 126.544 124.155 126.348C124.351 126.152 124.594 126.054 124.883 126.054C125.163 126.054 125.401 126.152 125.597 126.348C125.793 126.544 125.891 126.787 125.891 127.076C125.891 127.365 125.793 127.608 125.597 127.804C125.401 128 125.163 128.098 124.883 128.098Z" fill="white"/>
</g>
<defs>
<filter id="filter0_d_34_1634" x="73" y="-162.607" width="311" height="354.107" filterUnits="userSpaceOnUse" color-interpolation-filters="sRGB">
<feFlood flood-opacity="0" result="BackgroundImageFix"/>
<feColorMatrix in="SourceAlpha" type="matrix" values="0 0 0 0 0 0 0 0 0 0 0 0 0 0 0 0 0 0 127 0" result="hardAlpha"/>
<feOffset dy="8"/>
<feGaussianBlur stdDeviation="8"/>
<feColorMatrix type="matrix" values="0 0 0 0 0 0 0 0 0 0 0 0 0 0 0 0 0 0 0.08 0"/>
<feBlend mode="normal" in2="BackgroundImageFix" result="effect1_dropShadow_34_1634"/>
<feBlend mode="normal" in="SourceGraphic" in2="effect1_dropShadow_34_1634" result="shape"/>
</filter>
<filter id="filter1_i_34_1634" x="254.245" y="117.603" width="113.755" height="49.897" filterUnits="userSpaceOnUse" color-interpolation-filters="sRGB">
<feFlood flood-opacity="0" result="BackgroundImageFix"/>
<feBlend mode="normal" in="SourceGraphic" in2="BackgroundImageFix" result="shape"/>
<feColorMatrix in="SourceAlpha" type="matrix" values="0 0 0 0 0 0 0 0 0 0 0 0 0 0 0 0 0 0 127 0" result="hardAlpha"/>
<feOffset dy="-2"/>
<feGaussianBlur stdDeviation="1"/>
<feComposite in2="hardAlpha" operator="arithmetic" k2="-1" k3="1"/>
<feColorMatrix type="matrix" values="0 0 0 0 1 0 0 0 0 1 0 0 0 0 1 0 0 0 0.25 0"/>
<feBlend mode="overlay" in2="shape" result="effect1_innerShadow_34_1634"/>
</filter>
<filter id="filter2_i_34_1634" x="254.245" y="57.1331" width="113.755" height="97.794" filterUnits="userSpaceOnUse" color-interpolation-filters="sRGB">
<feFlood flood-opacity="0" result="BackgroundImageFix"/>
<feBlend mode="normal" in="SourceGraphic" in2="BackgroundImageFix" result="shape"/>
<feColorMatrix in="SourceAlpha" type="matrix" values="0 0 0 0 0 0 0 0 0 0 0 0 0 0 0 0 0 0 127 0" result="hardAlpha"/>
<feOffset dy="-2"/>
<feGaussianBlur stdDeviation="1"/>
<feComposite in2="hardAlpha" operator="arithmetic" k2="-1" k3="1"/>
<feColorMatrix type="matrix" values="0 0 0 0 1 0 0 0 0 1 0 0 0 0 1 0 0 0 0.25 0"/>
<feBlend mode="overlay" in2="shape" result="effect1_innerShadow_34_1634"/>
</filter>
<filter id="filter3_i_34_1634" x="89" y="-156.607" width="279" height="270.223" filterUnits="userSpaceOnUse" color-interpolation-filters="sRGB">
<feFlood flood-opacity="0" result="BackgroundImageFix"/>
<feBlend mode="normal" in="SourceGraphic" in2="BackgroundImageFix" result="shape"/>
<feColorMatrix in="SourceAlpha" type="matrix" values="0 0 0 0 0 0 0 0 0 0 0 0 0 0 0 0 0 0 127 0" result="hardAlpha"/>
<feOffset dy="-2"/>
<feGaussianBlur stdDeviation="1"/>
<feComposite in2="hardAlpha" operator="arithmetic" k2="-1" k3="1"/>
<feColorMatrix type="matrix" values="0 0 0 0 1 0 0 0 0 1 0 0 0 0 1 0 0 0 0.25 0"/>
<feBlend mode="overlay" in2="shape" result="effect1_innerShadow_34_1634"/>
</filter>
<filter id="filter4_d_34_1634" x="22" y="24" width="316" height="60" filterUnits="userSpaceOnUse" color-interpolation-filters="sRGB">
<feFlood flood-opacity="0" result="BackgroundImageFix"/>
<feColorMatrix in="SourceAlpha" type="matrix" values="0 0 0 0 0 0 0 0 0 0 0 0 0 0 0 0 0 0 127 0" result="hardAlpha"/>
<feOffset dy="2"/>
<feGaussianBlur stdDeviation="1"/>
<feColorMatrix type="matrix" values="0 0 0 0 0 0 0 0 0 0 0 0 0 0 0 0 0 0 0.24 0"/>
<feBlend mode="multiply" in2="BackgroundImageFix" result="effect1_dropShadow_34_1634"/>
<feBlend mode="normal" in="SourceGraphic" in2="effect1_dropShadow_34_1634" result="shape"/>
</filter>
<linearGradient id="paint0_linear_34_1634" x1="0" y1="0" x2="317.306" y2="202.982" gradientUnits="userSpaceOnUse">
<stop stop-color="#1E7296"/>
<stop offset="1" stop-color="#02606E"/>
</linearGradient>
<linearGradient id="paint1_linear_34_1634" x1="325.037" y1="159.802" x2="326" y2="130" gradientUnits="userSpaceOnUse">
<stop stop-color="#00DD69"/>
<stop offset="1" stop-color="#046171"/>
</linearGradient>
<linearGradient id="paint2_linear_34_1634" x1="320.702" y1="130.979" x2="307.043" y2="88.2655" gradientUnits="userSpaceOnUse">
<stop stop-color="#00DD69"/>
<stop offset="1" stop-color="#0E687F"/>
</linearGradient>
<linearGradient id="paint3_linear_34_1634" x1="262.627" y1="70.5086" x2="293.76" y2="-6.12662" gradientUnits="userSpaceOnUse">
<stop stop-color="#00DD69"/>
<stop offset="1" stop-color="#01606A"/>
</linearGradient>
<clipPath id="clip0_34_1634">
<rect width="348" height="155" fill="white"/>
</clipPath>
<clipPath id="clip1_34_1634">
<rect width="348" height="155" rx="16" fill="white"/>
</clipPath>
</defs>
</svg>
