<svg width="46" height="46" viewBox="0 0 46 46" fill="none" xmlns="http://www.w3.org/2000/svg">
<circle cx="23" cy="23" r="23" fill="#CED8FF"/>
<path d="M29.9766 22.5883V27.255C29.9766 27.5583 29.9649 27.85 29.9299 28.13C29.6616 31.28 27.8066 32.8433 24.3883 32.8433H23.9216C23.6299 32.8433 23.3499 32.9833 23.1749 33.2167L21.7749 35.0833C21.1566 35.9117 20.1533 35.9117 19.5349 35.0833L18.1349 33.2167C18.0415 33.1079 17.9274 33.0189 17.7992 32.9548C17.671 32.8907 17.5313 32.8528 17.3883 32.8433H16.9216C13.1999 32.8433 11.3333 31.9217 11.3333 27.255V22.5883C11.3333 19.17 12.9083 17.315 16.0466 17.0467C16.3266 17.0117 16.6183 17 16.9216 17H24.3883C28.1099 17 29.9766 18.8667 29.9766 22.5883Z" stroke="#3E54AC" stroke-width="1.5" stroke-miterlimit="10" stroke-linecap="round" stroke-linejoin="round"/>
<path d="M34.6433 17.9217V22.5883C34.6433 26.0183 33.0683 27.8617 29.93 28.13C29.965 27.85 29.9766 27.5583 29.9766 27.255V22.5883C29.9766 18.8667 28.11 17 24.3883 17H16.9216C16.6183 17 16.3266 17.0117 16.0466 17.0467C16.315 13.9083 18.17 12.3333 21.5883 12.3333H29.055C32.7766 12.3333 34.6433 14.2 34.6433 17.9217Z" stroke="#3E54AC" stroke-width="1.5" stroke-miterlimit="10" stroke-linecap="round" stroke-linejoin="round"/>
<path d="M24.7441 25.4583H24.7557M20.6607 25.4583H20.6724M16.5774 25.4583H16.5891" stroke="#3E54AC" stroke-width="2" stroke-linecap="round" stroke-linejoin="round"/>
</svg>
