<svg width="30" height="30" viewBox="0 0 30 30" fill="none" xmlns="http://www.w3.org/2000/svg">
<path d="M29.6666 15C29.6666 6.89983 23.1002 0.333344 15 0.333344C6.8998 0.333344 0.333313 6.89983 0.333313 15C0.333313 22.3206 5.69669 28.3882 12.7083 29.4885V19.2396H8.98436V15H12.7083V11.7688C12.7083 8.09292 14.8979 6.06252 18.2481 6.06252C19.8528 6.06252 21.5312 6.34897 21.5312 6.34897V9.95835H19.6818C17.8598 9.95835 17.2917 11.0889 17.2917 12.2488V15H21.3594L20.7091 19.2396H17.2916V29.4885C24.3033 28.3882 29.6666 22.3206 29.6666 15Z" fill="#1877F2"/>
<path d="M20.7091 19.2396L21.3594 15H17.2917V12.2488C17.2917 11.0889 17.8599 9.95833 19.6818 9.95833H21.5313V6.34895C21.5313 6.34895 19.8528 6.0625 18.2481 6.0625C14.898 6.0625 12.7083 8.0929 12.7083 11.7688V15H8.98438V19.2396H12.7083V29.4885C13.4664 29.6073 14.2326 29.6669 15 29.6667C15.7796 29.6667 16.5449 29.6056 17.2917 29.4885V19.2396H20.7091Z" fill="white"/>
</svg>
