<svg width="38" height="38" viewBox="0 0 38 38" fill="none" xmlns="http://www.w3.org/2000/svg">
<circle cx="19" cy="19" r="18.5" fill="white" stroke="#FCDDEC"/>
<path d="M19 1C21.3638 1 23.7044 1.46558 25.8883 2.37017C28.0722 3.27475 30.0565 4.60062 31.7279 6.27208C33.3994 7.94353 34.7252 9.92784 35.6298 12.1117C36.5344 14.2956 37 16.6362 37 19C37 21.3638 36.5344 23.7044 35.6298 25.8883C34.7252 28.0722 33.3994 30.0565 31.7279 31.7279C30.0565 33.3994 28.0722 34.7252 25.8883 35.6298C23.7044 36.5344 21.3638 37 19 37C16.6362 37 14.2956 36.5344 12.1117 35.6298C9.92783 34.7252 7.94353 33.3994 6.27207 31.7279C4.60062 30.0565 3.27475 28.0722 2.37017 25.8883C1.46558 23.7044 0.999999 21.3638 1 19C1 16.6362 1.46559 14.2955 2.37017 12.1117C3.27476 9.92783 4.60063 7.94352 6.27209 6.27207C7.94354 4.60062 9.92785 3.27475 12.1117 2.37016C14.2956 1.46558 16.6362 0.999998 19 1L19 1Z" stroke="#913175" stroke-width="2" stroke-miterlimit="6.39245" stroke-linecap="round"/>
<path d="M16.17 21.83L21.83 16.17M21.83 21.83L16.17 16.17M16 29H22C27 29 29 27 29 22V16C29 11 27 9 22 9H16C11 9 9 11 9 16V22C9 27 11 29 16 29Z" stroke="#913175" stroke-linecap="round" stroke-linejoin="round"/>
</svg>
