<svg width="38" height="38" viewBox="0 0 38 38" fill="none" xmlns="http://www.w3.org/2000/svg">
<circle cx="19" cy="19" r="18.5" fill="white" stroke="#FCDDEC"/>
<path d="M19 1C21.3638 1 23.7044 1.46558 25.8883 2.37017C28.0722 3.27475 30.0565 4.60062 31.7279 6.27208C33.3994 7.94353 34.7252 9.92784 35.6298 12.1117C36.5344 14.2956 37 16.6362 37 19C37 21.3638 36.5344 23.7044 35.6298 25.8883C34.7252 28.0722 33.3994 30.0565 31.7279 31.7279C30.0565 33.3994 28.0722 34.7252 25.8883 35.6298C23.7044 36.5344 21.3638 37 19 37C16.6362 37 14.2956 36.5344 12.1117 35.6298C9.92783 34.7252 7.94353 33.3994 6.27207 31.7279C4.60062 30.0565 3.27475 28.0722 2.37017 25.8883C1.46558 23.7044 0.999999 21.3638 1 19C1 16.6362 1.46559 14.2955 2.37017 12.1117C3.27476 9.92783 4.60063 7.94352 6.27209 6.27207C7.94354 4.60062 9.92785 3.27475 12.1117 2.37016C14.2956 1.46558 16.6362 0.999998 19 1L19 1Z" stroke="#913175" stroke-width="2" stroke-miterlimit="6.39245" stroke-linecap="round"/>
<g clip-path="url(#clip0_666_2563)">
<path d="M13.5 28.9999H24.5M16.5 20.9999H21.5M23.7 25.9799H14.3C13.88 25.9799 13.41 25.6499 13.27 25.2499L9.12995 13.6699C8.53996 12.0099 9.22996 11.4999 10.65 12.5199L14.55 15.3099C15.2 15.7599 15.94 15.5299 16.22 14.7999L17.98 10.1099C18.54 8.60986 19.47 8.60986 20.03 10.1099L21.79 14.7999C22.07 15.5299 22.81 15.7599 23.45 15.3099L27.11 12.6999C28.67 11.5799 29.42 12.1499 28.78 13.9599L24.74 25.2699C24.59 25.6499 24.12 25.9799 23.7 25.9799Z" stroke="#913175" stroke-linecap="round" stroke-linejoin="round"/>
</g>
<defs>
<clipPath id="clip0_666_2563">
<rect width="24" height="24" fill="white" transform="translate(7 7)"/>
</clipPath>
</defs>
</svg>
