<svg width="38" height="38" viewBox="0 0 38 38" fill="none" xmlns="http://www.w3.org/2000/svg">
<circle cx="19" cy="19" r="18.5" fill="white" stroke="#FCDDEC"/>
<path d="M19 1C21.7285 1 24.4213 1.62029 26.8748 2.81397C29.3283 4.00765 31.4784 5.74348 33.1624 7.89026C34.8464 10.037 36.0204 12.5386 36.5956 15.2057C37.1707 17.8729 37.132 20.6359 36.4823 23.286C35.8326 25.936 34.589 28.4036 32.8454 30.5023C31.1019 32.6011 28.904 34.276 26.418 35.4004C23.932 36.5248 21.2229 37.0694 18.4955 36.9929C15.7681 36.9165 13.0937 36.2209 10.6746 34.959" stroke="#913175" stroke-width="2" stroke-miterlimit="6.39245" stroke-linecap="round"/>
<path d="M22.24 9H15.76C12 9 11.71 12.38 13.74 14.22L24.26 23.78C26.29 25.62 26 29 22.24 29H15.76C12 29 11.71 25.62 13.74 23.78L24.26 14.22C26.29 12.38 26 9 22.24 9Z" stroke="#913175" stroke-linecap="round" stroke-linejoin="round"/>
</svg>
