<svg width="36" height="36" viewBox="0 0 36 36" fill="none" xmlns="http://www.w3.org/2000/svg">
<circle cx="18" cy="18" r="18" fill="#FFBE1C"/>
<path d="M25.7498 17.0335C26.0748 17.0335 26.3332 16.7751 26.3332 16.4501V15.6751C26.3332 12.2585 25.2915 11.2168 21.8748 11.2168H14.1248C10.7082 11.2168 9.6665 12.2585 9.6665 15.6751V16.0668C9.6665 16.3918 9.92484 16.6501 10.2498 16.6501C10.9998 16.6501 11.6082 17.2585 11.6082 18.0085C11.6082 18.7585 10.9998 19.3585 10.2498 19.3585C9.92484 19.3585 9.6665 19.6168 9.6665 19.9418V20.3335C9.6665 23.7501 10.7082 24.7918 14.1248 24.7918H21.8748C25.2915 24.7918 26.3332 23.7501 26.3332 20.3335C26.3332 20.0085 26.0748 19.7501 25.7498 19.7501C25.3896 19.7501 25.0441 19.607 24.7893 19.3523C24.5346 19.0975 24.3915 18.752 24.3915 18.3918C24.3915 18.0315 24.5346 17.686 24.7893 17.4313C25.0441 17.1766 25.3896 17.0335 25.7498 17.0335ZM15.4998 15.4001C15.9582 15.4001 16.3332 15.7751 16.3332 16.2335C16.3332 16.6918 15.9665 17.0668 15.4998 17.0668C15.0415 17.0668 14.6665 16.6918 14.6665 16.2335C14.6665 15.7751 15.0332 15.4001 15.4998 15.4001ZM20.4998 21.2335C20.0332 21.2335 19.6582 20.8585 19.6582 20.4001C19.6582 19.9418 20.0332 19.5668 20.4915 19.5668C20.9498 19.5668 21.3248 19.9418 21.3248 20.4001C21.3248 20.8585 20.9665 21.2335 20.4998 21.2335ZM21.2498 15.9001L15.6415 21.5085C15.5165 21.6335 15.3582 21.6918 15.1998 21.6918C15.0415 21.6918 14.8832 21.6335 14.7582 21.5085C14.6419 21.3908 14.5768 21.2322 14.5768 21.0668C14.5768 20.9014 14.6419 20.7427 14.7582 20.6251L20.3665 15.0168C20.6082 14.7751 21.0082 14.7751 21.2498 15.0168C21.4915 15.2585 21.4915 15.6585 21.2498 15.9001Z" fill="white"/>
</svg>
