<svg width="20" height="20" viewBox="0 0 20 20" fill="none" xmlns="http://www.w3.org/2000/svg">
<g clip-path="url(#clip0_532_7080)">
<path d="M7.22656 11.9417C7.22656 13.0167 8.05156 13.8833 9.07656 13.8833H11.1682C12.0599 13.8833 12.7849 13.125 12.7849 12.1917C12.7849 11.175 12.3432 10.8167 11.6849 10.5833L8.32656 9.41667C7.66823 9.18333 7.22656 8.825 7.22656 7.80833C7.22656 6.875 7.95156 6.11667 8.84323 6.11667H10.9349C11.9599 6.11667 12.7849 6.98333 12.7849 8.05833M9.9999 5V15" stroke="#913175" stroke-width="1.5" stroke-linecap="round" stroke-linejoin="round"/>
<path d="M9.99984 18.3333C14.6023 18.3333 18.3332 14.6025 18.3332 10C18.3332 5.3975 14.6023 1.66667 9.99984 1.66667C5.39734 1.66667 1.6665 5.3975 1.6665 10C1.6665 14.6025 5.39734 18.3333 9.99984 18.3333Z" stroke="#913175" stroke-width="1.5" stroke-linecap="round" stroke-linejoin="round"/>
</g>
<defs>
<clipPath id="clip0_532_7080">
<rect width="20" height="20" fill="white"/>
</clipPath>
</defs>
</svg>
