<svg width="13" height="13" viewBox="0 0 13 13" fill="none" xmlns="http://www.w3.org/2000/svg">
<g clip-path="url(#clip0_380_7097)">
<path d="M6.50006 7.27453C6.72199 7.27453 6.94175 7.23082 7.14679 7.14589C7.35183 7.06096 7.53814 6.93647 7.69507 6.77954C7.852 6.62261 7.97648 6.43631 8.06142 6.23127C8.14635 6.02623 8.19006 5.80647 8.19006 5.58453C8.19006 5.3626 8.14635 5.14284 8.06142 4.9378C7.97648 4.73276 7.852 4.54645 7.69507 4.38952C7.53814 4.23259 7.35183 4.10811 7.14679 4.02317C6.94175 3.93824 6.72199 3.89453 6.50006 3.89453C6.05184 3.89453 5.62198 4.07258 5.30505 4.38952C4.98811 4.70646 4.81006 5.13632 4.81006 5.58453C4.81006 6.03275 4.98811 6.46261 5.30505 6.77954C5.62198 7.09648 6.05184 7.27453 6.50006 7.27453Z" stroke="#913175"/>
<path d="M1.96084 4.59867C3.02792 -0.0921634 9.97751 -0.0867466 11.0392 4.60409C11.6621 7.35575 9.95042 9.68492 8.45001 11.1258C7.92571 11.6314 7.22571 11.914 6.4973 11.914C5.76889 11.914 5.06888 11.6314 4.54459 11.1258C3.04959 9.68492 1.33792 7.35034 1.96084 4.59867Z" stroke="#913175"/>
</g>
<defs>
<clipPath id="clip0_380_7097">
<rect width="13" height="13" fill="white"/>
</clipPath>
</defs>
</svg>
