<svg width="26" height="24" viewBox="0 0 26 24" fill="none" xmlns="http://www.w3.org/2000/svg">
<path d="M23.6206 22L21.4896 20M12.4327 21C13.762 21 15.0783 20.7543 16.3064 20.2769C17.5345 19.7994 18.6504 19.0997 19.5903 18.2175C20.5303 17.3354 21.2759 16.2881 21.7846 15.1355C22.2933 13.9829 22.5551 12.7476 22.5551 11.5C22.5551 10.2524 22.2933 9.0171 21.7846 7.86451C21.2759 6.71191 20.5303 5.66464 19.5903 4.78249C18.6504 3.90033 17.5345 3.20056 16.3064 2.72314C15.0783 2.24572 13.762 2 12.4327 2C9.74809 2 7.17341 3.00089 5.27509 4.78249C3.37677 6.56408 2.3103 8.98044 2.3103 11.5C2.3103 14.0196 3.37677 16.4359 5.27509 18.2175C7.17341 19.9991 9.74809 21 12.4327 21Z" stroke="#913175" stroke-width="1.5" stroke-linecap="round" stroke-linejoin="round"/>
</svg>
