<svg width="8" height="8" viewBox="0 0 8 8" fill="none" xmlns="http://www.w3.org/2000/svg">
<g clip-path="url(#clip0_380_7092)">
<path d="M4.57664 1.16994L5.1633 2.34328C5.2433 2.50661 5.45664 2.66328 5.63664 2.69328L6.69997 2.86994C7.37997 2.98328 7.53997 3.47661 7.04997 3.96328L6.2233 4.78994C6.0833 4.92994 6.00664 5.19994 6.04997 5.39328L6.28664 6.41661C6.4733 7.22661 6.0433 7.53994 5.32664 7.11661L4.32997 6.52661C4.14997 6.41994 3.8533 6.41994 3.66997 6.52661L2.6733 7.11661C1.95997 7.53994 1.52664 7.22328 1.7133 6.41661L1.94997 5.39328C1.9933 5.19994 1.91664 4.92994 1.77664 4.78994L0.94997 3.96328C0.463303 3.47661 0.61997 2.98328 1.29997 2.86994L2.3633 2.69328C2.53997 2.66328 2.7533 2.50661 2.8333 2.34328L3.41997 1.16994C3.73997 0.533277 4.25997 0.533277 4.57664 1.16994Z" fill="#FFBE1C"/>
</g>
<defs>
<clipPath id="clip0_380_7092">
<rect width="8" height="8" fill="white"/>
</clipPath>
</defs>
</svg>
