<svg width="46" height="46" viewBox="0 0 46 46" fill="none" xmlns="http://www.w3.org/2000/svg">
<circle cx="23" cy="23" r="23" fill="#CED8FF"/>
<path d="M25.3333 18.3333H31.1666M26.4999 23H31.1666M28.8333 27.6667H31.1666M28.8333 33.5H17.1666C12.4999 33.5 11.3333 32.3333 11.3333 27.6667V18.3333C11.3333 13.6667 12.4999 12.5 17.1666 12.5H28.8333C33.4999 12.5 34.6666 13.6667 34.6666 18.3333V27.6667C34.6666 32.3333 33.4999 33.5 28.8333 33.5Z" stroke="#3E54AC" stroke-width="1.5" stroke-linecap="round" stroke-linejoin="round"/>
<path d="M22.9999 28.0517C22.9214 27.2327 22.5588 26.4671 21.9749 25.8875C21.391 25.3079 20.6228 24.9509 19.8033 24.8783C19.2136 24.82 18.6196 24.82 18.0299 24.8783C17.2112 24.953 16.4442 25.3108 15.8607 25.8899C15.2773 26.4691 14.914 27.2335 14.8333 28.0517M18.9166 22.1717C19.4766 22.1717 20.0137 21.9492 20.4098 21.5532C20.8058 21.1572 21.0283 20.62 21.0283 20.06C21.0283 19.5 20.8058 18.9628 20.4098 18.5668C20.0137 18.1708 19.4766 17.9483 18.9166 17.9483C18.3565 17.9483 17.8194 18.1708 17.4234 18.5668C17.0274 18.9628 16.8049 19.5 16.8049 20.06C16.8049 20.62 17.0274 21.1572 17.4234 21.5532C17.8194 21.9492 18.3565 22.1717 18.9166 22.1717Z" stroke="#3E54AC" stroke-width="1.5" stroke-linecap="round" stroke-linejoin="round"/>
</svg>
