<svg width="273" height="311" viewBox="0 0 273 311" fill="none" xmlns="http://www.w3.org/2000/svg">
<path d="M258.764 0.394897H43.0133C35.8589 0.394897 30.0592 6.0314 30.0592 12.9844V177.988C30.0592 184.941 35.8589 190.578 43.0133 190.578H258.764C265.918 190.578 271.718 184.941 271.718 177.988V12.9844C271.718 6.0314 265.918 0.394897 258.764 0.394897Z" fill="white"/>
<path d="M258.764 190.973H43.0133C39.4708 190.97 36.0746 189.6 33.5697 187.166C31.0648 184.732 29.6559 181.431 29.652 177.988V12.9852C29.6559 9.54243 31.0648 6.24177 33.5697 3.80738C36.0746 1.373 39.4708 0.00372359 43.0133 0L258.764 0C262.306 0.00381887 265.702 1.37312 268.207 3.80749C270.712 6.24185 272.121 9.54246 272.125 12.9852V177.989C272.121 181.431 270.712 184.732 268.207 187.166C265.702 189.6 262.306 190.97 258.764 190.973ZM43.0133 0.790292C39.6865 0.794015 36.4971 2.08004 34.1448 4.36622C31.7925 6.65241 30.4693 9.75207 30.4656 12.9852V177.989C30.4694 181.222 31.7926 184.321 34.1449 186.607C36.4973 188.893 39.6866 190.179 43.0133 190.183H258.764C262.09 190.179 265.28 188.893 267.632 186.607C269.985 184.321 271.308 181.222 271.311 177.989V12.9852C271.308 9.75204 269.985 6.65233 267.632 4.36612C265.28 2.07991 262.091 0.79392 258.764 0.790292H43.0133Z" fill="#292A2E"/>
<path opacity="0.2" d="M252.778 34.5846H239.531C236.738 34.5846 234.475 36.7844 234.475 39.498V52.3725C234.475 55.0861 236.738 57.2859 239.531 57.2859H252.778C255.57 57.2859 257.834 55.0861 257.834 52.3725V39.498C257.834 36.7844 255.57 34.5846 252.778 34.5846Z" fill="#367CFF"/>
<path opacity="0.2" d="M253.189 63.2592H240.044C237.223 63.2592 234.937 65.4811 234.937 68.222V80.9976C234.937 83.7385 237.223 85.9605 240.044 85.9605H253.189C256.009 85.9605 258.296 83.7385 258.296 80.9976V68.222C258.296 65.4811 256.009 63.2592 253.189 63.2592Z" fill="#367CFF"/>
<path opacity="0.2" d="M253.189 95.1954H240.044C237.223 95.1954 234.937 97.4174 234.937 100.158V112.934C234.937 115.675 237.223 117.897 240.044 117.897H253.189C256.009 117.897 258.296 115.675 258.296 112.934V100.158C258.296 97.4174 256.009 95.1954 253.189 95.1954Z" fill="#367CFF"/>
<path opacity="0.2" d="M252.727 125.498H239.581C236.761 125.498 234.475 127.72 234.475 130.461V143.236C234.475 145.977 236.761 148.199 239.581 148.199H252.727C255.547 148.199 257.834 145.977 257.834 143.236V130.461C257.834 127.72 255.547 125.498 252.727 125.498Z" fill="#367CFF"/>
<g opacity="0.15">
<path d="M157.527 34.5846H144.28C141.487 34.5846 139.224 36.7844 139.224 39.498V52.3725C139.224 55.0861 141.487 57.2859 144.28 57.2859H157.527C160.319 57.2859 162.583 55.0861 162.583 52.3725V39.498C162.583 36.7844 160.319 34.5846 157.527 34.5846Z" fill="#367CFF"/>
<path d="M125.777 34.5846H112.529C109.737 34.5846 107.474 36.7844 107.474 39.498V52.3725C107.474 55.0861 109.737 57.2859 112.529 57.2859H125.777C128.569 57.2859 130.832 55.0861 130.832 52.3725V39.498C130.832 36.7844 128.569 34.5846 125.777 34.5846Z" fill="#367CFF"/>
<path d="M94.4882 34.5846H81.2409C78.4487 34.5846 76.1852 36.7844 76.1852 39.498V52.3725C76.1852 55.0861 78.4487 57.2859 81.2409 57.2859H94.4882C97.2804 57.2859 99.544 55.0861 99.544 52.3725V39.498C99.544 36.7844 97.2804 34.5846 94.4882 34.5846Z" fill="#367CFF"/>
<path d="M62.7378 34.5846H49.4905C46.6983 34.5846 44.4348 36.7844 44.4348 39.498V52.3725C44.4348 55.0861 46.6983 57.2859 49.4905 57.2859H62.7378C65.53 57.2859 67.7936 55.0861 67.7936 52.3725V39.498C67.7936 36.7844 65.53 34.5846 62.7378 34.5846Z" fill="#367CFF"/>
<path d="M189.277 34.5846H176.03C173.238 34.5846 170.974 36.7844 170.974 39.498V52.3725C170.974 55.0861 173.238 57.2859 176.03 57.2859H189.277C192.069 57.2859 194.333 55.0861 194.333 52.3725V39.498C194.333 36.7844 192.069 34.5846 189.277 34.5846Z" fill="#367CFF"/>
<path d="M221.027 34.5846H207.78C204.988 34.5846 202.724 36.7844 202.724 39.498V52.3725C202.724 55.0861 204.988 57.2859 207.78 57.2859H221.027C223.82 57.2859 226.083 55.0861 226.083 52.3725V39.498C226.083 36.7844 223.82 34.5846 221.027 34.5846Z" fill="#367CFF"/>
<path d="M157.938 63.2592H144.792C141.972 63.2592 139.686 65.4811 139.686 68.222V80.9976C139.686 83.7385 141.972 85.9605 144.792 85.9605H157.938C160.758 85.9605 163.044 83.7385 163.044 80.9976V68.222C163.044 65.4811 160.758 63.2592 157.938 63.2592Z" fill="#367CFF"/>
<path d="M189.688 63.2592H176.543C173.722 63.2592 171.436 65.4811 171.436 68.222V80.9976C171.436 83.7385 173.722 85.9605 176.543 85.9605H189.688C192.509 85.9605 194.795 83.7385 194.795 80.9976V68.222C194.795 65.4811 192.509 63.2592 189.688 63.2592Z" fill="#367CFF"/>
<path d="M221.439 63.2592H208.293C205.473 63.2592 203.186 65.4811 203.186 68.222V80.9976C203.186 83.7385 205.473 85.9605 208.293 85.9605H221.439C224.259 85.9605 226.545 83.7385 226.545 80.9976V68.222C226.545 65.4811 224.259 63.2592 221.439 63.2592Z" fill="#367CFF"/>
<path d="M62.687 63.2592H49.5413C46.7211 63.2592 44.4348 65.4811 44.4348 68.222V80.9976C44.4348 83.7385 46.7211 85.9605 49.5413 85.9605H62.687C65.5073 85.9605 67.7936 83.7385 67.7936 80.9976V68.222C67.7936 65.4811 65.5073 63.2592 62.687 63.2592Z" fill="#367CFF"/>
<path d="M94.4374 63.2592H81.2918C78.4715 63.2592 76.1852 65.4811 76.1852 68.222V80.9976C76.1852 83.7385 78.4715 85.9605 81.2918 85.9605H94.4374C97.2577 85.9605 99.544 83.7385 99.544 80.9976V68.222C99.544 65.4811 97.2577 63.2592 94.4374 63.2592Z" fill="#367CFF"/>
<path d="M126.187 63.2592H113.042C110.222 63.2592 107.935 65.4811 107.935 68.222V80.9976C107.935 83.7385 110.222 85.9605 113.042 85.9605H126.187C129.008 85.9605 131.294 83.7385 131.294 80.9976V68.222C131.294 65.4811 129.008 63.2592 126.187 63.2592Z" fill="#367CFF"/>
<path d="M157.938 95.1954H144.792C141.972 95.1954 139.686 97.4174 139.686 100.158V112.934C139.686 115.675 141.972 117.897 144.792 117.897H157.938C160.758 117.897 163.044 115.675 163.044 112.934V100.158C163.044 97.4174 160.758 95.1954 157.938 95.1954Z" fill="#367CFF"/>
<path d="M189.688 95.1954H176.543C173.722 95.1954 171.436 97.4174 171.436 100.158V112.934C171.436 115.675 173.722 117.897 176.543 117.897H189.688C192.509 117.897 194.795 115.675 194.795 112.934V100.158C194.795 97.4174 192.509 95.1954 189.688 95.1954Z" fill="#367CFF"/>
<path d="M221.439 95.1954H208.293C205.473 95.1954 203.186 97.4174 203.186 100.158V112.934C203.186 115.675 205.473 117.897 208.293 117.897H221.439C224.259 117.897 226.545 115.675 226.545 112.934V100.158C226.545 97.4174 224.259 95.1954 221.439 95.1954Z" fill="#367CFF"/>
<path d="M62.687 95.1954H49.5413C46.7211 95.1954 44.4348 97.4174 44.4348 100.158V112.934C44.4348 115.675 46.7211 117.897 49.5413 117.897H62.687C65.5073 117.897 67.7936 115.675 67.7936 112.934V100.158C67.7936 97.4174 65.5073 95.1954 62.687 95.1954Z" fill="#367CFF"/>
<path d="M94.4374 95.1954H81.2918C78.4715 95.1954 76.1852 97.4174 76.1852 100.158V112.934C76.1852 115.675 78.4715 117.897 81.2918 117.897H94.4374C97.2577 117.897 99.544 115.675 99.544 112.934V100.158C99.544 97.4174 97.2577 95.1954 94.4374 95.1954Z" fill="#367CFF"/>
<path d="M126.187 95.1954H113.042C110.222 95.1954 107.935 97.4174 107.935 100.158V112.934C107.935 115.675 110.222 117.897 113.042 117.897H126.187C129.008 117.897 131.294 115.675 131.294 112.934V100.158C131.294 97.4174 129.008 95.1954 126.187 95.1954Z" fill="#367CFF"/>
<path d="M157.938 125.947H144.792C141.972 125.947 139.686 128.168 139.686 130.909V143.685C139.686 146.426 141.972 148.648 144.792 148.648H157.938C160.758 148.648 163.044 146.426 163.044 143.685V130.909C163.044 128.168 160.758 125.947 157.938 125.947Z" fill="#367CFF"/>
<path d="M189.226 125.498H176.081C173.26 125.498 170.974 127.72 170.974 130.461V143.236C170.974 145.977 173.26 148.199 176.081 148.199H189.226C192.046 148.199 194.333 145.977 194.333 143.236V130.461C194.333 127.72 192.046 125.498 189.226 125.498Z" fill="#367CFF"/>
<path d="M220.977 125.498H207.831C205.011 125.498 202.724 127.72 202.724 130.461V143.236C202.724 145.977 205.011 148.199 207.831 148.199H220.977C223.797 148.199 226.083 145.977 226.083 143.236V130.461C226.083 127.72 223.797 125.498 220.977 125.498Z" fill="#367CFF"/>
<path d="M62.687 125.947H49.5413C46.7211 125.947 44.4348 128.168 44.4348 130.909V143.685C44.4348 146.426 46.7211 148.648 49.5413 148.648H62.687C65.5073 148.648 67.7936 146.426 67.7936 143.685V130.909C67.7936 128.168 65.5073 125.947 62.687 125.947Z" fill="#367CFF"/>
<path d="M94.4374 125.947H81.2918C78.4715 125.947 76.1852 128.168 76.1852 130.909V143.685C76.1852 146.426 78.4715 148.648 81.2918 148.648H94.4374C97.2577 148.648 99.544 146.426 99.544 143.685V130.909C99.544 128.168 97.2577 125.947 94.4374 125.947Z" fill="#367CFF"/>
<path d="M126.187 125.947H113.042C110.222 125.947 107.935 128.168 107.935 130.909V143.685C107.935 146.426 110.222 148.648 113.042 148.648H126.187C129.008 148.648 131.294 146.426 131.294 143.685V130.909C131.294 128.168 129.008 125.947 126.187 125.947Z" fill="#367CFF"/>
<path d="M157.476 153.8H144.331C141.51 153.8 139.224 156.022 139.224 158.763V171.539C139.224 174.279 141.51 176.501 144.331 176.501H157.476C160.296 176.501 162.583 174.279 162.583 171.539V158.763C162.583 156.022 160.296 153.8 157.476 153.8Z" fill="#367CFF"/>
<path d="M62.2249 153.8H49.0793C46.259 153.8 43.9727 156.022 43.9727 158.763V171.539C43.9727 174.279 46.259 176.501 49.0793 176.501H62.2249C65.0452 176.501 67.3315 174.279 67.3315 171.539V158.763C67.3315 156.022 65.0452 153.8 62.2249 153.8Z" fill="#367CFF"/>
<path d="M93.9753 153.8H80.8297C78.0094 153.8 75.7231 156.022 75.7231 158.763V171.539C75.7231 174.279 78.0094 176.501 80.8297 176.501H93.9753C96.7956 176.501 99.0819 174.279 99.0819 171.539V158.763C99.0819 156.022 96.7956 153.8 93.9753 153.8Z" fill="#367CFF"/>
<path d="M125.726 153.8H112.58C109.76 153.8 107.474 156.022 107.474 158.763V171.539C107.474 174.279 109.76 176.501 112.58 176.501H125.726C128.546 176.501 130.832 174.279 130.832 171.539V158.763C130.832 156.022 128.546 153.8 125.726 153.8Z" fill="#367CFF"/>
</g>
<path d="M271.718 12.9852V21.0566H30.0603V12.9852C30.0598 11.3318 30.3945 9.69443 31.0452 8.16672C31.6959 6.63901 32.65 5.25084 33.8528 4.08152C35.0557 2.9122 36.4837 1.98462 38.0555 1.35177C39.6273 0.718917 41.3119 0.393188 43.0133 0.393188H258.764C260.465 0.393378 262.15 0.71923 263.722 1.35214C265.293 1.98505 266.722 2.91262 267.924 4.0819C269.127 5.25118 270.081 6.63926 270.732 8.16689C271.383 9.69452 271.718 11.3318 271.718 12.9852Z" fill="#292A2E"/>
<path d="M125.431 156.311H112.875C111.319 156.311 110.057 157.537 110.057 159.049V171.252C110.057 172.764 111.319 173.99 112.875 173.99H125.431C126.987 173.99 128.248 172.764 128.248 171.252V159.049C128.248 157.537 126.987 156.311 125.431 156.311Z" fill="white"/>
<path d="M61.3111 119.01L45.8091 116.284C45.3697 116.206 44.9799 115.963 44.7255 115.606C44.471 115.249 44.3727 114.809 44.4522 114.382L46.8494 101.508L51.6209 98.4208L64.716 100.724C65.1554 100.801 65.5452 101.045 65.7996 101.402C66.0541 101.758 66.1524 102.198 66.0729 102.625L63.2675 117.691C63.2281 117.903 63.1463 118.104 63.0267 118.285C62.9071 118.466 62.7521 118.622 62.5704 118.744C62.3887 118.867 62.184 118.953 61.9679 118.999C61.7519 119.044 61.5287 119.048 61.3111 119.01Z" fill="#367CFF"/>
<path opacity="0.29" d="M51.6209 98.4208L46.8494 101.508L50.9242 102.294L51.6209 98.4208Z" fill="#FFFFFA"/>
<g opacity="0.88">
<path d="M62.5229 110.226C62.5072 110.226 62.4916 110.225 62.4761 110.222L47.9703 107.615C47.909 107.604 47.8547 107.57 47.8194 107.52C47.7841 107.47 47.7706 107.409 47.7819 107.349C47.7932 107.289 47.8284 107.237 47.8798 107.202C47.9311 107.168 47.9944 107.155 48.0556 107.166L62.5615 109.773C62.6185 109.783 62.6696 109.814 62.7049 109.859C62.7402 109.904 62.7571 109.959 62.7525 110.016C62.7479 110.072 62.722 110.124 62.6799 110.163C62.6378 110.202 62.5824 110.224 62.5244 110.226H62.5229Z" fill="white"/>
<path d="M62.0029 113.183C61.9871 113.183 61.9714 113.182 61.9558 113.179L47.4503 110.572C47.419 110.568 47.3889 110.557 47.3618 110.541C47.3347 110.525 47.3113 110.504 47.2928 110.479C47.2744 110.454 47.2613 110.426 47.2544 110.395C47.2475 110.365 47.2469 110.334 47.2526 110.304C47.2584 110.274 47.2704 110.245 47.2878 110.219C47.3053 110.194 47.328 110.172 47.3544 110.155C47.3808 110.138 47.4105 110.126 47.4416 110.121C47.4728 110.115 47.5048 110.116 47.5357 110.123L62.0412 112.73C62.0986 112.74 62.1502 112.77 62.1858 112.815C62.2214 112.86 62.2386 112.916 62.234 112.973C62.2294 113.029 62.2032 113.082 62.1607 113.121C62.1182 113.16 62.0624 113.182 62.0041 113.183H62.0029Z" fill="white"/>
<path d="M53.4922 114.386C53.4765 114.386 53.4608 114.385 53.4454 114.382L47.0112 113.226C46.9799 113.221 46.9498 113.211 46.9227 113.195C46.8957 113.179 46.8722 113.158 46.8538 113.133C46.8353 113.108 46.8222 113.079 46.8153 113.049C46.8084 113.019 46.8078 112.988 46.8136 112.958C46.8193 112.928 46.8313 112.899 46.8488 112.873C46.8663 112.847 46.8889 112.825 46.9153 112.808C46.9417 112.792 46.9714 112.78 47.0026 112.774C47.0337 112.769 47.0657 112.769 47.0966 112.776L53.5308 113.933C53.5878 113.943 53.6389 113.974 53.6742 114.019C53.7094 114.063 53.7264 114.119 53.7218 114.176C53.7172 114.232 53.6913 114.284 53.6492 114.323C53.6071 114.362 53.5517 114.384 53.4937 114.386H53.4922Z" fill="white"/>
</g>
<path d="M62.592 107.823C62.5346 107.823 62.4773 107.818 62.4209 107.808L59.2821 107.251C59.1583 107.23 59.0401 107.184 58.9345 107.118C58.8288 107.051 58.7377 106.965 58.6664 106.864C58.595 106.764 58.5449 106.65 58.5189 106.531C58.4928 106.411 58.4913 106.287 58.5145 106.167L59.0419 102.928C59.0877 102.688 59.2287 102.475 59.4346 102.335C59.6405 102.194 59.8948 102.139 60.1428 102.179L63.2912 102.702C63.4161 102.723 63.5355 102.767 63.6426 102.833C63.7496 102.899 63.8421 102.985 63.9146 103.085C63.9872 103.186 64.0383 103.3 64.0651 103.421C64.0919 103.541 64.0937 103.665 64.0706 103.786L63.5336 107.061C63.4925 107.275 63.3759 107.468 63.204 107.607C63.0321 107.746 62.8156 107.822 62.592 107.823ZM59.9828 102.526C59.8465 102.527 59.7146 102.573 59.6097 102.658C59.5047 102.742 59.4333 102.859 59.4075 102.989L58.8801 106.229C58.8653 106.302 58.8656 106.378 58.8812 106.452C58.8968 106.526 58.9272 106.596 58.9708 106.658C59.0144 106.72 59.0703 106.773 59.1352 106.814C59.2001 106.855 59.2727 106.883 59.3489 106.897L62.4877 107.453C62.6394 107.479 62.7956 107.446 62.9225 107.361C63.0495 107.276 63.1371 107.146 63.1665 106.999L63.7043 103.722C63.7186 103.648 63.7176 103.572 63.7013 103.498C63.6851 103.424 63.6539 103.355 63.6096 103.293C63.5654 103.231 63.5089 103.178 63.4434 103.138C63.378 103.097 63.3049 103.07 63.2285 103.057L60.08 102.534C60.0479 102.529 60.0154 102.526 59.9828 102.526Z" fill="white"/>
<path d="M115.419 170.986C115.386 170.986 115.353 170.986 115.32 170.981C115.169 170.968 115.023 170.924 114.89 170.853C114.757 170.781 114.641 170.684 114.549 170.566L111.252 166.351C111.076 166.127 111 165.845 111.039 165.566C111.078 165.287 111.23 165.034 111.46 164.864C111.691 164.693 111.982 164.619 112.269 164.657C112.556 164.695 112.816 164.842 112.991 165.066L115.565 168.357L125.445 159.592C125.551 159.498 125.675 159.425 125.81 159.378C125.945 159.331 126.088 159.309 126.231 159.316C126.375 159.322 126.515 159.356 126.645 159.415C126.775 159.474 126.892 159.558 126.988 159.661C127.085 159.764 127.16 159.884 127.209 160.015C127.258 160.146 127.279 160.286 127.273 160.425C127.266 160.564 127.231 160.701 127.171 160.827C127.11 160.953 127.024 161.066 126.918 161.16L116.155 170.707C115.954 170.886 115.691 170.985 115.419 170.986Z" fill="#367CFF"/>
<path d="M259.05 49.3664L245.983 57.9182C245.8 58.0385 245.594 58.1225 245.377 58.1653C245.16 58.2082 244.936 58.209 244.719 58.1679C244.502 58.1267 244.295 58.0443 244.111 57.9254C243.927 57.8065 243.768 57.6534 243.645 57.4749L236.125 46.6236L237.33 41.1771L248.369 33.9526C248.553 33.8324 248.759 33.7486 248.976 33.7058C249.193 33.663 249.416 33.6622 249.633 33.7034C249.85 33.7445 250.057 33.8269 250.241 33.9457C250.426 34.0646 250.584 34.2175 250.708 34.3959L259.507 47.095C259.631 47.2733 259.717 47.4735 259.761 47.6842C259.805 47.8948 259.805 48.1118 259.763 48.3227C259.72 48.5336 259.636 48.7344 259.513 48.9134C259.391 49.0925 259.234 49.2464 259.05 49.3664Z" fill="#0CBC8B"/>
<path opacity="0.29" d="M237.331 41.1766L236.127 46.6236L239.611 44.4247L237.331 41.1766Z" fill="#FFFFFA"/>
<g opacity="0.88">
<path d="M253.616 42.2491C253.605 42.26 253.592 42.2698 253.579 42.2783L241.312 50.2404C241.26 50.2704 241.198 50.2798 241.139 50.2669C241.081 50.2539 241.029 50.2194 240.996 50.1706C240.962 50.1218 240.95 50.0624 240.96 50.0047C240.971 49.947 241.003 49.8954 241.052 49.8606L253.319 41.8985C253.368 41.8675 253.426 41.855 253.484 41.8634C253.541 41.8718 253.593 41.9005 253.63 41.9441C253.667 41.9876 253.686 42.0428 253.683 42.0991C253.681 42.1555 253.657 42.2089 253.616 42.2491H253.616Z" fill="white"/>
<path d="M255.365 44.7209C255.353 44.7318 255.341 44.7416 255.328 44.7501L243.06 52.7122C243.008 52.7422 242.947 52.7516 242.888 52.7387C242.829 52.7257 242.778 52.6912 242.744 52.6424C242.711 52.5936 242.698 52.5342 242.709 52.4765C242.719 52.4188 242.752 52.3672 242.8 52.3324L255.068 44.3703C255.116 44.3393 255.175 44.3268 255.232 44.3352C255.29 44.3436 255.342 44.3723 255.379 44.4159C255.415 44.4594 255.434 44.5146 255.432 44.5709C255.429 44.6273 255.405 44.6807 255.365 44.7209Z" fill="white"/>
<path d="M250.128 51.351C250.117 51.362 250.104 51.3717 250.091 51.3802L244.652 54.9119C244.626 54.9302 244.597 54.9434 244.566 54.9505C244.535 54.9576 244.503 54.9584 244.472 54.9531C244.44 54.9477 244.41 54.9363 244.384 54.9193C244.357 54.9024 244.334 54.8804 244.317 54.8546C244.299 54.8289 244.287 54.7999 244.281 54.7694C244.276 54.739 244.276 54.7078 244.283 54.6776C244.29 54.6474 244.304 54.619 244.322 54.5939C244.341 54.5689 244.365 54.5479 244.392 54.532L249.834 51.0004C249.882 50.9694 249.941 50.9569 249.998 50.9653C250.055 50.9737 250.107 51.0025 250.144 51.046C250.181 51.0895 250.2 51.1448 250.198 51.2011C250.195 51.2574 250.171 51.3108 250.13 51.351H250.128Z" fill="white"/>
</g>
<path d="M262.043 311H20.6428C20.5739 311 20.5078 310.973 20.4591 310.926C20.4104 310.879 20.383 310.814 20.383 310.747C20.383 310.681 20.4104 310.616 20.4591 310.569C20.5078 310.522 20.5739 310.495 20.6428 310.495H262.043C262.112 310.495 262.178 310.522 262.227 310.569C262.276 310.616 262.303 310.681 262.303 310.747C262.303 310.814 262.276 310.879 262.227 310.926C262.178 310.973 262.112 311 262.043 311Z" fill="#292A2E"/>
<path d="M218.062 295.068C218.062 295.068 216.387 303.508 208.253 303.98C200.12 304.451 201.884 310.747 201.884 310.747H232.964V295.656L218.062 295.068Z" fill="#367CFF"/>
<path d="M227.649 141.074C227.649 141.074 227.551 138.536 227.572 144.293C227.649 165.765 228.774 190.291 229.711 204.643C231.217 227.715 234.334 300.455 234.334 300.455L212.427 300.288L194.119 140.202L227.649 141.074Z" fill="#262626"/>
<path d="M204.15 166.677C204.15 166.677 203.304 182.259 203.148 185.917C202.785 194.377 202.46 203.192 202.46 213.123L199.439 187.033C199.439 187.033 201.794 178.873 204.15 166.677Z" fill="#0A0A0A"/>
<path d="M177.994 295.068C177.994 295.068 176.319 303.508 168.186 303.98C160.053 304.451 161.816 310.747 161.816 310.747H192.896V295.656L177.994 295.068Z" fill="#367CFF"/>
<path d="M171.816 142.741C171.816 142.741 169.636 216.849 169.901 220.436L173.042 299.898L195.354 300.259L197.108 216.816C197.108 216.816 197.375 193.798 203.098 172.424C206.026 161.454 207.788 150.221 208.357 138.901L171.816 142.741Z" fill="#262626"/>
<path d="M227.87 141.072L227.937 141.075C227.937 141.075 227.889 139.824 227.87 141.072Z" fill="#333333"/>
<path d="M185.47 77.9431C185.536 77.9349 186.271 89.7827 200.433 88.7497C210.238 88.0359 213.736 77.9262 213.958 77.9262C212.901 77.7098 211.121 77.3906 210.652 77.1471C209.108 76.3409 206.909 75.5019 206.411 72.5882C206.124 70.9088 206.611 62.3173 206.461 60.618L191.7 63.8827C191.91 67.4713 193.382 75.7905 188.223 77.2647C187.365 77.5063 186.44 77.7307 185.47 77.9431Z" fill="#E98862"/>
<path d="M192.115 69.4797C198.059 69.9255 205.689 67.4745 207.125 59.7664L208.422 52.8114C209.858 45.1036 206.857 38.1219 199.389 36.8075C191.921 35.4928 185.174 40.759 183.739 48.4668L183.165 51.5457C182.987 52.6062 182.883 53.6774 182.855 54.7516C182.759 57.5903 182.624 61.9079 184.07 65.0791C185.434 68.0733 188.318 69.1951 192.115 69.4797Z" fill="#E98862"/>
<path d="M205.444 36.4125C203.085 35.6973 200.637 35.2926 198.168 35.2092C198.086 34.7899 197.902 34.3959 197.631 34.0605C197.36 33.7252 197.009 33.4585 196.609 33.2831C195.303 32.7875 193.708 33.5857 192.647 35.1245C192.093 34.2043 191.227 33.5002 190.197 33.133C187.274 32.2486 187.129 36.3299 187.129 36.3299C187.129 36.3299 182.493 31.8847 182.349 37.5541C182.173 44.4139 183.47 46.4273 184.416 46.9323C186.285 47.9354 187.677 47.7655 188.416 49.2408C190.656 53.7091 188.461 66.2954 191.052 67.8713C195.023 70.2854 203.154 70.3687 205.795 70.1855C206.811 70.1134 207.762 68.9703 208.189 68.0725C209.571 65.1729 212.651 58.5995 213.509 55.8809C215.094 50.8661 214.975 39.437 205.444 36.4125Z" fill="#0C0C0C"/>
<path d="M189.28 63.3766C191.573 63.1349 193.166 60.5548 192.917 58.3268C192.669 56.0987 190.673 55.0657 188.38 55.3077L187.365 56.9255L187.31 63.585L189.28 63.3766Z" fill="#E98862"/>
<path d="M168.941 102.006C169.362 106.815 171.411 136.816 171.816 142.74H227.626C227.941 137.398 229.357 114.037 230.553 103.59C231.694 93.6209 233.933 88.6299 232.291 85.6826C229.609 80.8658 222.281 78.0827 217.284 77.4251C214.233 77.0237 209.643 76.7358 209.643 76.7358H188.154C186.112 76.7358 174.212 77.6693 171.581 79.638C166.982 83.0823 168.048 91.8159 168.941 102.006Z" fill="#367CFF"/>
<path d="M168.17 95.982C168.123 95.9821 168.077 95.9645 168.043 95.9328C168.008 95.9011 167.987 95.8578 167.985 95.8118L167.535 88.1757C167.532 88.128 167.549 88.0811 167.581 88.0454C167.614 88.0097 167.66 87.9881 167.709 87.9853C167.758 87.9831 167.806 87.9996 167.843 88.0313C167.879 88.063 167.902 88.1073 167.905 88.1548L168.355 95.7912C168.357 95.8149 168.353 95.8386 168.345 95.8609C168.337 95.8833 168.325 95.904 168.308 95.9216C168.292 95.9393 168.273 95.9537 168.251 95.964C168.229 95.9743 168.205 95.9803 168.18 95.9816L168.17 95.982Z" fill="#0C0C0C"/>
<path d="M239.692 142.427C241.333 142.427 242.95 142.041 244.405 141.303C245.861 140.564 247.111 139.495 248.049 138.187C248.988 136.878 249.587 135.368 249.796 133.786C250.006 132.204 249.818 130.596 249.251 129.099C248.674 127.579 235.157 92.7924 232.584 86.3467L213.53 93.8492C214.977 97.4732 220.219 111.21 224.43 122.276L217.433 121.537L215.231 141.226L238.589 142.368C238.955 142.407 239.323 142.427 239.692 142.427Z" fill="#367CFF"/>
<path d="M228.817 103.793L227.446 142.736L227.817 142.749L229.188 103.806L228.817 103.793Z" fill="#0C0C0C"/>
<path d="M128.153 62.2566L111.256 69.4995C110.89 69.6562 110.475 69.6653 110.102 69.5248C109.73 69.3842 109.429 69.1055 109.268 68.75L103.01 54.9601L105.452 49.1687L119.483 43.154C119.665 43.0764 119.86 43.0342 120.058 43.0298C120.256 43.0254 120.453 43.059 120.637 43.1286C120.822 43.1982 120.99 43.3025 121.134 43.4354C121.277 43.5684 121.391 43.7275 121.471 43.9035L128.924 60.3247C129.085 60.6803 129.095 61.0836 128.95 61.4459C128.805 61.8082 128.518 62.0998 128.153 62.2566Z" fill="#0CBC8B"/>
<path opacity="0.29" d="M105.452 49.1693L103.01 54.9607L107.311 53.2001L105.452 49.1693Z" fill="#FFFFFA"/>
<g opacity="0.88">
<path d="M121.959 50.6995C121.944 50.7095 121.929 50.7179 121.912 50.7248L106.723 57.1683C106.66 57.1894 106.591 57.1868 106.53 57.1609C106.469 57.1351 106.421 57.0879 106.394 57.0287C106.368 56.9696 106.365 56.9029 106.386 56.8418C106.408 56.7808 106.453 56.7299 106.511 56.6994L121.701 50.2559C121.761 50.2309 121.828 50.2284 121.89 50.2487C121.952 50.269 122.003 50.3108 122.035 50.366C122.067 50.4212 122.077 50.486 122.063 50.5478C122.049 50.6096 122.012 50.6642 121.959 50.701V50.6995Z" fill="white"/>
<path d="M123.243 53.4917C123.228 53.5016 123.213 53.5101 123.197 53.5169L108.007 59.9605C107.944 59.9827 107.874 59.9808 107.813 59.9551C107.751 59.9295 107.702 59.8819 107.675 59.8222C107.648 59.7625 107.646 59.6951 107.668 59.6337C107.69 59.5723 107.736 59.5215 107.796 59.4916L122.985 53.048C123.045 53.0221 123.113 53.0188 123.175 53.0389C123.238 53.059 123.29 53.101 123.322 53.1566C123.355 53.2123 123.364 53.2776 123.35 53.3399C123.335 53.4021 123.297 53.4568 123.243 53.4931V53.4917Z" fill="white"/>
<path d="M124.673 56.5609C124.658 56.5709 124.643 56.5793 124.627 56.5861L109.437 63.0297C109.374 63.0519 109.304 63.05 109.243 63.0243C109.181 62.9987 109.132 62.9512 109.105 62.8915C109.078 62.8318 109.076 62.7643 109.098 62.7029C109.12 62.6415 109.166 62.5907 109.226 62.5608L124.415 56.1172C124.475 56.0913 124.543 56.088 124.605 56.1081C124.668 56.1282 124.72 56.1702 124.752 56.2258C124.785 56.2815 124.794 56.3468 124.78 56.4091C124.765 56.4713 124.727 56.526 124.673 56.5623V56.5609Z" fill="white"/>
<path d="M117.53 62.8851C117.516 62.8949 117.5 62.9033 117.484 62.9103L110.747 65.7681C110.684 65.7893 110.615 65.7866 110.554 65.7608C110.493 65.7349 110.445 65.6877 110.418 65.6286C110.391 65.5694 110.389 65.5027 110.41 65.4417C110.432 65.3806 110.477 65.3298 110.535 65.2992L117.273 62.4414C117.333 62.4165 117.4 62.4139 117.462 62.4343C117.524 62.4546 117.575 62.4964 117.607 62.5516C117.639 62.6068 117.649 62.6715 117.635 62.7333C117.621 62.7952 117.584 62.8497 117.53 62.8865V62.8851Z" fill="white"/>
</g>
<path d="M114.188 60.9981C114.11 60.7994 113.993 60.618 113.841 60.465C113.689 60.3121 113.507 60.1907 113.306 60.1084C113.104 60.0261 112.888 59.9845 112.669 59.9862C112.451 59.9879 112.235 60.0329 112.035 60.1184C111.654 60.2969 111.357 60.6093 111.204 60.9925C111.05 61.3756 111.053 61.801 111.209 62.1827L111.744 64.336C111.857 64.7915 111.795 65.2715 111.569 65.6854C111.343 66.0993 110.969 66.4186 110.518 66.5828C110.075 66.744 109.588 66.7454 109.144 66.5869C108.7 66.4283 108.33 66.1204 108.1 65.719C108.1 65.719 104.768 58.8776 104.705 58.5991C104.158 59.1174 103.205 60.3925 103.009 61.3538C103.002 61.3588 103.974 69.0367 104.517 69.5777L110.155 78.0289C112.46 80.324 120.197 76.5053 120.197 76.5053L114.188 60.9981Z" fill="#E98862"/>
<path d="M137.354 124.101C135.466 124.101 133.61 123.627 131.966 122.724C130.323 121.821 128.947 120.52 127.974 118.948L103.703 79.7658L122.464 68.7908L140.914 98.5791L171.582 79.6424L184.576 96.5736L143.279 122.411C141.512 123.515 139.455 124.102 137.354 124.101Z" fill="#367CFF"/>
<path d="M169.252 106.329C169.21 106.329 169.17 106.316 169.137 106.291C169.105 106.266 169.081 106.231 169.072 106.192C169.062 106.152 169.066 106.111 169.083 106.074C169.1 106.038 169.13 106.007 169.167 105.989L174.466 103.331C174.509 103.309 174.56 103.305 174.607 103.32C174.654 103.334 174.693 103.366 174.716 103.409C174.738 103.451 174.743 103.501 174.728 103.546C174.713 103.592 174.68 103.63 174.636 103.652L169.337 106.309C169.311 106.322 169.281 106.329 169.252 106.329Z" fill="#0C0C0C"/>
<path d="M185.194 77.8612L187.825 73.8643C187.941 73.6892 188.099 73.545 188.287 73.4452C188.475 73.3453 188.685 73.293 188.899 73.293H208.73C208.909 73.293 209.085 73.3295 209.248 73.4001C209.412 73.4708 209.558 73.574 209.677 73.7031L213.529 77.8612H185.194Z" fill="#367CFF"/>
<path d="M32.0157 237.946L31.3749 238.015L39.2871 308.284L39.9279 308.216L32.0157 237.946Z" fill="#292A2E"/>
<path d="M52.5086 268.624L48.6161 306.048L49.2575 306.111L53.15 268.687L52.5086 268.624Z" fill="#292A2E"/>
<path d="M59.2023 301.524H30.3197V310.633H59.2023V301.524Z" fill="#292A2E"/>
<path opacity="0.2" d="M59.2023 301.524H30.3197V310.633H59.2023V301.524Z" fill="white"/>
<path d="M76.6143 284.751C82.0857 277.683 79.4774 266.804 70.7885 260.45C62.0996 254.097 50.6204 254.675 45.149 261.742C39.6775 268.81 42.2858 279.689 50.9747 286.043C59.6636 292.397 71.1428 291.818 76.6143 284.751Z" fill="#0CBC8B"/>
<path opacity="0.2" d="M76.6143 284.751C82.0857 277.683 79.4774 266.804 70.7885 260.45C62.0996 254.097 50.6204 254.675 45.149 261.742C39.6775 268.81 42.2858 279.689 50.9747 286.043C59.6636 292.397 71.1428 291.818 76.6143 284.751Z" fill="white"/>
<path opacity="0.5" d="M76.6131 284.752C76.2457 285.229 75.8448 285.68 75.4132 286.103C69.3902 289.843 60.5002 289.254 53.4477 284.096C44.7595 277.744 42.1518 266.864 47.624 259.797C47.9919 259.321 48.3918 258.87 48.821 258.446C54.8469 254.703 63.734 255.295 70.7895 260.45C79.4772 266.805 82.0849 277.685 76.6131 284.752Z" fill="white"/>
<path d="M36.3055 257.938C44.9131 251.481 47.2526 240.406 41.5309 233.203C35.8092 225.999 24.193 225.394 15.5854 231.851C6.97783 238.308 4.63836 249.383 10.3601 256.586C16.0818 263.79 27.6979 264.395 36.3055 257.938Z" fill="#0CBC8B"/>
<path opacity="0.2" d="M33.5813 256.085C26.9152 261.089 18.4434 261.852 12.3024 258.594C11.5917 257.986 10.9426 257.313 10.3639 256.584C4.63939 249.383 6.97872 238.307 15.586 231.851C22.2521 226.85 30.7239 226.084 36.8619 229.339C37.5741 229.948 38.2241 230.622 38.803 231.352C44.5261 238.553 42.1867 249.629 33.5813 256.085Z" fill="white"/>
</svg>
