<svg width="320" height="300" viewBox="0 0 320 300" fill="none" xmlns="http://www.w3.org/2000/svg">
<g clip-path="url(#clip0_306_2445)">
<g opacity="0.7">
<path d="M272.143 2.61292H215.86V69.3709H272.143V2.61292Z" fill="#F4F4F4"/>
<path d="M272.143 69.3708H273.969V2.61291H272.143V69.3708Z" fill="#F4F4F4"/>
<path opacity="0.05" d="M272.143 69.3708H273.969V2.61291H272.143V69.3708Z" fill="#292A2E"/>
<path opacity="0.05" d="M261.891 15.9663H226.113V56.0179H261.891V15.9663Z" fill="#292A2E"/>
<path opacity="0.03" d="M261.891 15.9663H260.026V56.0179H261.891V15.9663Z" fill="#292A2E"/>
<path d="M318.174 87.3976H272.143V133.879H318.174V87.3976Z" fill="#F4F4F4"/>
<path opacity="0.05" d="M309.789 95.8649H280.529V125.412H309.789V95.8649Z" fill="#292A2E"/>
<path d="M318.174 133.879H320V87.3975H318.174V133.879Z" fill="#F4F4F4"/>
<path opacity="0.05" d="M318.174 133.879H320V87.3975H318.174V133.879Z" fill="#292A2E"/>
<path opacity="0.03" d="M309.789 95.8649H307.924V125.412H309.789V95.8649Z" fill="#292A2E"/>
</g>
<g opacity="0.7">
<path d="M156.903 0H24.3957V132.588H156.903V0Z" fill="#F4F4F4"/>
<path d="M24.3957 0H22.8769V132.588H24.3957V0Z" fill="#F4F4F4"/>
<path opacity="0.05" d="M24.3957 0H22.8769V132.588H24.3957V0Z" fill="#292A2E"/>
<path opacity="0.05" d="M56.4962 91.364V56.6748H84.8944V76.8284H128.883V112.513H147.58V132.588H128.883H125.282H30.7698V91.364H56.4962Z" fill="#292A2E"/>
<path opacity="0.34" d="M81.2494 60.4412H60.5694V64.2075H81.2494V60.4412Z" fill="#FFFFFA"/>
<path opacity="0.34" d="M81.2494 68.2462H60.5694V72.0126H81.2494V68.2462Z" fill="#FFFFFA"/>
<path opacity="0.34" d="M81.2494 76.051H60.5694V79.8174H81.2494V76.051Z" fill="#FFFFFA"/>
<path opacity="0.34" d="M38.2486 95.02H34.4371V98.7864H38.2486V95.02Z" fill="#FFFFFA"/>
<path opacity="0.34" d="M38.2486 102.825H34.4371V106.591H38.2486V102.825Z" fill="#FFFFFA"/>
<path opacity="0.34" d="M38.2486 110.63H34.4371V114.396H38.2486V110.63Z" fill="#FFFFFA"/>
<path opacity="0.34" d="M45.3002 95.02H41.4886V98.7864H45.3002V95.02Z" fill="#FFFFFA"/>
<path opacity="0.34" d="M45.3002 102.825H41.4886V106.591H45.3002V102.825Z" fill="#FFFFFA"/>
<path opacity="0.34" d="M45.3002 110.63H41.4886V114.396H45.3002V110.63Z" fill="#FFFFFA"/>
<path opacity="0.34" d="M52.161 95.02H48.3495V98.7864H52.161V95.02Z" fill="#FFFFFA"/>
<path opacity="0.34" d="M52.161 102.825H48.3495V106.591H52.161V102.825Z" fill="#FFFFFA"/>
<path opacity="0.34" d="M52.161 110.63H48.3495V114.396H52.161V110.63Z" fill="#FFFFFA"/>
<path d="M24.3957 65.5502H51.0583V0H53.2633V65.5502H125.282V0H127.487V65.5502H156.903V67.7566H127.487V132.588H125.282V67.7566H53.2633V132.588H51.0583V67.7566H24.3957V65.5502Z" fill="white"/>
<path d="M162.181 132.428H19.1171V136.837H162.181V132.428Z" fill="#F4F4F4"/>
<path opacity="0.1" d="M162.181 132.428H19.1171V136.837H162.181V132.428Z" fill="#292A2E"/>
<path opacity="0.1" d="M19.1171 132.428H17.0517V136.837H19.1171V132.428Z" fill="#292A2E"/>
<path opacity="0.1" d="M19.1171 132.428H17.0517V136.837H19.1171V132.428Z" fill="#292A2E"/>
</g>
<path d="M100.872 16.4637H255.968C258.203 16.4637 260.345 17.3518 261.925 18.9325C263.505 20.5133 264.392 22.6572 264.392 24.8927V210.767C264.392 213.051 263.485 215.241 261.871 216.857C260.257 218.472 258.068 219.379 255.785 219.379H101.056C98.7733 219.379 96.5841 218.472 94.97 216.857C93.3558 215.241 92.449 213.051 92.449 210.767V24.8917C92.4493 22.6564 93.3369 20.5128 94.9165 18.9323C96.4962 17.3518 98.6386 16.4638 100.872 16.4637Z" fill="white"/>
<path d="M255.785 219.706H101.056C98.6866 219.706 96.4141 218.764 94.7387 217.088C93.0632 215.411 92.1219 213.137 92.1219 210.766V24.5644C92.1221 22.3291 93.0097 20.1855 94.5894 18.6049C96.169 17.0244 98.3115 16.1365 100.545 16.1365H256.296C258.53 16.1365 260.672 17.0245 262.252 18.6051C263.832 20.1858 264.719 22.3297 264.719 24.5651V210.766C264.719 213.137 263.778 215.411 262.103 217.088C260.427 218.764 258.155 219.706 255.785 219.706ZM92.7762 24.8777V210.766C92.7761 211.854 92.9903 212.932 93.4063 213.937C93.8224 214.942 94.4323 215.856 95.2012 216.625C95.9701 217.394 96.8828 218.005 97.8874 218.421C98.892 218.837 99.9687 219.051 101.056 219.051H255.785C257.981 219.051 260.087 218.179 261.64 216.625C263.193 215.071 264.065 212.964 264.065 210.766V24.7958C264.065 23.7445 263.858 22.7035 263.456 21.7323C263.054 20.761 262.464 19.8785 261.721 19.1352C260.978 18.3919 260.096 17.8023 259.125 17.4001C258.154 16.9979 257.114 16.791 256.063 16.7911H100.858C98.715 16.7911 96.6594 17.6431 95.1437 19.1596C93.6279 20.6761 92.7763 22.7329 92.7762 24.8777Z" fill="#292A2E"/>
<path d="M125.803 56.8139H107.008C105.96 56.8127 104.956 56.3958 104.215 55.6548C103.475 54.9138 103.058 53.909 103.057 52.8609V34.0536C103.058 33.0054 103.475 32.0005 104.215 31.2593C104.956 30.5181 105.96 30.1012 107.008 30.1H125.803C126.851 30.1011 127.855 30.518 128.596 31.2592C129.337 32.0004 129.754 33.0053 129.755 34.0536V52.8609C129.753 53.9091 129.337 54.9139 128.596 55.6549C127.855 56.396 126.851 56.8128 125.803 56.8139ZM107.008 30.7539C106.134 30.755 105.296 31.1029 104.678 31.7213C104.06 32.3398 103.712 33.1783 103.711 34.0529V52.8609C103.712 53.7356 104.06 54.5741 104.678 55.1925C105.296 55.811 106.134 56.1589 107.008 56.1599H125.803C126.678 56.159 127.516 55.8111 128.134 55.1926C128.752 54.5742 129.1 53.7356 129.101 52.8609V34.0536C129.1 33.1789 128.752 32.3403 128.134 31.7219C127.516 31.1034 126.678 30.7556 125.803 30.7546L107.008 30.7539Z" fill="#292A2E"/>
<path d="M125.803 94.0744H107.008C105.96 94.0732 104.956 93.6563 104.215 92.9151C103.475 92.1739 103.058 91.169 103.057 90.1208V71.3138C103.058 70.2656 103.474 69.2606 104.215 68.5193C104.956 67.7781 105.96 67.3611 107.008 67.3599H125.803C126.851 67.3611 127.855 67.778 128.596 68.5193C129.337 69.2605 129.754 70.2655 129.755 71.3138V90.1208C129.754 91.1691 129.337 92.174 128.596 92.9152C127.855 93.6564 126.851 94.0733 125.803 94.0744ZM107.008 68.0155C106.134 68.0165 105.296 68.3645 104.678 68.983C104.059 69.6015 103.712 70.4401 103.711 71.3148V90.1218C103.712 90.9965 104.059 91.835 104.678 92.4535C105.296 93.072 106.134 93.4198 107.008 93.4208H125.803C126.678 93.4198 127.516 93.072 128.134 92.4535C128.752 91.835 129.1 90.9965 129.101 90.1218V71.3138C129.1 70.4391 128.752 69.6005 128.134 68.982C127.516 68.3635 126.678 68.0155 125.803 68.0145L107.008 68.0155Z" fill="#292A2E"/>
<path d="M125.803 131.335H107.008C105.96 131.334 104.956 130.917 104.215 130.176C103.475 129.434 103.058 128.43 103.057 127.381V108.574C103.058 107.526 103.475 106.521 104.215 105.78C104.956 105.039 105.96 104.622 107.008 104.621H125.803C126.851 104.622 127.855 105.039 128.596 105.78C129.337 106.521 129.754 107.526 129.755 108.574V127.381C129.754 128.43 129.337 129.435 128.596 130.176C127.855 130.917 126.851 131.334 125.803 131.335ZM107.008 105.275C106.134 105.276 105.296 105.624 104.678 106.243C104.059 106.861 103.712 107.7 103.711 108.574V127.381C103.712 128.256 104.059 129.095 104.678 129.713C105.296 130.332 106.134 130.679 107.008 130.68H125.803C126.678 130.679 127.516 130.332 128.134 129.713C128.752 129.095 129.1 128.256 129.101 127.381V108.574C129.1 107.7 128.752 106.861 128.134 106.243C127.516 105.624 126.678 105.276 125.803 105.275H107.008Z" fill="#292A2E"/>
<path d="M125.803 168.084H107.008C105.96 168.082 104.956 167.666 104.215 166.924C103.475 166.183 103.058 165.178 103.057 164.13V145.323C103.058 144.275 103.474 143.27 104.215 142.529C104.956 141.787 105.96 141.37 107.008 141.369H125.803C126.851 141.37 127.855 141.787 128.596 142.529C129.337 143.27 129.754 144.275 129.755 145.323V164.13C129.754 165.178 129.337 166.183 128.596 166.925C127.855 167.666 126.851 168.083 125.803 168.084ZM107.008 142.024C106.134 142.025 105.296 142.373 104.677 142.991C104.059 143.61 103.712 144.448 103.711 145.323V164.13C103.712 165.005 104.06 165.843 104.678 166.462C105.296 167.08 106.134 167.428 107.008 167.429H125.803C126.678 167.428 127.516 167.08 128.134 166.462C128.752 165.843 129.1 165.005 129.101 164.13V145.323C129.1 144.448 128.752 143.61 128.134 142.991C127.516 142.373 126.678 142.025 125.803 142.024H107.008Z" fill="#292A2E"/>
<path d="M125.803 204.832H107.008C105.96 204.831 104.956 204.414 104.215 203.673C103.474 202.931 103.058 201.926 103.057 200.878V182.071C103.058 181.023 103.474 180.018 104.215 179.277C104.956 178.536 105.96 178.119 107.008 178.117H125.803C126.851 178.119 127.855 178.536 128.596 179.277C129.337 180.018 129.754 181.023 129.755 182.071V200.878C129.754 201.927 129.337 202.932 128.596 203.673C127.855 204.414 126.851 204.831 125.803 204.832ZM107.008 178.772C106.134 178.773 105.296 179.121 104.678 179.739C104.059 180.358 103.712 181.196 103.711 182.071V200.878C103.712 201.753 104.059 202.591 104.678 203.21C105.296 203.828 106.134 204.176 107.008 204.177H125.803C126.678 204.176 127.516 203.828 128.134 203.21C128.752 202.591 129.1 201.753 129.101 200.878V182.071C129.1 181.197 128.752 180.358 128.134 179.74C127.516 179.121 126.678 178.773 125.803 178.772L107.008 178.772Z" fill="#292A2E"/>
<path d="M113.062 88.2415C112.724 88.2417 112.399 88.1106 112.156 87.8758L106.677 82.6061C106.553 82.487 106.454 82.3446 106.385 82.187C106.316 82.0295 106.279 81.86 106.276 81.6881C106.272 81.5162 106.303 81.3453 106.365 81.1851C106.428 81.025 106.521 80.8788 106.641 80.7548C106.76 80.6309 106.902 80.5316 107.059 80.4627C107.217 80.3937 107.386 80.3565 107.558 80.3531C107.73 80.3497 107.901 80.3802 108.061 80.4428C108.221 80.5055 108.367 80.599 108.491 80.7182L113.04 85.0947L124.444 73.5798C124.689 73.3373 125.02 73.2013 125.364 73.2014C125.709 73.2016 126.04 73.3378 126.285 73.5806C126.529 73.8233 126.669 74.153 126.672 74.4979C126.675 74.8428 126.543 75.1751 126.303 75.4226L113.992 87.8523C113.87 87.9756 113.726 88.0735 113.566 88.1403C113.407 88.2071 113.235 88.2415 113.062 88.2415Z" fill="#0CBC8B"/>
<path d="M113.062 125.502C112.724 125.502 112.399 125.371 112.156 125.137L106.677 119.867C106.427 119.626 106.283 119.296 106.276 118.949C106.269 118.602 106.4 118.266 106.641 118.016C106.881 117.765 107.211 117.621 107.558 117.614C107.905 117.607 108.24 117.738 108.491 117.979L113.04 122.354L124.444 110.84C124.688 110.594 125.02 110.454 125.367 110.453C125.714 110.451 126.048 110.587 126.294 110.832C126.541 111.076 126.68 111.409 126.682 111.756C126.683 112.103 126.547 112.437 126.303 112.683L113.992 125.113C113.87 125.236 113.726 125.334 113.566 125.401C113.407 125.468 113.235 125.502 113.062 125.502Z" fill="#0CBC8B"/>
<path opacity="0.5" d="M250.26 37.6333H140.028C139.523 37.6333 139.115 38.0423 139.115 38.5468C139.115 39.0514 139.523 39.4604 140.028 39.4604H250.26C250.765 39.4604 251.173 39.0514 251.173 38.5468C251.173 38.0423 250.765 37.6333 250.26 37.6333Z" fill="#262626"/>
<path opacity="0.5" d="M211.007 47.4528H140.028C139.523 47.4528 139.115 47.8618 139.115 48.3663C139.115 48.8708 139.523 49.2798 140.028 49.2798H211.007C211.511 49.2798 211.92 48.8708 211.92 48.3663C211.92 47.8618 211.511 47.4528 211.007 47.4528Z" fill="#262626"/>
<path opacity="0.5" d="M250.26 74.8939H140.028C139.523 74.8939 139.115 75.3029 139.115 75.8074C139.115 76.312 139.523 76.721 140.028 76.721H250.26C250.765 76.721 251.173 76.312 251.173 75.8074C251.173 75.3029 250.765 74.8939 250.26 74.8939Z" fill="#262626"/>
<path opacity="0.5" d="M211.007 84.7133H140.028C139.523 84.7133 139.115 85.1223 139.115 85.6268C139.115 86.1313 139.523 86.5403 140.028 86.5403H211.007C211.511 86.5403 211.92 86.1313 211.92 85.6268C211.92 85.1223 211.511 84.7133 211.007 84.7133Z" fill="#262626"/>
<path opacity="0.5" d="M250.26 112.155H140.028C139.523 112.155 139.115 112.564 139.115 113.068C139.115 113.573 139.523 113.982 140.028 113.982H250.26C250.765 113.982 251.173 113.573 251.173 113.068C251.173 112.564 250.765 112.155 250.26 112.155Z" fill="#262626"/>
<path opacity="0.5" d="M211.007 121.974H140.028C139.523 121.974 139.115 122.383 139.115 122.887C139.115 123.392 139.523 123.801 140.028 123.801H211.007C211.511 123.801 211.92 123.392 211.92 122.887C211.92 122.383 211.511 121.974 211.007 121.974Z" fill="#262626"/>
<path opacity="0.5" d="M250.26 148.903H140.028C139.523 148.903 139.115 149.312 139.115 149.817C139.115 150.321 139.523 150.73 140.028 150.73H250.26C250.765 150.73 251.173 150.321 251.173 149.817C251.173 149.312 250.765 148.903 250.26 148.903Z" fill="#262626"/>
<path opacity="0.5" d="M211.007 158.723H140.028C139.523 158.723 139.115 159.132 139.115 159.636C139.115 160.141 139.523 160.55 140.028 160.55H211.007C211.511 160.55 211.92 160.141 211.92 159.636C211.92 159.132 211.511 158.723 211.007 158.723Z" fill="#262626"/>
<path opacity="0.5" d="M250.26 185.651H140.028C139.523 185.651 139.115 186.06 139.115 186.565C139.115 187.07 139.523 187.479 140.028 187.479H250.26C250.765 187.479 251.173 187.07 251.173 186.565C251.173 186.06 250.765 185.651 250.26 185.651Z" fill="#262626"/>
<path opacity="0.5" d="M211.007 195.471H140.028C139.523 195.471 139.115 195.88 139.115 196.384C139.115 196.889 139.523 197.298 140.028 197.298H211.007C211.511 197.298 211.92 196.889 211.92 196.384C211.92 195.88 211.511 195.471 211.007 195.471Z" fill="#262626"/>
<path d="M112.118 50.1528C112.214 49.9183 112.383 49.7214 112.6 49.5921C112.818 49.4628 113.072 49.4081 113.323 49.4364C113.323 49.4161 113.305 49.367 113.341 49.3673L112.523 48.8501C112.278 48.703 112.095 48.4722 112.008 48.2005C111.92 47.9287 111.934 47.6345 112.046 47.372C112.165 47.1163 112.375 46.914 112.635 46.8045C112.895 46.695 113.186 46.686 113.453 46.7792C113.45 46.7681 113.457 46.757 113.458 46.7465L113.122 46.5341C112.892 46.3944 112.717 46.1797 112.627 45.9261C112.538 45.6724 112.538 45.3956 112.629 45.1423C112.689 44.9848 112.784 44.8426 112.906 44.726C113.027 44.6094 113.174 44.5214 113.334 44.4681C113.494 44.4149 113.663 44.3979 113.831 44.4182C113.998 44.4386 114.159 44.4959 114.301 44.5859L115.078 45.0769C115.08 45.0723 115.078 45.0674 115.08 45.0631C115.082 45.0589 115.091 45.0569 115.095 45.052C114.912 44.8694 114.798 44.6303 114.769 44.3738C114.74 44.1173 114.799 43.8587 114.937 43.6403C115.255 43.0534 116.074 43.1215 116.576 43.4387L118.081 44.561C118.313 44.7342 118.498 44.9621 118.621 45.2245C118.744 45.4868 118.8 45.7755 118.784 46.0647C118.65 48.568 118.144 55.0985 116.542 54.0839L112.597 51.5917C112.368 51.4393 112.197 51.2151 112.111 50.9545C112.024 50.6939 112.027 50.4118 112.118 50.1528Z" fill="#E98862"/>
<path d="M113.062 50.6078C112.724 50.608 112.399 50.4769 112.156 50.2422L106.677 44.9724C106.551 44.8537 106.45 44.7113 106.38 44.5533C106.31 44.3953 106.271 44.225 106.267 44.052C106.263 43.8791 106.293 43.707 106.355 43.5458C106.418 43.3846 106.512 43.2374 106.632 43.1127C106.751 42.9879 106.895 42.8882 107.053 42.8193C107.212 42.7503 107.382 42.7135 107.555 42.7109C107.728 42.7083 107.9 42.74 108.06 42.8042C108.221 42.8684 108.367 42.9638 108.491 43.0848L113.04 47.4603L124.444 35.9465C124.565 35.8243 124.708 35.7272 124.867 35.6607C125.025 35.5942 125.195 35.5595 125.367 35.5587C125.539 35.5579 125.709 35.591 125.868 35.6561C126.027 35.7212 126.172 35.8169 126.294 35.938C126.416 36.059 126.513 36.2029 126.58 36.3614C126.646 36.52 126.681 36.6901 126.682 36.862C126.682 37.0339 126.649 37.2043 126.584 37.3635C126.519 37.5226 126.424 37.6674 126.303 37.7896L113.992 50.2192C113.87 50.3424 113.726 50.4402 113.566 50.5069C113.406 50.5736 113.235 50.6079 113.062 50.6078Z" fill="#0CBC8B"/>
<path d="M109.292 47.4118C109.32 47.2212 109.386 47.0381 109.486 46.8738C109.587 46.7095 109.72 46.5674 109.877 46.4562C110.034 46.345 110.212 46.267 110.4 46.2269C110.589 46.1869 110.783 46.1857 110.972 46.2234C111.335 46.3091 111.652 46.5294 111.858 46.8397C112.065 47.15 112.147 47.5272 112.086 47.8953L112.047 49.9053C112.039 50.3305 112.186 50.744 112.462 51.0678C112.737 51.3916 113.121 51.6033 113.542 51.663C113.955 51.7215 114.374 51.63 114.725 51.4052C115.076 51.1804 115.334 50.8372 115.454 50.4378L116.478 47.0066L115.364 45.3416C115.754 44.7132 116.081 43.088 116.756 43.5721C117.328 43.9276 118.626 44.7871 118.981 45.6015C118.988 45.6048 119.652 52.5919 119.291 53.1745L116.092 61.7357C114.558 64.2075 107.152 62.2947 107.152 62.2947L109.292 47.4118Z" fill="#E98862"/>
<path d="M113.04 47.4603L124.444 35.9465C124.564 35.8243 124.708 35.7272 124.867 35.6607C125.025 35.5942 125.195 35.5595 125.367 35.5587C125.539 35.5579 125.709 35.591 125.868 35.6561C126.027 35.7212 126.172 35.8169 126.294 35.938C126.416 36.059 126.513 36.2029 126.58 36.3614C126.646 36.52 126.681 36.6901 126.682 36.862C126.682 37.0339 126.649 37.2043 126.584 37.3635C126.519 37.5226 126.423 37.6674 126.303 37.7896L113.992 50.2192" fill="#0CBC8B"/>
<path d="M54.8397 106.969L100.991 103.082C104.389 103.172 107.348 100.345 108.594 97.1725L120.685 59.2507L104.868 53.0292L94.1948 85.5126L53.6064 88.355L54.8397 106.969Z" fill="#367CFF"/>
<path d="M28.0427 285.515C28.0427 285.515 29.5196 293.174 36.6876 293.602C43.8556 294.03 42.3012 299.742 42.3012 299.742H14.9091V286.048L28.0427 285.515Z" fill="#367CFF"/>
<path d="M19.594 145.774C19.594 145.774 19.68 143.472 19.6617 148.695C19.594 168.18 19.2561 190.436 18.4305 203.46C17.1034 224.396 13.7004 290.403 13.7004 290.403L31.7001 290.252L49.1456 144.983L19.594 145.774Z" fill="#262626"/>
<path d="M39.9204 168.751C39.9204 168.751 40.6662 182.891 40.8036 186.211C41.1235 193.888 41.2347 201.836 41.2347 210.848L44.0728 187.223C44.0728 187.223 41.9966 179.819 39.9204 168.751Z" fill="#0A0A0A"/>
<path d="M60.0869 285.515C60.0869 285.515 61.5638 293.174 68.7318 293.602C75.8998 294.03 74.3454 299.742 74.3454 299.742H46.9534V286.048L60.0869 285.515Z" fill="#367CFF"/>
<path d="M68.8021 147.288C68.8021 147.288 70.3965 213.881 70.1629 217.136L63.4692 289.898L45.7669 290.225L47.4921 214.503C47.4921 214.503 46.2752 193.616 41.2315 174.22C38.6509 164.265 37.0978 154.072 36.5966 143.8L68.8021 147.288Z" fill="#262626"/>
<path d="M19.3977 145.773L19.3389 145.776C19.3389 145.776 19.3817 144.639 19.3977 145.773Z" fill="#333333"/>
<path d="M71.336 112.288C70.965 116.652 69.159 141.913 68.8022 147.288H19.6137C19.3359 142.44 18.088 121.241 17.0344 111.762C16.0285 102.715 14.055 98.1862 15.5015 95.5118C17.8652 91.1408 24.3244 88.6153 28.7286 88.0186C31.4182 87.6543 54.3468 87.3925 54.4017 87.3925C56.2028 87.3925 66.69 88.2395 69.0082 90.026C73.2028 93.2585 71.9843 104.678 71.336 112.288Z" fill="#367CFF"/>
<path d="M72.0153 105.651C72.0571 105.651 72.0974 105.635 72.1278 105.606C72.1582 105.578 72.1765 105.538 72.1789 105.497L72.5757 99.2218C72.5782 99.1785 72.5634 99.136 72.5346 99.1036C72.5057 99.0712 72.4652 99.0515 72.4219 99.049C72.3788 99.047 72.3366 99.062 72.3043 99.0907C72.272 99.1195 72.2523 99.1597 72.2492 99.2028L71.8524 105.478C71.8499 105.521 71.8647 105.564 71.8936 105.596C71.9224 105.628 71.9629 105.648 72.0062 105.651L72.0153 105.651Z" fill="#0C0C0C"/>
<path d="M8.97922 147.002C7.53264 147.002 6.10758 146.652 4.82531 145.982C3.54303 145.312 2.44149 144.341 1.61441 143.154C0.787328 141.966 0.259187 140.596 0.0749247 139.161C-0.109338 137.725 0.0557313 136.266 0.556087 134.908C1.06278 133.529 12.9762 101.962 15.2434 96.113L32.037 102.921C30.7613 106.21 26.1415 118.675 22.4294 128.717L28.5961 128.046L30.5372 145.913L9.95042 146.949C9.62788 146.984 9.30367 147.002 8.97922 147.002Z" fill="#367CFF"/>
<path d="M60.2619 86.7953C60.2069 86.7881 58.6979 92.4696 46.9229 91.5852C38.7713 90.9741 36.7824 85.4223 36.5966 85.4223C37.4756 85.2354 38.9031 85.0413 39.2933 84.8331C40.5769 84.1428 41.5121 83.3029 41.9825 81.4998C42.3505 80.09 42.5386 74.6622 42.5386 71.939L55.0824 74.7594C54.9074 77.8312 53.6836 84.9529 57.9727 86.2134C58.6862 86.4216 59.4549 86.613 60.2619 86.7953Z" fill="#E98862"/>
<path d="M54.648 80.7984C49.703 81.1889 43.3505 79.0996 42.1438 72.4981L41.0552 66.541C39.8485 59.9394 42.3355 53.9535 48.5477 52.8168C54.7595 51.68 60.381 56.1822 61.5873 62.7838L62.0695 65.4209C62.5324 67.9543 63.4709 80.1019 54.648 80.7984Z" fill="#E98862"/>
<path d="M59.2331 74.7372C58.3457 70.2746 57.9384 67.2971 57.9859 64.1562C59.2361 61.9632 58.9073 59.4429 58.6231 58.3549C59.4842 58.902 60.4965 59.1617 61.5144 59.0966C61.5144 59.0966 59.4467 50.7933 52.4191 48.5591C51.1267 48.056 47.8271 47.4204 43.4461 48.0217C39.7199 48.5329 30.5346 51.3206 29.2222 61.668V61.6739C29.1791 62.0172 28.2972 71.5508 26.5399 76.125C24.1765 82.2739 20.858 84.1844 20.9421 91.2796C21.0503 100.405 37.8171 101.62 47.9288 100.938C58.0405 100.255 63.6871 96.9277 63.761 90.351C63.8415 82.9816 61.0094 83.666 59.2331 74.7372Z" fill="#0A0A0A"/>
<path d="M18.5664 111.944L18.2395 111.955L19.4481 147.293L19.775 147.282L18.5664 111.944Z" fill="#0C0C0C"/>
<path d="M312.553 299.972H4.93021C4.86948 299.972 4.81124 299.948 4.7683 299.905C4.72536 299.862 4.70123 299.804 4.70123 299.743C4.70123 299.682 4.72536 299.624 4.7683 299.581C4.81124 299.538 4.86948 299.514 4.93021 299.514H312.553C312.613 299.514 312.672 299.538 312.715 299.581C312.757 299.624 312.782 299.682 312.782 299.743C312.782 299.804 312.757 299.862 312.715 299.905C312.672 299.948 312.613 299.972 312.553 299.972Z" fill="#292A2E"/>
<path d="M280.8 257.076C280.713 257.076 280.63 257.041 280.569 256.98C280.108 256.519 279.357 248.058 277.333 222.866C276.505 212.558 275.723 202.823 275.152 196.905C275.111 196.483 274.948 196.434 274.894 196.418C274.113 196.182 271.737 198.057 270.41 199.698C270.383 199.731 270.35 199.759 270.312 199.78C270.274 199.8 270.233 199.813 270.19 199.818C270.147 199.822 270.104 199.818 270.063 199.806C270.022 199.794 269.984 199.774 269.95 199.747C269.917 199.72 269.889 199.686 269.868 199.648C269.848 199.611 269.835 199.569 269.831 199.527C269.826 199.484 269.83 199.441 269.842 199.399C269.854 199.358 269.875 199.32 269.902 199.286C270.779 198.201 273.637 195.356 275.082 195.791C275.373 195.878 275.736 196.132 275.804 196.843C276.375 202.765 277.157 212.503 277.985 222.814C279.215 238.122 280.608 255.465 281.066 256.557C281.101 256.606 281.122 256.664 281.126 256.724C281.131 256.784 281.119 256.844 281.091 256.898C281.064 256.951 281.022 256.996 280.971 257.028C280.919 257.059 280.86 257.076 280.8 257.076Z" fill="#494949"/>
<path d="M274.312 207.763C279.74 203.409 281.539 196.633 278.33 192.627C275.121 188.622 268.12 188.904 262.692 193.258C257.264 197.611 255.465 204.388 258.673 208.393C261.882 212.399 268.884 212.117 274.312 207.763Z" fill="#0CBC8B"/>
<path opacity="0.2" d="M274.312 207.763C279.74 203.409 281.539 196.633 278.33 192.627C275.121 188.622 268.12 188.904 262.692 193.258C257.264 197.611 255.465 204.388 258.673 208.393C261.882 212.399 268.884 212.117 274.312 207.763Z" fill="white"/>
<path d="M260.195 209.412C260.164 209.412 260.134 209.403 260.108 209.386C260.081 209.37 260.06 209.346 260.047 209.318C260.034 209.29 260.029 209.259 260.033 209.228C260.037 209.197 260.05 209.168 260.069 209.144L275.539 190.478C275.553 190.461 275.569 190.447 275.588 190.436C275.608 190.426 275.628 190.419 275.65 190.417C275.672 190.415 275.694 190.417 275.714 190.424C275.735 190.43 275.754 190.44 275.771 190.454C275.788 190.468 275.802 190.485 275.812 190.504C275.822 190.524 275.828 190.545 275.83 190.566C275.831 190.588 275.829 190.61 275.822 190.631C275.815 190.651 275.805 190.67 275.79 190.687L260.321 209.353C260.306 209.372 260.286 209.386 260.265 209.397C260.243 209.407 260.219 209.412 260.195 209.412Z" fill="white"/>
<path d="M284.174 253.074C284.122 253.074 284.07 253.062 284.024 253.038C283.978 253.014 283.938 252.979 283.907 252.936C283.877 252.894 283.858 252.845 283.85 252.793C283.843 252.741 283.848 252.688 283.865 252.639L289.676 235.918C289.847 235.426 290.138 234.986 290.524 234.637C290.909 234.287 291.376 234.04 291.881 233.918C292.387 233.796 292.915 233.803 293.417 233.938C293.919 234.073 294.379 234.332 294.755 234.691L297.827 237.629C297.89 237.689 297.926 237.771 297.928 237.858C297.93 237.945 297.898 238.029 297.838 238.091C297.778 238.154 297.695 238.191 297.609 238.193C297.522 238.194 297.438 238.162 297.375 238.102L294.303 235.166C294.006 234.882 293.643 234.678 293.247 234.571C292.85 234.465 292.434 234.459 292.035 234.556C291.636 234.652 291.267 234.847 290.963 235.123C290.659 235.398 290.429 235.746 290.294 236.134L284.483 252.854C284.461 252.918 284.419 252.974 284.364 253.013C284.308 253.053 284.242 253.074 284.174 253.074Z" fill="#494949"/>
<path d="M306.411 246.886C310.433 243.7 310.194 236.692 305.877 231.234C301.559 225.776 294.798 223.935 290.775 227.121C286.752 230.307 286.992 237.314 291.309 242.772C295.627 248.23 302.388 250.072 306.411 246.886Z" fill="#0CBC8B"/>
<path d="M278.16 256.01C278.087 256.01 278.015 255.985 277.958 255.939C277.9 255.893 277.859 255.83 277.842 255.758L268.091 214.961C268.024 214.683 267.882 214.428 267.681 214.226C267.479 214.023 267.225 213.88 266.948 213.812C266.67 213.744 266.379 213.755 266.107 213.842C265.834 213.929 265.591 214.09 265.404 214.306L262.399 217.782C262.342 217.847 262.261 217.888 262.175 217.894C262.088 217.9 262.003 217.872 261.937 217.815C261.871 217.758 261.831 217.678 261.825 217.591C261.818 217.505 261.847 217.419 261.904 217.353L264.91 213.878C265.176 213.57 265.521 213.342 265.908 213.218C266.295 213.095 266.708 213.08 267.103 213.177C267.498 213.273 267.858 213.477 268.145 213.765C268.431 214.053 268.633 214.414 268.727 214.81L278.479 255.607C278.49 255.655 278.491 255.706 278.48 255.754C278.469 255.802 278.448 255.848 278.417 255.886C278.387 255.925 278.348 255.957 278.303 255.978C278.258 256 278.21 256.011 278.16 256.011V256.01Z" fill="#494949"/>
<path d="M274.37 226.851C275.553 219.995 272.415 213.729 267.362 212.856C262.308 211.984 257.253 216.834 256.07 223.691C254.888 230.547 258.025 236.813 263.079 237.686C268.132 238.559 273.188 233.708 274.37 226.851Z" fill="#0CBC8B"/>
<path d="M280.801 257.076C280.787 257.076 280.773 257.075 280.76 257.073C280.717 257.068 280.676 257.054 280.639 257.033C280.601 257.012 280.569 256.984 280.542 256.95C280.516 256.916 280.496 256.877 280.485 256.836C280.473 256.794 280.47 256.751 280.475 256.708L286.702 206.12C286.77 205.569 286.995 205.049 287.351 204.623C287.707 204.197 288.179 203.883 288.709 203.719C289.239 203.555 289.805 203.547 290.339 203.697C290.874 203.847 291.353 204.148 291.721 204.564L298.838 212.63C298.895 212.695 298.925 212.781 298.919 212.867C298.914 212.954 298.874 213.035 298.809 213.093C298.744 213.15 298.659 213.179 298.572 213.174C298.486 213.169 298.405 213.129 298.347 213.064L291.23 204.998C290.946 204.676 290.575 204.443 290.162 204.327C289.75 204.212 289.312 204.217 288.902 204.344C288.493 204.471 288.128 204.714 287.853 205.043C287.578 205.372 287.404 205.774 287.351 206.2L281.125 256.789C281.115 256.868 281.077 256.941 281.017 256.994C280.957 257.047 280.88 257.076 280.801 257.076Z" fill="#494949"/>
<path d="M306.138 217.113C308.621 212.621 305.699 206.248 299.612 202.879C293.524 199.509 286.576 200.42 284.093 204.912C281.61 209.404 284.532 215.777 290.619 219.146C296.707 222.515 303.654 221.605 306.138 217.113Z" fill="#0CBC8B"/>
<path opacity="0.2" d="M306.411 246.886C310.433 243.7 310.194 236.692 305.877 231.234C301.559 225.776 294.798 223.935 290.775 227.121C286.752 230.307 286.992 237.314 291.309 242.772C295.627 248.23 302.388 250.072 306.411 246.886Z" fill="white"/>
<path opacity="0.5" d="M274.37 226.851C275.553 219.995 272.415 213.729 267.362 212.856C262.308 211.984 257.253 216.834 256.07 223.691C254.888 230.547 258.025 236.813 263.079 237.686C268.132 238.559 273.188 233.708 274.37 226.851Z" fill="white"/>
<path opacity="0.5" d="M306.138 217.113C308.621 212.621 305.699 206.248 299.612 202.879C293.524 199.509 286.576 200.42 284.093 204.912C281.61 209.404 284.532 215.777 290.619 219.146C296.707 222.515 303.654 221.605 306.138 217.113Z" fill="white"/>
<path d="M288.765 300H272.835L270.196 249.003H291.404L288.765 300Z" fill="#292A2E"/>
<path opacity="0.3" d="M288.765 300H272.835L270.196 249.003H291.404L288.765 300Z" fill="white"/>
<path d="M306.411 247.047C306.386 247.047 306.362 247.042 306.339 247.031C306.317 247.02 306.298 247.005 306.282 246.985L290.646 227.22C290.619 227.186 290.607 227.143 290.612 227.1C290.617 227.056 290.639 227.017 290.673 226.99C290.707 226.963 290.751 226.951 290.794 226.956C290.837 226.961 290.876 226.983 290.903 227.017L306.539 246.782C306.558 246.806 306.57 246.835 306.573 246.866C306.577 246.896 306.572 246.927 306.558 246.955C306.545 246.983 306.524 247.006 306.498 247.022C306.472 247.039 306.442 247.047 306.411 247.047Z" fill="white"/>
<path d="M305.097 218.697C305.063 218.696 305.029 218.685 305.001 218.664L284.993 204.046C284.976 204.034 284.961 204.018 284.95 203.999C284.939 203.981 284.931 203.961 284.928 203.939C284.925 203.918 284.926 203.897 284.931 203.876C284.936 203.855 284.945 203.835 284.958 203.818C284.97 203.8 284.986 203.786 285.005 203.774C285.023 203.763 285.043 203.756 285.064 203.752C285.086 203.749 285.107 203.75 285.128 203.755C285.149 203.76 285.169 203.769 285.186 203.782L305.196 218.401C305.223 218.421 305.243 218.45 305.254 218.483C305.264 218.516 305.263 218.551 305.253 218.583C305.242 218.616 305.221 218.644 305.193 218.664C305.165 218.685 305.132 218.695 305.097 218.695V218.697Z" fill="white"/>
<path d="M262.451 237.467C262.436 237.467 262.422 237.465 262.408 237.462C262.366 237.451 262.331 237.423 262.309 237.386C262.287 237.348 262.281 237.303 262.293 237.261L268.662 213.383C268.667 213.362 268.677 213.342 268.69 213.325C268.703 213.307 268.719 213.293 268.738 213.282C268.756 213.271 268.777 213.263 268.799 213.26C268.82 213.257 268.842 213.259 268.863 213.264C268.884 213.27 268.904 213.28 268.921 213.293C268.938 213.306 268.952 213.323 268.963 213.342C268.974 213.361 268.981 213.382 268.983 213.403C268.986 213.425 268.984 213.447 268.978 213.467L262.609 237.346C262.599 237.381 262.579 237.411 262.55 237.433C262.522 237.455 262.487 237.467 262.451 237.467Z" fill="white"/>
</g>
<defs>
<clipPath id="clip0_306_2445">
<rect width="320" height="300" fill="white"/>
</clipPath>
</defs>
</svg>
