<svg width="259" height="341" viewBox="0 0 259 341" fill="none" xmlns="http://www.w3.org/2000/svg">
<g clip-path="url(#clip0_306_6440)">
<path d="M129.5 341C201.021 341 259 283.216 259 211.935C259 140.655 201.021 82.8705 129.5 82.8705C57.9792 82.8705 0 140.655 0 211.935C0 283.216 57.9792 341 129.5 341Z" fill="#367CFF"/>
<path opacity="0.86" d="M129.5 341C201.021 341 259 283.216 259 211.935C259 140.655 201.021 82.8705 129.5 82.8705C57.9792 82.8705 0 140.655 0 211.935C0 283.216 57.9792 341 129.5 341Z" fill="white"/>
<path opacity="0.1" d="M61.3256 213.92L88.3201 252.213L43.1855 259.697L28.0685 239.367L61.3256 213.92Z" fill="#367CFF"/>
<path opacity="0.1" d="M235.168 155.035L217.028 139.982L196.872 168.409L203.177 175.679L235.168 155.035Z" fill="#367CFF"/>
<path opacity="0.1" d="M49.7361 168.409L66.4173 155.998L80.4865 178.782L64.2526 187.281L49.7361 168.409Z" fill="#367CFF"/>
<path opacity="0.1" d="M148.184 306.048L167.38 290.479L179.236 306.048L157.858 320.611L148.184 306.048Z" fill="#367CFF"/>
<path opacity="0.1" d="M71.3291 193.555L88.7494 180.87L102.644 199.079L95.0863 206.773L106.344 221.247L116.753 213.92L128.883 229.211L106.344 245.784L71.3291 193.555Z" fill="#367CFF"/>
<path d="M258.809 218.985L193.934 262.761L223.818 300.373C222.929 301.319 222.025 302.248 221.105 303.163L190.779 264.994L138.087 304.142L161.425 337.048C160.081 337.391 158.729 337.709 157.368 338.002L133.846 304.831L100.842 258.962L43.0614 270.564L47.6844 311.979C46.2249 310.794 44.7941 309.578 43.3919 308.33L39.0952 269.833L0.721122 225.59C0.489332 223.442 0.314775 221.279 0.197449 219.1L41.6707 266.919L98.3691 255.532L18.7909 144.941C19.512 143.756 20.2532 142.584 21.0143 141.425L102.523 254.697L102.969 254.607L162.428 212.91L120.311 158.417L126.393 82.9107C127.427 82.885 128.463 82.8722 129.501 82.8722C129.758 82.8722 130.016 82.8722 130.273 82.8765L124.281 157.245L165.591 210.69L245.554 154.614C246.138 155.778 246.702 156.953 247.246 158.139L104.879 257.974L135.845 301.006L191.479 259.673L191.53 259.738L258.977 214.224C258.951 215.819 258.895 217.402 258.809 218.985Z" fill="white"/>
<path d="M129.497 5.4856C88.7352 5.4856 55.8228 38.3217 55.8228 78.8222C55.8228 91.5573 60.6732 105.902 64.8115 113.979C78.3961 140.51 128.678 214.694 128.678 214.694C128.763 214.836 128.884 214.953 129.028 215.034C129.172 215.116 129.335 215.159 129.5 215.159C129.666 215.159 129.829 215.116 129.973 215.034C130.117 214.953 130.237 214.836 130.322 214.694C130.322 214.694 180.604 140.51 194.188 113.979C198.325 105.9 203.177 91.5573 203.177 78.8222C203.177 38.32 170.264 5.4856 129.503 5.4856H129.497Z" fill="#367CFF"/>
<path opacity="0.12" d="M129.497 5.4856C88.7352 5.4856 55.8228 38.3217 55.8228 78.8222C55.8228 91.5573 60.6732 105.902 64.8115 113.979C78.3961 140.51 128.678 214.694 128.678 214.694C128.763 214.836 128.884 214.953 129.028 215.034C129.172 215.116 129.335 215.159 129.5 215.159C129.666 215.159 129.829 215.116 129.973 215.034C130.117 214.953 130.237 214.836 130.322 214.694C130.322 214.694 180.604 140.51 194.188 113.979C198.325 105.9 203.177 91.5573 203.177 78.8222C203.177 38.32 170.264 5.4856 129.503 5.4856H129.497Z" fill="white"/>
<path d="M127.914 16.9866C128.443 16.9733 128.966 16.9866 129.498 16.9866C137.667 16.9867 145.754 18.6049 153.29 21.7473C160.825 24.8896 167.659 29.4934 173.394 35.291C179.129 41.0886 183.65 47.9644 186.696 55.5187C189.741 63.0731 191.249 71.1554 191.133 79.2958C190.669 112.383 163.574 139.389 130.374 139.847C114.112 140.037 98.4342 133.815 86.7541 122.537C75.0739 111.259 68.3381 95.8379 68.0136 79.6329C67.6891 63.4279 73.8021 47.7515 85.0214 36.0179C96.2407 24.2843 111.657 17.4439 127.914 16.9866Z" fill="white"/>
<path d="M148.184 0.973633C148.184 0.973633 166.017 1.19095 159.868 25.6841L158.194 25.7654L154.795 25.9305L148.184 0.973633Z" fill="#0C0C0C"/>
<path d="M128.272 51.3815C128.355 51.3738 128.683 66.6509 146.501 66.0092C158.836 65.5664 163.728 52.7308 164.01 52.7415C162.695 52.4095 160.478 51.9145 159.901 51.5787C158.004 50.4664 155.651 49.2947 155.172 45.5224C154.896 43.3479 155.937 32.3188 155.834 30.1255L136.791 33.5954C136.875 38.222 138.305 48.9961 131.76 50.6397C130.671 50.9113 129.502 51.1548 128.272 51.3815Z" fill="#E98862"/>
<path opacity="0.52" d="M136.026 46.4242C136.359 45.4859 136.588 44.514 136.708 43.5259C137.004 41.2722 137.051 38.993 136.849 36.7291C140.707 36.3614 144.383 34.9227 147.461 32.5764C147.761 33.8803 149.47 39.5923 148.888 40.7987C147.788 43.0793 142.9 46.6903 136.026 46.4242Z" fill="#0C0C0C"/>
<path d="M140.349 43.7252C147.814 43.1943 156.82 38.6631 157.133 28.5833L157.415 19.4879C157.727 9.4081 152.669 1.07288 143.146 0.778988C133.623 0.485518 126.252 8.43657 125.939 18.5176L125.814 22.5441C125.796 23.9273 125.871 25.3101 126.041 26.683C126.464 30.315 127.12 35.8379 129.518 39.6089C131.785 43.1691 135.58 44.0632 140.349 43.7252Z" fill="#E98862"/>
<path d="M156.446 31.6357C159.34 31.7251 161.781 28.7117 161.871 25.8275C161.961 22.9432 159.664 21.2804 156.77 21.1914L155.219 23.078L153.957 31.5591L156.446 31.6357Z" fill="#E98862"/>
<path d="M126.429 29.7268C126.952 30.3446 127.621 30.8224 128.377 31.1165C129.132 31.4106 129.949 31.5117 130.754 31.4106C132.474 31.1967 133.616 31.8987 135.053 31.7571C136.259 31.6386 136.469 31.0837 138.526 30.9622C146.472 30.4917 152.433 29.9941 152.822 20.0564L157.878 15.5803C157.878 15.5803 160.138 43.1181 145.193 46.7788C136.01 49.0281 127.396 48.2051 126.289 39.6089C125.389 32.6242 126.429 29.7268 126.429 29.7268Z" fill="#0C0C0C"/>
<path d="M130.193 23.9763C130.842 23.9763 131.367 23.4526 131.367 22.8067C131.367 22.1607 130.842 21.6371 130.193 21.6371C129.545 21.6371 129.02 22.1607 129.02 22.8067C129.02 23.4526 129.545 23.9763 130.193 23.9763Z" fill="#0C0C0C"/>
<path d="M140.676 23.7581C141.324 23.7581 141.85 23.2345 141.85 22.5885C141.85 21.9426 141.324 21.4189 140.676 21.4189C140.028 21.4189 139.503 21.9426 139.503 22.5885C139.503 23.2345 140.028 23.7581 140.676 23.7581Z" fill="#0C0C0C"/>
<path d="M153.651 26.9479C153.651 26.9479 152.934 12.6637 148.609 11.7037C145.729 11.0646 138.644 15.0243 132.174 13.6716C129.341 13.0804 126.633 13.7319 126.336 15.0645C126.217 15.592 123.975 10.9123 128.531 5.21786C132.157 0.6832 143.948 -0.59121 149.194 1.01218C163.717 5.45229 157.355 21.8305 157.355 21.8305L156.614 26.7374L153.651 26.9479Z" fill="#0C0C0C"/>
<path d="M160.251 15.4298C164.527 15.4298 167.992 11.9757 167.992 7.71491C167.992 3.45408 164.527 0 160.251 0C155.976 0 152.51 3.45408 152.51 7.71491C152.51 11.9757 155.976 15.4298 160.251 15.4298Z" fill="#0C0C0C"/>
<path d="M135.195 31.2986H135.176C134.244 31.2725 132.682 31.1249 132.701 30.4293C132.718 29.8531 134.477 23.6787 134.676 22.9767C134.683 22.9453 134.696 22.9156 134.715 22.8896C134.734 22.8635 134.758 22.8416 134.786 22.8251C134.814 22.8087 134.844 22.798 134.876 22.7938C134.908 22.7896 134.941 22.7919 134.972 22.8006C135.003 22.8094 135.032 22.8243 135.057 22.8445C135.082 22.8648 135.103 22.8899 135.118 22.9184C135.133 22.9469 135.142 22.9781 135.145 23.0102C135.147 23.0423 135.143 23.0745 135.133 23.105C134.352 25.839 133.188 30.0511 133.176 30.4426C133.262 30.6094 134.224 30.7981 135.189 30.8255C135.252 30.8247 135.313 30.8489 135.358 30.8928C135.403 30.9366 135.429 30.9965 135.429 31.0593C135.43 31.122 135.406 31.1825 135.362 31.2274C135.318 31.2722 135.258 31.2979 135.195 31.2986Z" fill="#0C0C0C"/>
<path d="M132.354 18.8334C131.39 18.5479 130.367 18.5268 129.392 18.7722C128.913 18.8898 128.454 19.0784 128.031 19.3318C127.612 19.5804 127.226 19.8807 126.882 20.2254C126.853 20.2518 126.829 20.2837 126.812 20.3193C126.794 20.3549 126.784 20.3935 126.782 20.4329C126.78 20.4723 126.786 20.5118 126.799 20.5491C126.812 20.5863 126.832 20.6206 126.859 20.65C126.885 20.6794 126.917 20.7034 126.953 20.7205C126.989 20.7376 127.027 20.7475 127.067 20.7496C127.107 20.7518 127.146 20.7462 127.184 20.7331C127.221 20.72 127.255 20.6997 127.285 20.6733L127.303 20.6579C127.624 20.3702 127.979 20.1237 128.361 19.9243C128.737 19.7256 129.141 19.5849 129.559 19.5067C130.385 19.3456 131.238 19.4047 132.034 19.6779L132.064 19.689C132.177 19.7303 132.302 19.7252 132.411 19.6749C132.52 19.6245 132.604 19.533 132.646 19.4205C132.687 19.308 132.682 19.1838 132.632 19.075C132.581 18.9663 132.489 18.882 132.377 18.8407L132.354 18.8334Z" fill="#0C0C0C"/>
<path d="M139.269 19.6813C140.034 19.3316 140.878 19.1898 141.716 19.2701C142.14 19.3075 142.556 19.4085 142.95 19.5696C143.349 19.7313 143.727 19.9422 144.073 20.1976L144.093 20.2104C144.125 20.2338 144.161 20.2508 144.199 20.2602C144.238 20.2697 144.278 20.2715 144.317 20.2656C144.356 20.2597 144.393 20.2461 144.427 20.2257C144.461 20.2053 144.491 20.1785 144.514 20.1467C144.538 20.1149 144.555 20.0789 144.564 20.0406C144.574 20.0023 144.575 19.9625 144.57 19.9234C144.564 19.8844 144.55 19.847 144.53 19.8132C144.509 19.7794 144.482 19.75 144.45 19.7266C144.075 19.4165 143.661 19.1549 143.22 18.948C142.774 18.7368 142.299 18.5935 141.81 18.5228C140.817 18.3731 139.801 18.4931 138.87 18.8702C138.815 18.8929 138.765 18.9262 138.723 18.9682C138.681 19.0102 138.648 19.0601 138.625 19.1149C138.602 19.1697 138.591 19.2285 138.591 19.2878C138.591 19.3472 138.602 19.4059 138.625 19.4607C138.648 19.5155 138.681 19.5653 138.724 19.6072C138.766 19.6492 138.816 19.6824 138.871 19.7051C138.926 19.7277 138.985 19.7394 139.044 19.7393C139.104 19.7393 139.163 19.7275 139.218 19.7048L139.24 19.6954L139.269 19.6813Z" fill="#0C0C0C"/>
<path d="M87.8093 51.796L88.3184 39.2342C88.3295 38.9582 88.2829 38.6829 88.1814 38.4259C88.0799 38.1688 87.9259 37.9357 87.729 37.7412C87.5322 37.5468 87.2969 37.3953 87.0381 37.2964C86.7793 37.1976 86.5027 37.1535 86.2259 37.167C85.7154 37.2078 85.2383 37.4361 84.8872 37.8076C84.536 38.1791 84.3359 38.6674 84.3256 39.1777L84.2166 41.8728L80.6586 33.2429C80.28 32.2769 79.1949 31.3327 78.1355 31.8277C77.7158 31.992 77.3642 32.2931 77.1382 32.682C76.9121 33.0709 76.8249 33.5246 76.8907 33.9693C76.8807 33.9705 76.8708 33.9727 76.8611 33.9757C76.8538 33.9791 76.8487 33.9847 76.8418 33.9885L76.258 32.4989C76.1498 32.2229 75.9811 31.9745 75.7643 31.7717C75.5475 31.5689 75.288 31.4169 75.0048 31.3268C74.7216 31.2366 74.4218 31.2105 74.1271 31.2505C73.8325 31.2905 73.5506 31.3954 73.3019 31.5578C72.9155 31.8213 72.6317 32.2091 72.498 32.6563C72.3642 33.1034 72.3886 33.5828 72.567 34.0142L72.8138 34.6516C72.7987 34.6671 72.7865 34.6852 72.7778 34.7051C72.5102 34.3156 72.1123 34.0337 71.6554 33.9098C71.1984 33.7859 70.7121 33.8281 70.2834 34.0287C69.8208 34.2621 69.4635 34.6607 69.2827 35.145C69.1019 35.6293 69.111 36.1638 69.3082 36.6417L69.9259 38.216C69.9013 38.1999 69.8734 38.1899 69.8442 38.1867C69.815 38.1835 69.7855 38.1873 69.758 38.1976C69.7262 38.2118 69.6991 38.2348 69.6799 38.2639C69.3449 37.9831 68.9267 37.8197 68.4894 37.7989C68.0522 37.7781 67.6202 37.9011 67.2599 38.1488C66.8865 38.4166 66.6149 38.8022 66.489 39.2431C66.3631 39.684 66.3903 40.1543 66.5662 40.5779L71.7755 53.8636C72.5044 55.7221 73.7735 57.3213 75.4203 58.4563C77.067 59.5912 79.0163 60.2102 81.0183 60.2339C82.7446 60.2543 84.4109 59.603 85.6631 58.4186C86.9154 57.2341 87.655 55.6097 87.7248 53.8905L87.8093 51.796Z" fill="#E98862"/>
<g opacity="0.2">
<path d="M80.368 42.5261C80.3231 42.5432 80.2733 42.5421 80.2292 42.5231C80.1851 42.5041 80.1502 42.4686 80.132 42.4243L76.759 34.2153C76.7495 34.1929 76.7445 34.1689 76.7444 34.1446C76.7443 34.1203 76.749 34.0962 76.7583 34.0738C76.7676 34.0513 76.7813 34.031 76.7985 34.0138C76.8158 33.9967 76.8363 33.9831 76.8588 33.9739C76.8814 33.9647 76.9055 33.96 76.9299 33.9602C76.9542 33.9604 76.9783 33.9654 77.0007 33.9749C77.0232 33.9844 77.0435 33.9983 77.0605 34.0157C77.0775 34.0331 77.0908 34.0536 77.0998 34.0762L80.4728 42.2852C80.482 42.3076 80.4866 42.3315 80.4865 42.3556C80.4864 42.3797 80.4816 42.4036 80.4722 42.4259C80.4628 42.4481 80.4491 42.4683 80.4319 42.4853C80.4147 42.5023 80.3943 42.5157 80.3719 42.5248L80.368 42.5261Z" fill="#0C0C0C"/>
</g>
<g opacity="0.2">
<path d="M76.7766 44.1084C76.7317 44.1255 76.6818 44.1245 76.6377 44.1054C76.5936 44.0864 76.5587 44.051 76.5405 44.0066L72.776 34.8453C72.7669 34.8231 72.7622 34.7992 72.7622 34.7751C72.7623 34.751 72.7672 34.7272 72.7765 34.705C72.7858 34.6828 72.7995 34.6626 72.8166 34.6457C72.8338 34.6287 72.8541 34.6153 72.8765 34.6062C72.9218 34.5894 72.9719 34.5903 73.0165 34.6089C73.0611 34.6275 73.097 34.6623 73.1169 34.7063L76.8813 43.8676C76.8997 43.9127 76.8995 43.9633 76.8806 44.0082C76.8616 44.0531 76.8256 44.0887 76.7804 44.1072L76.7766 44.1084Z" fill="#0C0C0C"/>
</g>
<g opacity="0.2">
<path d="M72.8962 45.8449C72.8513 45.862 72.8015 45.861 72.7574 45.8419C72.7133 45.8229 72.6784 45.7874 72.6602 45.7431L69.6555 38.4355C69.6463 38.4131 69.6416 38.3892 69.6418 38.3651C69.6419 38.341 69.6468 38.3171 69.6561 38.2949C69.6655 38.2726 69.6792 38.2524 69.6963 38.2355C69.7135 38.2185 69.7339 38.205 69.7563 38.1959C69.7787 38.1868 69.8027 38.1821 69.8269 38.1823C69.8511 38.1824 69.8751 38.1872 69.8974 38.1966C69.9197 38.2059 69.94 38.2195 69.957 38.2367C69.9741 38.2538 69.9876 38.2741 69.9967 38.2964L73.0014 45.6041C73.0199 45.6491 73.0196 45.6996 73.0008 45.7445C72.982 45.7894 72.9461 45.8251 72.901 45.8437L72.8962 45.8449Z" fill="#0C0C0C"/>
</g>
<path d="M133.128 33.8628C135.942 34.049 138.738 33.2953 141.073 31.7208C141.155 31.6673 141.249 31.6377 141.346 31.6356C141.444 31.6335 141.54 31.6589 141.623 31.7088C141.707 31.7588 141.774 31.8313 141.818 31.9179C141.862 32.0045 141.88 32.1017 141.87 32.1983C141.683 33.8551 140.861 36.9011 137.375 37.2891C135.123 37.5393 133.492 35.8162 132.67 34.6705C132.614 34.591 132.581 34.4973 132.576 34.4002C132.571 34.3031 132.594 34.2067 132.642 34.1221C132.69 34.0375 132.762 33.9682 132.848 33.9223C132.934 33.8764 133.031 33.8558 133.128 33.8628Z" fill="white"/>
<path d="M187.879 68.4225C186.189 63.6354 184.825 61.2483 183.089 59.3604C180.714 56.7765 177.141 54.2324 170.516 53.0778C166.469 52.3762 160.369 51.7448 160.369 51.7448C160.368 51.7555 160.367 51.7662 160.366 51.7768C160.295 52.4113 159.035 62.1723 147.063 62.2703C130.566 62.4076 131.75 51.1133 131.715 50.6517C131.718 50.6428 131.718 50.6368 131.715 50.6368C126.597 50.4383 113.837 50.324 108.698 55.334C108.16 55.8552 107.664 56.4182 107.214 57.0178L107.144 56.975L95.3653 75.023L92.4233 51.0577L87.8102 51.7944L72.8383 54.1853L71.9729 54.3227L66.6383 55.1783L68.4978 69.542L72.7589 102.472C76.9169 112.19 83.5141 120.679 91.9159 127.121C95.3927 122.231 101.145 113.795 107.117 104.953C107.211 104.813 107.305 104.673 107.401 104.532V104.535C107.401 104.632 107.404 104.731 107.407 104.831C107.422 105.462 107.439 106.178 107.454 106.967C107.595 114.213 107.739 127.495 107.856 135.963C118.487 139.931 130.012 140.89 141.156 138.734C152.3 136.577 162.628 131.39 170.997 123.745C171.056 123.695 171.112 123.643 171.169 123.587C171.28 123.488 171.392 123.386 171.5 123.283C177.226 117.961 181.89 111.608 185.249 104.559C188.96 96.7662 190.964 88.2761 191.13 79.6522V79.6492L187.879 68.4225Z" fill="#0CBC8B"/>
<path d="M171.498 123.281C171.389 123.383 171.278 123.486 171.166 123.585C171.111 123.641 171.055 123.693 170.994 123.743L167.812 107.605L167.809 107.588L163.26 84.5227L163.834 84.3738L171.498 123.281Z" fill="#0C0C0C"/>
<path d="M107.482 106.968C107.408 106.965 107.337 106.934 107.285 106.882C107.232 106.83 107.201 106.76 107.198 106.686L106.609 93.79C106.607 93.7512 106.613 93.7125 106.627 93.6759C106.64 93.6394 106.66 93.6059 106.686 93.5772C106.713 93.5485 106.744 93.5253 106.78 93.5088C106.815 93.4923 106.853 93.4829 106.892 93.4811C106.931 93.4794 106.97 93.4853 107.007 93.4985C107.043 93.5117 107.077 93.532 107.106 93.5581C107.134 93.5843 107.158 93.6159 107.174 93.651C107.191 93.6862 107.2 93.7243 107.202 93.7631L107.79 106.659C107.792 106.698 107.786 106.737 107.773 106.773C107.76 106.81 107.739 106.843 107.713 106.872C107.687 106.9 107.655 106.924 107.62 106.94C107.585 106.956 107.547 106.966 107.508 106.967C107.497 106.968 107.489 106.968 107.482 106.968Z" fill="#0C0C0C"/>
</g>
<defs>
<clipPath id="clip0_306_6440">
<rect width="259" height="341" fill="white"/>
</clipPath>
</defs>
</svg>
