<svg width="44" height="44" viewBox="0 0 44 44" fill="none" xmlns="http://www.w3.org/2000/svg">
<circle cx="22" cy="22" r="22" fill="#FFBE1C"/>
<path d="M13.62 18.49C15.59 9.83 28.42 9.84 30.38 18.5C31.53 23.58 28.37 27.88 25.6 30.54C24.632 31.4735 23.3397 31.9952 21.995 31.9952C20.6502 31.9952 19.3579 31.4735 18.39 30.54C15.63 27.88 12.47 23.57 13.62 18.49Z" fill="white"/>
<path d="M22 23.43C22.4097 23.43 22.8154 23.3493 23.194 23.1925C23.5725 23.0357 23.9165 22.8059 24.2062 22.5162C24.4959 22.2265 24.7257 21.8825 24.8825 21.504C25.0393 21.1254 25.12 20.7197 25.12 20.31C25.12 19.9003 25.0393 19.4946 24.8825 19.116C24.7257 18.7375 24.4959 18.3935 24.2062 18.1038C23.9165 17.8141 23.5725 17.5843 23.194 17.4275C22.8154 17.2707 22.4097 17.19 22 17.19C21.1725 17.19 20.3789 17.5187 19.7938 18.1038C19.2087 18.6889 18.88 19.4825 18.88 20.31C18.88 21.1375 19.2087 21.9311 19.7938 22.5162C20.3789 23.1013 21.1725 23.43 22 23.43Z" fill="#FFBE1C"/>
</svg>
