<svg width="312" height="302" viewBox="0 0 312 302" fill="none" xmlns="http://www.w3.org/2000/svg">
<g clip-path="url(#clip0_14_8462)">
<path d="M223.673 302C272.454 302 312 298.353 312 293.854C312 289.355 272.454 285.708 223.673 285.708C174.891 285.708 135.345 289.355 135.345 293.854C135.345 298.353 174.891 302 223.673 302Z" fill="white"/>
<path opacity="0.1" d="M223.673 302C272.454 302 312 298.353 312 293.854C312 289.355 272.454 285.708 223.673 285.708C174.891 285.708 135.345 289.355 135.345 293.854C135.345 298.353 174.891 302 223.673 302Z" fill="#292A2E"/>
<path d="M77.0453 172.715H48.8906V180.903H77.0453V172.715Z" fill="#F4F4F4"/>
<path opacity="0.05" d="M56.3606 172.715H52.6715V180.903H56.3606V172.715Z" fill="#292A2E"/>
<path d="M73.4477 174.495H58.1082V179.347H73.4477V174.495Z" fill="white"/>
<path d="M99.5025 173.783L73.342 162.363L70.0631 169.867L96.2236 181.287L99.5025 173.783Z" fill="#F4F4F4"/>
<path opacity="0.05" d="M99.5025 173.783L73.342 162.363L70.0631 169.867L96.2236 181.287L99.5025 173.783Z" fill="#292A2E"/>
<path d="M95.9895 172.25L92.5616 170.753L89.2827 178.257L92.7106 179.753L95.9895 172.25Z" fill="white"/>
<path d="M90.2248 171.675L75.972 165.454L74.029 169.9L88.2818 176.122L90.2248 171.675Z" fill="white"/>
<path opacity="0.05" d="M99.5516 276.438H92.4763V281.161H99.5516V276.438Z" fill="#292A2E"/>
<path opacity="0.05" d="M27.2139 276.438H20.1386V281.161H27.2139V276.438Z" fill="#292A2E"/>
<path d="M106.037 181.287H13.6532V276.278H106.037V181.287Z" fill="#F4F4F4"/>
<path opacity="0.03" d="M106.037 181.287H13.6532V276.278H106.037V181.287Z" fill="#292A2E"/>
<path d="M123.157 181.287H30.7733V276.278H123.157V181.287Z" fill="#F4F4F4"/>
<path opacity="0.05" d="M116.672 276.438H109.596V281.161H116.672V276.438Z" fill="#292A2E"/>
<path opacity="0.05" d="M44.3344 276.438H37.2591V281.161H44.3344V276.438Z" fill="#292A2E"/>
<path opacity="0.7" d="M119.69 185.736H34.2416V203.986H119.69V185.736Z" fill="white"/>
<path opacity="0.7" d="M119.69 208.452H34.2416V226.702H119.69V208.452Z" fill="white"/>
<path opacity="0.7" d="M119.69 231.169H34.2416V249.419H119.69V231.169Z" fill="white"/>
<path opacity="0.05" d="M76.9657 197.414C78.3767 197.414 79.5206 196.271 79.5206 194.861C79.5206 193.451 78.3767 192.307 76.9657 192.307C75.5547 192.307 74.4109 193.451 74.4109 194.861C74.4109 196.271 75.5547 197.414 76.9657 197.414Z" fill="#292A2E"/>
<path opacity="0.05" d="M76.9657 220.131C78.3767 220.131 79.5206 218.988 79.5206 217.577C79.5206 216.167 78.3767 215.024 76.9657 215.024C75.5547 215.024 74.4109 216.167 74.4109 217.577C74.4109 218.988 75.5547 220.131 76.9657 220.131Z" fill="#292A2E"/>
<path opacity="0.05" d="M76.9657 242.848C78.3767 242.848 79.5206 241.704 79.5206 240.294C79.5206 238.884 78.3767 237.741 76.9657 237.741C75.5547 237.741 74.4109 238.884 74.4109 240.294C74.4109 241.704 75.5547 242.848 76.9657 242.848Z" fill="#292A2E"/>
<path opacity="0.7" d="M119.69 254.398H34.2416V272.647H119.69V254.398Z" fill="white"/>
<path opacity="0.05" d="M76.9658 266.076C78.3768 266.076 79.5206 264.933 79.5206 263.522C79.5206 262.112 78.3768 260.969 76.9658 260.969C75.5548 260.969 74.4109 262.112 74.4109 263.522C74.4109 264.933 75.5548 266.076 76.9658 266.076Z" fill="#292A2E"/>
<path d="M46.4479 87.0041H101.075L101.075 15.937H46.4479L46.4479 87.0041Z" fill="#F4F4F4"/>
<path d="M46.4483 15.937H44.6761V87.0041H46.4483V15.937Z" fill="#F4F4F4"/>
<path opacity="0.05" d="M46.4483 15.937H44.6761V87.0041H46.4483V15.937Z" fill="#292A2E"/>
<path opacity="0.05" d="M56.3995 74.0582H91.1244V28.8825L56.3995 28.8825L56.3995 74.0582Z" fill="#292A2E"/>
<path opacity="0.03" d="M56.3995 74.0582H58.2091L58.2091 28.8825H56.3995L56.3995 74.0582Z" fill="#292A2E"/>
<path d="M1.77181 149.544H46.4479L46.4479 104.48H1.77181L1.77181 149.544Z" fill="#F4F4F4"/>
<path opacity="0.05" d="M9.91018 141.335H38.3095V112.69H9.91018L9.91018 141.335Z" fill="#292A2E"/>
<path d="M1.77216 104.481H0V149.544H1.77216V104.481Z" fill="#F4F4F4"/>
<path opacity="0.05" d="M1.77216 104.481H0V149.544H1.77216V104.481Z" fill="#292A2E"/>
<path opacity="0.03" d="M9.91019 141.335H11.7198L11.7198 112.69H9.91019L9.91019 141.335Z" fill="#292A2E"/>
<path d="M274.201 15.7677H160.202V129.707H274.201V15.7677Z" fill="#F4F4F4"/>
<path d="M160.202 15.7677H158.896V129.707H160.202V15.7677Z" fill="#F4F4F4"/>
<path opacity="0.05" d="M160.202 15.7677H158.896V129.707H160.202V15.7677Z" fill="#292A2E"/>
<path opacity="0.05" d="M187.819 94.2814V64.4709H212.251V81.7902H250.095V112.456H266.18V129.707H250.095H246.997H165.686V94.2814H187.819Z" fill="#292A2E"/>
<path opacity="0.34" d="M209.114 67.7076H191.323V70.9442H209.114V67.7076Z" fill="#FFFFFA"/>
<path opacity="0.34" d="M209.114 74.4149H191.323V77.6515H209.114V74.4149Z" fill="#FFFFFA"/>
<path opacity="0.34" d="M209.114 81.1222H191.323V84.3588H209.114V81.1222Z" fill="#FFFFFA"/>
<path opacity="0.34" d="M172.12 97.4231H168.841V100.66H172.12V97.4231Z" fill="#FFFFFA"/>
<path opacity="0.34" d="M172.12 104.13H168.841V107.367H172.12V104.13Z" fill="#FFFFFA"/>
<path opacity="0.34" d="M172.12 110.837H168.841V114.074H172.12V110.837Z" fill="#FFFFFA"/>
<path opacity="0.34" d="M178.187 97.4231H174.907V100.66H178.187V97.4231Z" fill="#FFFFFA"/>
<path opacity="0.34" d="M178.187 104.13H174.907V107.367H178.187V104.13Z" fill="#FFFFFA"/>
<path opacity="0.34" d="M178.187 110.837H174.907V114.074H178.187V110.837Z" fill="#FFFFFA"/>
<path opacity="0.34" d="M184.089 97.4231H180.81V100.66H184.089V97.4231Z" fill="#FFFFFA"/>
<path opacity="0.34" d="M184.089 104.13H180.81V107.367H184.089V104.13Z" fill="#FFFFFA"/>
<path opacity="0.34" d="M184.089 110.837H180.81V114.074H184.089V110.837Z" fill="#FFFFFA"/>
<path d="M160.202 72.0982H183.14V15.7674H185.038V72.0982H246.997V15.7674H248.894V72.0982H274.201V73.9941H248.894V129.707H246.997V73.9941H185.038V129.707H183.14V73.9941H160.202V72.0982Z" fill="white"/>
<path d="M278.742 129.57H155.661V133.359H278.742V129.57Z" fill="#F4F4F4"/>
<path opacity="0.1" d="M278.742 129.57H155.661V133.359H278.742V129.57Z" fill="#292A2E"/>
<path opacity="0.1" d="M155.661 129.57H153.884V133.359H155.661V129.57Z" fill="#292A2E"/>
<path opacity="0.1" d="M155.661 129.57H153.884V133.359H155.661V129.57Z" fill="#292A2E"/>
<path d="M254.653 149.089C237.2 149.089 223.052 153.848 223.052 159.718V172.372H286.254V159.718C286.254 153.848 272.105 149.089 254.653 149.089Z" fill="#367CFF"/>
<path opacity="0.49" d="M254.653 149.089C237.2 149.089 223.052 153.848 223.052 159.718V172.372H286.254V159.718C286.254 153.848 272.105 149.089 254.653 149.089Z" fill="white"/>
<path opacity="0.49" d="M277.645 159.72V172.372H223.051V159.72C223.051 154.339 234.933 149.893 250.348 149.19C265.764 149.893 277.645 154.339 277.645 159.72Z" fill="white"/>
<path d="M286.253 295.327H287.314L286.253 171.25L285.202 172.31L285.952 258.981L248.513 259.617L247.758 172.301L246.706 172.31L247.462 259.635L224.862 260.019L224.103 172.301L223.051 171.259L224.112 295.327L225.154 295.318L224.87 261.07L247.471 260.686L247.758 295.327L248.809 295.318L248.522 260.668L285.961 260.032L286.253 295.327Z" fill="#292A2E"/>
<path d="M190.934 276.751C190.934 276.751 189.055 286.487 179.934 287.03C170.813 287.573 172.79 294.835 172.79 294.835H207.646V277.43L190.934 276.751Z" fill="#367CFF"/>
<path d="M210.821 247.465C210.821 247.465 213.435 257.031 205.49 261.542C197.546 266.053 202.528 271.697 202.528 271.697L233.804 256.318L226.117 240.7L210.821 247.465Z" fill="#367CFF"/>
<path d="M207.512 253.787L183.945 164.914C182.158 155.096 184.849 150.84 188.996 146.706C196.281 139.442 226.471 123.983 226.471 123.983L262.688 123.885C272.292 123.885 281.732 133.349 281.732 142.947C281.732 152.546 271.97 160.686 262.366 160.686L217.767 165.135L229.857 246.51L207.512 253.787Z" fill="#262626"/>
<path d="M229.857 246.51L225.097 214.473L200.985 229.174L207.512 253.787L229.857 246.51Z" fill="#0C0C0C"/>
<path d="M235.322 141.968C235.322 141.968 220.097 145.359 205.018 160.43C195.876 169.568 196.626 186.103 197.997 217.907L212.973 195.798L229.4 166.188L235.322 141.968Z" fill="#0C0C0C"/>
<path d="M288.037 123.875L263.441 123.759L263.432 124.082H255.984C255.984 124.082 237.327 141.24 222.308 152.052C211.383 159.916 204.718 167.414 204.141 175.585C202.736 195.505 186.879 280.461 186.879 280.461L210.742 284.072L231.684 182.544C231.684 182.544 264.428 167.455 272.002 162.205C279.135 157.261 284.172 155.35 286.533 149.954C290.609 140.635 288.037 123.875 288.037 123.875Z" fill="#262626"/>
<path d="M260.443 130.067L220.542 130.595L242.924 143.956L261.549 134.344C261.998 134.103 262.353 133.719 262.557 133.252C262.761 132.786 262.803 132.264 262.675 131.772C262.548 131.279 262.259 130.843 261.854 130.534C261.449 130.225 260.952 130.06 260.443 130.067Z" fill="#292A2E"/>
<path opacity="0.2" d="M260.443 130.067L220.542 130.595L242.924 143.956L261.549 134.344C261.998 134.103 262.353 133.719 262.557 133.252C262.761 132.786 262.803 132.264 262.675 131.772C262.548 131.279 262.259 130.843 261.854 130.534C261.449 130.225 260.952 130.06 260.443 130.067Z" fill="white"/>
<path d="M220.77 58.52L209.484 95.0697L186.878 124.652L200.083 139.803L226.977 109.801C228.216 108.822 229.186 107.544 229.794 106.088L230.212 105.074L245.747 67.5075L220.77 58.52Z" fill="#367CFF"/>
<path d="M238.156 19.7233C238.156 19.7233 233.608 16.2901 232.482 8.39377C231.609 2.27956 237.252 6.24068 237.252 6.24068C237.252 6.24068 236.667 1.83185 239.881 2.2694C243.095 2.70696 244.893 7.33825 244.893 7.33825" fill="#0C0C0C"/>
<path d="M256.492 2.78543C256.492 2.78543 272.437 4.49396 266.673 26.0908L265.262 26.1854L262.398 26.3773" fill="#0C0C0C"/>
<path d="M240.827 48.6454C240.897 48.6363 241.675 61.5373 256.67 60.4138C267.052 59.6364 270.754 48.6271 270.992 48.6271C269.872 48.3893 268.489 48.0284 267.939 47.9048C266.741 47.6269 265.656 46.9909 264.828 46.0815C264.001 45.1721 263.469 44.0323 263.306 42.8139C263.002 40.9852 263.516 31.6287 263.359 29.7783L247.424 33.3334C247.647 37.2416 249.205 46.3013 243.744 47.9048C242.834 48.1696 241.855 48.4149 240.827 48.6454Z" fill="#E98862"/>
<path d="M247.201 44.2022C247.45 43.3981 247.611 42.569 247.68 41.73C247.855 39.8152 247.82 37.8871 247.575 35.9801C250.814 35.5438 253.866 34.2081 256.384 32.1248C256.68 33.2171 258.307 37.9899 257.856 39.0261C257.005 40.988 253.002 44.2022 247.201 44.2022Z" fill="#0C0C0C"/>
<path d="M250.49 41.6487C256.777 41.085 264.302 37.1148 264.411 28.5847L264.508 20.8881C264.617 12.3584 260.222 5.38659 252.187 5.2843C244.152 5.18235 238.057 12.0207 237.949 20.5507L237.906 23.958C237.911 25.1282 237.996 26.2967 238.161 27.4553C238.573 30.5206 239.212 35.181 241.294 38.3336C243.259 41.3099 246.473 42.0085 250.49 41.6487Z" fill="#E98862"/>
<path d="M247.573 33.8519C246.275 33.9106 244.982 33.6638 243.798 33.1312C243.749 33.1094 243.711 33.0695 243.692 33.0201C243.673 32.9707 243.674 32.9157 243.695 32.8669C243.715 32.8181 243.754 32.7794 243.803 32.7591C243.852 32.7387 243.907 32.7384 243.957 32.7581C246.509 33.8459 248.826 33.6869 250.658 32.2978C250.695 32.2686 250.733 32.2414 250.773 32.2162C250.819 32.1945 250.871 32.191 250.92 32.2062C250.968 32.2215 251.01 32.2544 251.035 32.2985C251.06 32.3426 251.068 32.3946 251.057 32.4443C251.046 32.4939 251.016 32.5376 250.975 32.5665C250.96 32.5756 250.936 32.5942 250.904 32.6194C249.942 33.3526 248.781 33.7817 247.573 33.8519Z" fill="#0C0C0C"/>
<path d="M247.632 35.7734C247.398 35.7878 247.163 35.7822 246.929 35.7566C246.903 35.7538 246.877 35.7458 246.854 35.7331C246.83 35.7204 246.81 35.7032 246.793 35.6825C246.776 35.6618 246.764 35.638 246.756 35.6125C246.749 35.587 246.746 35.5602 246.749 35.5338C246.752 35.5073 246.76 35.4817 246.772 35.4583C246.785 35.435 246.802 35.4143 246.823 35.3976C246.844 35.3809 246.868 35.3684 246.893 35.3609C246.919 35.3533 246.945 35.3509 246.972 35.3537C248.376 35.5026 249.046 34.8598 249.075 34.8321C249.113 34.794 249.164 34.7726 249.218 34.7726C249.272 34.7725 249.323 34.7938 249.362 34.8317C249.4 34.8697 249.421 34.9212 249.421 34.9749C249.421 35.0287 249.4 35.0802 249.362 35.1183C248.878 35.5298 248.267 35.7613 247.632 35.7734Z" fill="#0C0C0C"/>
<path d="M240.602 25.5982C241.149 25.5982 241.592 25.1553 241.592 24.6089C241.592 24.0625 241.149 23.6196 240.602 23.6196C240.056 23.6196 239.613 24.0625 239.613 24.6089C239.613 25.1553 240.056 25.5982 240.602 25.5982Z" fill="#0C0C0C"/>
<path d="M250.272 24.9918C250.819 24.9918 251.262 24.5489 251.262 24.0025C251.262 23.4561 250.819 23.0132 250.272 23.0132C249.726 23.0132 249.283 23.4561 249.283 24.0025C249.283 24.5489 249.726 24.9918 250.272 24.9918Z" fill="#0C0C0C"/>
<path d="M263.878 31.1789C266.32 31.2101 268.333 28.624 268.365 26.1833C268.397 23.7425 266.433 22.3714 263.991 22.3405L262.712 23.9597L261.78 31.1523L263.878 31.1789Z" fill="#E98862"/>
<path d="M261.449 27.2553C261.449 27.2553 260.624 15.1855 256.962 14.44C254.523 13.9436 248.609 17.4013 243.131 16.357C240.735 15.9016 238.46 16.4929 238.228 17.6245C238.137 18.0726 236.644 11.6339 240.397 6.74901C243.385 2.86041 253.163 1.76039 257.611 3.03558C269.93 6.56755 264.494 22.8699 264.494 22.8699L263.945 27.031L261.449 27.2553Z" fill="#0C0C0C"/>
<path d="M246.097 31.0037C246.091 31.0041 246.086 31.0041 246.081 31.0037C245.294 30.996 243.975 30.8948 243.98 30.3066C243.986 29.8189 245.374 24.57 245.532 23.9731C245.546 23.9217 245.579 23.8778 245.625 23.8511C245.671 23.8244 245.726 23.817 245.777 23.8307C245.829 23.8443 245.873 23.8777 245.899 23.9237C245.926 23.9696 245.933 24.0243 245.92 24.0757C245.303 26.4005 244.385 29.9794 244.381 30.3115C244.457 30.4516 245.27 30.5959 246.085 30.6044C246.136 30.6055 246.185 30.6262 246.221 30.6624C246.258 30.6986 246.279 30.7474 246.281 30.7987C246.282 30.8501 246.264 30.9001 246.23 30.9383C246.195 30.9766 246.148 31.0003 246.097 31.0044V31.0037Z" fill="#0C0C0C"/>
<path d="M243.412 19.2447C242.585 19.0172 241.712 19.0172 240.885 19.2447C240.478 19.3539 240.091 19.5235 239.735 19.7478C239.383 19.9674 239.061 20.2306 238.775 20.5311C238.722 20.5847 238.692 20.6564 238.691 20.7315C238.69 20.8066 238.718 20.8792 238.769 20.9343C238.82 20.9893 238.89 21.0226 238.965 21.0271C239.04 21.0316 239.114 21.007 239.172 20.9585L239.19 20.9431C239.454 20.6981 239.748 20.4876 240.066 20.3164C240.377 20.1459 240.712 20.0236 241.06 19.9534C241.745 19.8099 242.456 19.8497 243.12 20.0687L243.148 20.0785C243.257 20.1135 243.375 20.1048 243.477 20.0541C243.58 20.0035 243.658 19.9149 243.696 19.8072C243.734 19.6995 243.729 19.5812 243.681 19.4775C243.633 19.3738 243.547 19.2928 243.44 19.2517L243.412 19.2447Z" fill="#0C0C0C"/>
<path d="M249.268 19.7411C249.897 19.4355 250.596 19.3015 251.294 19.3526C251.648 19.3756 251.997 19.4521 252.328 19.5796C252.665 19.7073 252.984 19.8768 253.279 20.0841L253.298 20.0967C253.361 20.1375 253.438 20.1522 253.511 20.1379C253.585 20.1236 253.651 20.0813 253.694 20.0199C253.738 19.9585 253.756 19.8827 253.745 19.8083C253.733 19.7339 253.694 19.6667 253.635 19.6206C253.311 19.3609 252.956 19.143 252.578 18.9722C252.196 18.7973 251.789 18.6809 251.372 18.6268C250.522 18.511 249.657 18.6268 248.867 18.962C248.814 18.985 248.766 19.0182 248.726 19.0597C248.686 19.1012 248.655 19.1502 248.634 19.2039C248.612 19.2575 248.602 19.3149 248.603 19.3725C248.604 19.4302 248.616 19.4871 248.639 19.54C248.686 19.6469 248.773 19.7309 248.881 19.7736C248.935 19.7948 248.992 19.8051 249.05 19.8041C249.108 19.8031 249.165 19.7908 249.218 19.7678L249.242 19.7562L249.268 19.7411Z" fill="#0C0C0C"/>
<path d="M248.867 6.80401C249.423 4.14498 248.408 1.68342 246.601 1.30597C244.793 0.928524 242.877 2.77812 242.321 5.43715C241.766 8.09618 242.78 10.5577 244.588 10.9352C246.395 11.3126 248.311 9.46304 248.867 6.80401Z" fill="#0C0C0C"/>
<path d="M222.195 77.0013C222.667 82.5477 226.015 117.152 226.471 123.984H288.01C288.364 117.822 289.951 90.8784 291.293 78.8272C292.573 67.3289 294.366 62.0964 292.892 58.5235C290.292 52.2211 282.016 49.407 276.412 48.6485C272.989 48.1854 267.842 47.8536 267.842 47.8536C267.842 47.8536 267.407 56.6653 257.015 57.1558C242.868 57.8214 243.813 47.8536 243.743 47.8536C241.451 47.8536 228.977 49.5194 225.858 51.5513C221.452 54.4212 220.15 58.3325 220.099 61.9258C220.04 66.0642 221.66 70.7099 222.195 77.0013Z" fill="#367CFF"/>
<path d="M225.315 110.347C225.271 110.347 225.229 110.331 225.196 110.302C225.164 110.272 225.144 110.231 225.14 110.188L222.808 83.5349C222.804 83.4886 222.819 83.4426 222.849 83.407C222.878 83.3714 222.921 83.3491 222.967 83.345C222.99 83.3426 223.014 83.3449 223.036 83.3517C223.058 83.3585 223.078 83.3697 223.096 83.3845C223.114 83.3994 223.128 83.4176 223.139 83.4382C223.149 83.4588 223.156 83.4813 223.157 83.5044L225.489 110.157C225.493 110.203 225.478 110.249 225.449 110.285C225.419 110.32 225.376 110.342 225.33 110.347C225.325 110.347 225.32 110.347 225.315 110.347Z" fill="#0C0C0C"/>
<path d="M229.777 125.829L238.227 118.977L236.805 119.379C236.344 119.499 235.854 119.44 235.434 119.213C235.014 118.986 234.696 118.609 234.545 118.157C234.474 117.921 234.453 117.673 234.482 117.428C234.511 117.184 234.589 116.948 234.712 116.734C234.835 116.521 235 116.335 235.198 116.188C235.395 116.04 235.621 115.935 235.86 115.877L253.612 111.562L255.139 117.213C255.614 118.968 255.553 120.825 254.965 122.546C254.377 124.266 253.288 125.772 251.838 126.87L245.261 131.831C244.924 132.095 244.506 132.235 244.078 132.227C243.651 132.219 243.239 132.063 242.912 131.786C242.623 131.53 242.422 131.188 242.341 130.81C242.26 130.431 242.302 130.037 242.461 129.685C242.433 129.676 242.407 129.66 242.387 129.638C242.369 129.617 242.357 129.592 242.351 129.565C242.346 129.538 242.347 129.51 242.355 129.483L241.143 130.4C240.769 130.696 240.296 130.838 239.821 130.799C239.345 130.759 238.903 130.541 238.582 130.188C238.307 129.862 238.155 129.45 238.154 129.023C238.153 128.597 238.302 128.184 238.575 127.857C238.556 127.854 238.538 127.847 238.521 127.838L238.023 128.215C237.687 128.479 237.269 128.619 236.841 128.611C236.413 128.602 236.001 128.447 235.675 128.17C235.324 127.859 235.106 127.424 235.069 126.957C235.031 126.489 235.177 126.025 235.474 125.662C235.467 125.652 235.461 125.641 235.456 125.63L231.937 128.483C231.763 128.624 231.562 128.73 231.347 128.794C231.132 128.858 230.906 128.879 230.682 128.856C230.459 128.832 230.242 128.765 230.045 128.658C229.847 128.551 229.673 128.407 229.531 128.232C229.39 128.058 229.284 127.857 229.22 127.642C229.156 127.427 229.135 127.201 229.158 126.978C229.182 126.755 229.249 126.538 229.356 126.341C229.463 126.143 229.608 125.969 229.782 125.827L229.777 125.829Z" fill="#E98862"/>
<path opacity="0.2" d="M235.667 125.731C235.685 125.725 235.703 125.715 235.718 125.702L239.104 122.891C239.121 122.877 239.135 122.859 239.145 122.839C239.156 122.82 239.162 122.798 239.164 122.776C239.166 122.753 239.164 122.731 239.157 122.71C239.151 122.688 239.14 122.668 239.126 122.651C239.111 122.634 239.094 122.62 239.074 122.609C239.054 122.599 239.032 122.593 239.01 122.591C238.988 122.589 238.965 122.591 238.944 122.598C238.923 122.604 238.903 122.615 238.886 122.629L235.5 125.44C235.469 125.466 235.449 125.502 235.441 125.541C235.434 125.58 235.441 125.621 235.461 125.656C235.481 125.69 235.513 125.717 235.55 125.731C235.588 125.745 235.629 125.745 235.667 125.731Z" fill="#0A0A0A"/>
<path opacity="0.2" d="M238.65 127.855C238.669 127.848 238.686 127.839 238.701 127.826L241.379 125.638C241.414 125.609 241.436 125.568 241.441 125.523C241.445 125.478 241.432 125.433 241.403 125.398C241.374 125.363 241.333 125.341 241.288 125.336C241.243 125.332 241.198 125.345 241.163 125.374L238.485 127.563C238.454 127.588 238.433 127.624 238.425 127.663C238.418 127.703 238.424 127.744 238.444 127.779C238.464 127.814 238.496 127.84 238.533 127.854C238.571 127.868 238.613 127.868 238.65 127.855Z" fill="#0A0A0A"/>
<path opacity="0.2" d="M242.571 129.69C242.59 129.683 242.608 129.672 242.624 129.659L243.865 128.596C243.882 128.581 243.895 128.563 243.906 128.544C243.916 128.524 243.922 128.502 243.923 128.48C243.925 128.457 243.922 128.435 243.916 128.414C243.909 128.393 243.898 128.373 243.883 128.356C243.868 128.339 243.851 128.325 243.831 128.315C243.811 128.305 243.789 128.299 243.767 128.297C243.745 128.295 243.722 128.298 243.701 128.305C243.68 128.312 243.66 128.323 243.643 128.338L242.402 129.401C242.372 129.427 242.352 129.462 242.346 129.501C242.339 129.541 242.346 129.581 242.366 129.615C242.386 129.65 242.418 129.676 242.455 129.689C242.492 129.703 242.533 129.703 242.571 129.69Z" fill="#0A0A0A"/>
<path d="M304.46 109.046L304.395 108.758L293.163 59.1025L270.941 64.1234L279.708 102.883L244.588 111.508L248.91 131.315L295.712 122.393C295.817 122.372 295.973 122.341 296.079 122.316C297.502 121.995 298.846 121.397 300.037 120.556C301.228 119.715 302.242 118.648 303.02 117.416C303.798 116.184 304.326 114.81 304.573 113.374C304.82 111.938 304.782 110.467 304.46 109.046Z" fill="#367CFF"/>
<path d="M244.416 111.546C244.407 111.501 244.415 111.455 244.439 111.417C244.464 111.378 244.502 111.351 244.546 111.34L279.51 102.757L273.825 77.661C273.818 77.6381 273.817 77.6142 273.82 77.5907C273.823 77.5671 273.831 77.5445 273.843 77.5241C273.855 77.5037 273.871 77.486 273.89 77.472C273.91 77.4581 273.932 77.4482 273.955 77.4429C273.978 77.4377 274.002 77.4372 274.025 77.4415C274.049 77.4458 274.071 77.4548 274.091 77.4679C274.11 77.4811 274.127 77.4981 274.14 77.518C274.153 77.5379 274.162 77.5602 274.166 77.5836L279.889 102.847C279.9 102.892 279.892 102.939 279.868 102.979C279.844 103.018 279.805 103.046 279.76 103.057L244.794 111.64C244.794 111.64 245.028 112.662 245.094 113.007C245.1 113.051 245.087 113.097 245.059 113.132C245.031 113.167 244.99 113.19 244.945 113.195C244.9 113.201 244.855 113.188 244.819 113.16C244.784 113.132 244.761 113.091 244.756 113.046C244.675 112.668 244.416 111.546 244.416 111.546Z" fill="#0C0C0C"/>
<path d="M245.787 139.204L232.284 97.7174C232.046 96.9883 231.584 96.353 230.964 95.9025C230.343 95.452 229.596 95.2094 228.829 95.2094H173.816C173.242 95.2094 172.677 95.3451 172.166 95.6053C171.655 95.8655 171.213 96.243 170.876 96.7067C170.539 97.1705 170.317 97.7074 170.227 98.2736C170.138 98.8397 170.183 99.419 170.361 99.964L183.864 141.451C184.102 142.18 184.564 142.815 185.184 143.265C185.805 143.716 186.552 143.958 187.319 143.958H242.332C242.905 143.958 243.471 143.823 243.981 143.562C244.492 143.302 244.934 142.925 245.271 142.461C245.608 141.997 245.831 141.46 245.92 140.894C246.01 140.328 245.964 139.749 245.787 139.204Z" fill="#292A2E"/>
<path opacity="0.2" d="M245.787 139.204L232.284 97.7174C232.046 96.9883 231.584 96.353 230.964 95.9025C230.343 95.452 229.596 95.2094 228.829 95.2094H173.816C173.242 95.2094 172.677 95.3451 172.166 95.6053C171.655 95.8655 171.213 96.243 170.876 96.7067C170.539 97.1705 170.317 97.7074 170.227 98.2736C170.138 98.8397 170.183 99.419 170.361 99.964L183.864 141.451C184.102 142.18 184.564 142.815 185.184 143.265C185.805 143.716 186.552 143.958 187.319 143.958H242.332C242.905 143.958 243.471 143.823 243.981 143.562C244.492 143.302 244.934 142.925 245.271 142.461C245.608 141.997 245.831 141.46 245.92 140.894C246.01 140.328 245.964 139.749 245.787 139.204Z" fill="white"/>
<path d="M206.489 125.351C209.676 125.351 212.259 122.769 212.259 119.584C212.259 116.399 209.676 113.817 206.489 113.817C203.303 113.817 200.719 116.399 200.719 119.584C200.719 122.769 203.303 125.351 206.489 125.351Z" fill="white"/>
<path d="M152.174 4.38397H42.987C37.9286 4.38397 33.828 8.4825 33.828 13.5383V146.02C33.828 151.076 37.9286 155.175 42.987 155.175H152.174C157.232 155.175 161.333 151.076 161.333 146.02V13.5383C161.333 8.4825 157.232 4.38397 152.174 4.38397Z" fill="#292A2E"/>
<path d="M156.21 0.350311H47.0227C41.9643 0.350311 37.8637 4.44884 37.8637 9.50464V141.987C37.8637 147.043 41.9643 151.141 47.0227 151.141H156.21C161.268 151.141 165.369 147.043 165.369 141.987V9.50464C165.369 4.44884 161.268 0.350311 156.21 0.350311Z" fill="white"/>
<path d="M156.21 151.492H47.0227C44.5014 151.489 42.0842 150.486 40.3014 148.704C38.5186 146.923 37.5159 144.507 37.5132 141.986V9.50465C37.516 6.98472 38.5188 4.56879 40.3015 2.78692C42.0843 1.00506 44.5015 0.0027818 47.0227 0L156.21 0C158.731 0.00287451 161.148 1.00519 162.931 2.78704C164.713 4.5689 165.716 6.98478 165.719 9.50465V141.986C165.716 144.506 164.714 146.922 162.931 148.704C161.148 150.486 158.731 151.489 156.21 151.492ZM47.0227 0.700649C44.6874 0.703245 42.4484 1.63164 40.797 3.28215C39.1457 4.93266 38.2168 7.17048 38.2142 9.50465V141.986C38.2168 144.321 39.1457 146.558 40.797 148.209C42.4484 149.86 44.6874 150.788 47.0227 150.79H156.21C158.545 150.788 160.784 149.859 162.435 148.209C164.087 146.558 165.015 144.321 165.018 141.986V9.50465C165.015 7.17052 164.087 4.93269 162.435 3.28217C160.784 1.63165 158.545 0.703245 156.21 0.700649H47.0227Z" fill="#292A2E"/>
<path d="M36.393 170.098C48.9518 170.098 59.1327 159.922 59.1327 147.37C59.1327 134.818 48.9518 124.642 36.393 124.642C23.8342 124.642 13.6532 134.818 13.6532 147.37C13.6532 159.922 23.8342 170.098 36.393 170.098Z" fill="#292A2E"/>
<path d="M31.6724 144.404C31.373 144.404 31.0859 144.285 30.8742 144.073C30.6625 143.862 30.5435 143.575 30.5434 143.276V137.814C30.5434 134.794 33.1676 132.336 36.393 132.336C39.6183 132.336 42.2426 134.794 42.2426 137.814V142.901C42.2452 143.051 42.218 143.2 42.1624 143.339C42.1069 143.478 42.0242 143.605 41.9191 143.712C41.814 143.818 41.6887 143.903 41.5504 143.961C41.4121 144.019 41.2637 144.049 41.1138 144.049C40.9638 144.049 40.8154 144.019 40.6771 143.961C40.5389 143.903 40.4135 143.818 40.3085 143.712C40.2034 143.605 40.1206 143.478 40.0651 143.339C40.0096 143.2 39.9823 143.051 39.985 142.901V137.814C39.985 136.038 38.3726 134.593 36.393 134.593C34.4133 134.593 32.801 136.038 32.801 137.814V143.276C32.8008 143.575 32.6818 143.862 32.4702 144.074C32.2585 144.285 31.9716 144.404 31.6724 144.404Z" fill="white"/>
<path d="M43.5945 142.332H29.1915C28.3516 142.332 27.6707 143.012 27.6707 143.852V157.411C27.6707 158.251 28.3516 158.931 29.1915 158.931H43.5945C44.4344 158.931 45.1153 158.251 45.1153 157.411V143.852C45.1153 143.012 44.4344 142.332 43.5945 142.332Z" fill="white"/>
<path d="M34.9591 149.289C34.9589 149.558 35.0344 149.821 35.177 150.05C35.3195 150.278 35.5234 150.461 35.7652 150.579V152.781C35.7652 152.947 35.8312 153.106 35.9486 153.223C36.066 153.341 36.2252 153.407 36.3912 153.407C36.5572 153.407 36.7165 153.341 36.8339 153.223C36.9513 153.106 37.0172 152.947 37.0172 152.781V150.579C37.2476 150.467 37.4438 150.296 37.5855 150.083C37.7272 149.87 37.8092 149.622 37.8231 149.367C37.8369 149.111 37.782 148.857 37.664 148.63C37.5461 148.402 37.3695 148.211 37.1525 148.075C36.9355 147.939 36.6861 147.864 36.4302 147.857C36.1742 147.85 35.921 147.912 35.697 148.036C35.473 148.159 35.2862 148.341 35.1561 148.561C35.026 148.782 34.9574 149.033 34.9573 149.289H34.9591Z" fill="#292A2E"/>
<path d="M146.675 75.5905H56.5576C54.4063 75.5905 52.6624 77.3336 52.6624 79.4837V92.1108C52.6624 94.2609 54.4063 96.004 56.5576 96.004H146.675C148.826 96.004 150.57 94.2609 150.57 92.1108V79.4837C150.57 77.3336 148.826 75.5905 146.675 75.5905Z" fill="white"/>
<path d="M146.675 96.3539H56.5576C55.4319 96.3526 54.3528 95.9051 53.5569 95.1096C52.7609 94.3141 52.3132 93.2355 52.3119 92.1104V79.4837C52.3132 78.3586 52.7609 77.28 53.5568 76.4844C54.3528 75.6888 55.4319 75.2413 56.5576 75.2399H146.675C147.8 75.2412 148.88 75.6887 149.676 76.4843C150.472 77.2799 150.919 78.3586 150.921 79.4837V92.1104C150.919 93.2355 150.472 94.3142 149.676 95.1097C148.88 95.9053 147.8 96.3527 146.675 96.3539ZM56.5576 75.9405C55.6177 75.9415 54.7167 76.3152 54.0521 76.9794C53.3876 77.6437 53.0138 78.5443 53.0129 79.4837V92.1104C53.0139 93.0497 53.3877 93.9503 54.0522 94.6145C54.7168 95.2787 55.6178 95.6523 56.5576 95.6533H146.675C147.614 95.6523 148.515 95.2787 149.18 94.6145C149.845 93.9503 150.219 93.0498 150.22 92.1104V79.4837C150.219 78.5443 149.845 77.6437 149.18 76.9794C148.516 76.3152 147.615 75.9415 146.675 75.9405H56.5576Z" fill="#292A2E"/>
<path d="M146.675 104.763H56.5576C54.4063 104.763 52.6624 106.507 52.6624 108.657V121.284C52.6624 123.434 54.4063 125.177 56.5576 125.177H146.675C148.826 125.177 150.57 123.434 150.57 121.284V108.657C150.57 106.507 148.826 104.763 146.675 104.763Z" fill="white"/>
<path d="M146.675 125.527H56.5576C55.4318 125.526 54.3525 125.078 53.5565 124.282C52.7605 123.486 52.3129 122.408 52.3119 121.282V108.657C52.3132 107.532 52.7609 106.453 53.5569 105.657C54.3528 104.862 55.4319 104.414 56.5576 104.413H146.675C147.8 104.414 148.88 104.862 149.676 105.657C150.472 106.453 150.919 107.532 150.921 108.657V121.282C150.92 122.408 150.472 123.487 149.676 124.282C148.88 125.078 147.8 125.526 146.675 125.527ZM56.5576 105.114C55.6178 105.115 54.7168 105.488 54.0522 106.153C53.3877 106.817 53.0139 107.717 53.0129 108.657V121.282C53.0139 122.222 53.3877 123.122 54.0522 123.786C54.7168 124.451 55.6178 124.824 56.5576 124.825H146.675C147.614 124.824 148.516 124.451 149.18 123.786C149.845 123.122 150.219 122.222 150.22 121.282V108.657C150.219 107.717 149.845 106.817 149.18 106.152C148.516 105.488 147.614 105.115 146.675 105.114H56.5576Z" fill="#292A2E"/>
<path d="M101.616 60.4064C113.172 60.4064 122.539 51.0437 122.539 39.4942C122.539 27.9447 113.172 18.5819 101.616 18.5819C90.0606 18.5819 80.6931 27.9447 80.6931 39.4942C80.6931 51.0437 90.0606 60.4064 101.616 60.4064Z" fill="white"/>
<path d="M101.616 60.7568C97.4086 60.7568 93.2956 59.5097 89.7971 57.1734C86.2987 54.837 83.572 51.5162 81.9619 47.631C80.3517 43.7458 79.9305 39.4706 80.7513 35.346C81.5722 31.2215 83.5983 27.4329 86.5734 24.4592C89.5486 21.4856 93.3392 19.4606 97.4658 18.6401C101.593 17.8197 105.87 18.2408 109.757 19.8501C113.644 21.4594 116.967 24.1847 119.304 27.6813C121.642 31.1779 122.89 35.2888 122.89 39.4942C122.883 45.1314 120.64 50.536 116.652 54.5221C112.664 58.5083 107.256 60.7505 101.616 60.7568ZM101.616 18.9322C97.5472 18.9322 93.5697 20.1382 90.1866 22.3975C86.8035 24.6569 84.1666 27.8683 82.6095 31.6255C81.0525 35.3827 80.645 39.517 81.4388 43.5056C82.2326 47.4942 84.192 51.158 87.0691 54.0337C89.9462 56.9093 93.6119 58.8676 97.6026 59.661C101.593 60.4544 105.73 60.0472 109.489 58.4909C113.248 56.9346 116.461 54.2992 118.722 50.9178C120.982 47.5364 122.189 43.5609 122.189 39.4942C122.183 34.0427 120.013 28.8162 116.156 24.9614C112.3 21.1067 107.07 18.9383 101.616 18.9322Z" fill="#292A2E"/>
<path opacity="0.5" d="M122.074 39.4942C122.08 44.3345 120.362 49.0189 117.227 52.7081C115.296 50.4581 112.901 48.6523 110.206 47.4144C107.511 46.1764 104.581 45.5358 101.615 45.5363C98.649 45.5368 95.7184 46.1786 93.0241 47.4174C90.3298 48.6563 87.9354 50.463 86.0053 52.7137C83.8765 50.2024 82.3856 47.2146 81.6594 44.0042C80.9332 40.7937 80.993 37.4555 81.834 34.2732C82.6749 31.0908 84.2719 28.1584 86.4895 25.725C88.707 23.2916 91.4795 21.4292 94.5714 20.296C97.6632 19.1629 100.983 18.7924 104.249 19.2161C107.515 19.6398 110.63 20.8452 113.33 22.7298C116.03 24.6145 118.234 27.1227 119.757 30.0413C121.279 32.9599 122.074 36.2027 122.074 39.4942Z" fill="#367CFF"/>
<path d="M117.227 52.7081C115.307 54.9744 112.916 56.7955 110.22 58.0448C107.524 59.294 104.589 59.9414 101.617 59.942C98.6461 59.9425 95.7103 59.2962 93.0142 58.0479C90.3181 56.7996 87.9263 54.9793 86.0053 52.7137C87.9354 50.463 90.3298 48.6563 93.0241 47.4174C95.7185 46.1786 98.649 45.5368 101.615 45.5363C104.581 45.5358 107.511 46.1764 110.206 47.4144C112.901 48.6523 115.296 50.4581 117.227 52.7081Z" fill="white"/>
<path d="M101.616 41.7212C106.184 41.7212 109.886 38.0207 109.886 33.456C109.886 28.8913 106.184 25.1908 101.616 25.1908C97.0494 25.1908 93.347 28.8913 93.347 33.456C93.347 38.0207 97.0494 41.7212 101.616 41.7212Z" fill="white"/>
<g opacity="0.4">
<path d="M60.2481 117.456C61.6217 117.456 62.7352 116.343 62.7352 114.97C62.7352 113.597 61.6217 112.484 60.2481 112.484C58.8744 112.484 57.7609 113.597 57.7609 114.97C57.7609 116.343 58.8744 117.456 60.2481 117.456Z" fill="#292A2E"/>
<path d="M68.0282 117.456C69.4019 117.456 70.5154 116.343 70.5154 114.97C70.5154 113.597 69.4019 112.484 68.0282 112.484C66.6546 112.484 65.541 113.597 65.541 114.97C65.541 116.343 66.6546 117.456 68.0282 117.456Z" fill="#292A2E"/>
<path d="M75.8084 117.456C77.182 117.456 78.2956 116.343 78.2956 114.97C78.2956 113.597 77.182 112.484 75.8084 112.484C74.4348 112.484 73.3212 113.597 73.3212 114.97C73.3212 116.343 74.4348 117.456 75.8084 117.456Z" fill="#292A2E"/>
<path d="M83.5886 117.456C84.9622 117.456 86.0758 116.343 86.0758 114.97C86.0758 113.597 84.9622 112.484 83.5886 112.484C82.2149 112.484 81.1014 113.597 81.1014 114.97C81.1014 116.343 82.2149 117.456 83.5886 117.456Z" fill="#292A2E"/>
<path d="M91.3684 117.456C92.742 117.456 93.8556 116.343 93.8556 114.97C93.8556 113.597 92.742 112.484 91.3684 112.484C89.9948 112.484 88.8812 113.597 88.8812 114.97C88.8812 116.343 89.9948 117.456 91.3684 117.456Z" fill="#292A2E"/>
<path d="M99.1486 117.456C100.522 117.456 101.636 116.343 101.636 114.97C101.636 113.597 100.522 112.484 99.1486 112.484C97.7749 112.484 96.6614 113.597 96.6614 114.97C96.6614 116.343 97.7749 117.456 99.1486 117.456Z" fill="#292A2E"/>
<path d="M106.929 117.456C108.302 117.456 109.416 116.343 109.416 114.97C109.416 113.597 108.302 112.484 106.929 112.484C105.555 112.484 104.442 113.597 104.442 114.97C104.442 116.343 105.555 117.456 106.929 117.456Z" fill="#292A2E"/>
</g>
<g opacity="0.3">
<path d="M62.7149 85.6473V86.4881H59.5208V85.6473H62.7149Z" fill="black"/>
<path d="M66.6844 85.6473V86.4881H63.4902V85.6473H66.6844Z" fill="black"/>
<path d="M70.6535 85.6473V86.4881H67.4594V85.6473H70.6535Z" fill="black"/>
<path d="M74.6226 85.6473V86.4881H71.4285V85.6473H74.6226Z" fill="black"/>
<path d="M78.5925 85.6473V86.4881H75.3979V85.6473H78.5925Z" fill="black"/>
<path d="M85.7557 90.391C85.0453 90.7558 84.2537 90.9341 83.4554 90.9092C81.3345 90.9092 79.5367 89.3579 79.5367 86.8762C79.5367 84.2138 81.3863 81.9128 84.257 81.9128C86.5072 81.9128 88.0203 83.4893 88.0203 85.6483C88.0203 87.5874 86.9338 88.7246 85.7182 88.7246C85.2012 88.7246 84.7228 88.3742 84.7613 87.5874H84.7095C84.5423 87.9282 84.2829 88.2153 83.9607 88.4163C83.6386 88.6173 83.2666 88.7241 82.8868 88.7246C82.1368 88.7246 81.4901 88.1171 81.4901 87.0962C81.4886 86.6935 81.5669 86.2945 81.7205 85.9222C81.874 85.5498 82.0997 85.2115 82.3846 84.9268C82.6696 84.642 83.008 84.4164 83.3806 84.2629C83.7531 84.1095 84.1523 84.0312 84.5553 84.0327C85.0304 84.0258 85.5018 84.1182 85.939 84.3042L85.4992 86.6436C85.3053 87.6245 85.4606 88.08 85.8872 88.0915C86.5468 88.1041 87.2839 87.2252 87.2839 85.7261C87.2839 83.8519 86.1588 82.5077 84.1543 82.5077C82.0463 82.5077 80.2745 84.1749 80.2745 86.7988C80.2745 88.9575 81.6843 90.2887 83.5984 90.2887C84.277 90.3045 84.9486 90.1489 85.551 89.8365L85.7557 90.391ZM85.0446 84.8072C84.8346 84.7456 84.6167 84.7151 84.3979 84.7168C83.2598 84.7168 82.3418 85.7895 82.3418 87.0433C82.3418 87.6119 82.6264 88.0242 83.1953 88.0242C83.9454 88.0242 84.6306 87.0679 84.7726 86.2663L85.0446 84.8072Z" fill="black"/>
<path d="M92.0908 85.6473V86.4881H88.8966V85.6473H92.0908Z" fill="black"/>
<path d="M96.0602 85.6473V86.4881H92.8657V85.6473H96.0602Z" fill="black"/>
<path d="M100.029 85.6473V86.4881H96.8352V85.6473H100.029Z" fill="black"/>
</g>
</g>
<defs>
<clipPath id="clip0_14_8462">
<rect width="312" height="302" fill="white"/>
</clipPath>
</defs>
</svg>
