<svg width="202" height="188" viewBox="0 0 202 188" fill="none" xmlns="http://www.w3.org/2000/svg">
<path d="M27.8182 151.793L27.0142 160.326L10.896 161.594C10.9726 157.123 11.0555 152.677 11.1449 148.257C11.247 143.837 11.3682 139.391 11.5086 134.92H21.4628C21.1693 137.726 20.8885 140.531 20.6205 143.337C20.3525 146.13 20.1611 148.949 20.0462 151.793C20.646 151.819 21.2395 151.832 21.8265 151.832C22.4136 151.832 23.007 151.832 23.6068 151.832C24.3214 151.832 25.0233 151.825 25.7125 151.812C26.4016 151.8 27.1035 151.793 27.8182 151.793Z" fill="#01A6CA"/>
<path d="M55.9932 161.095L46.4984 162.325L45.3498 157.981H40.9853L40.0282 162.325L30.2654 161.364L37.8842 135.765L48.5275 135.227L55.9932 161.095ZM44.6607 152.101L43.2059 145.413L41.7893 152.101H44.6607Z" fill="#01A6CA"/>
<path d="M81.7754 141.377C81.7754 142.325 81.7307 143.369 81.6414 144.51C81.552 145.65 81.4053 146.829 81.2011 148.046C80.9969 149.263 80.7289 150.499 80.3971 151.755C80.078 152.998 79.676 154.196 79.1911 155.349C78.7061 156.502 78.1382 157.584 77.4874 158.596C76.8493 159.596 76.1091 160.473 75.2668 161.229C74.4373 161.972 73.5057 162.555 72.472 162.978C71.4383 163.414 70.2897 163.632 69.0263 163.632C67.5459 163.632 66.257 163.388 65.1595 162.901C64.0747 162.427 63.1431 161.787 62.3646 160.979C61.5862 160.16 60.9481 159.211 60.4504 158.135C59.9527 157.046 59.5634 155.9 59.2827 154.695C59.0019 153.478 58.8041 152.242 58.6892 150.986C58.5872 149.718 58.5361 148.501 58.5361 147.335C58.5361 145.541 58.6254 143.754 58.8041 141.973C58.9828 140.179 59.238 138.392 59.5698 136.611L68.5286 136.957C68.184 138.968 67.8841 140.993 67.6289 143.03C67.3864 145.054 67.2652 147.091 67.2652 149.141C67.2652 149.359 67.2716 149.686 67.2843 150.121C67.3098 150.544 67.3481 151.025 67.3992 151.563C67.4502 152.088 67.5204 152.632 67.6097 153.196C67.7118 153.747 67.8458 154.253 68.0117 154.714C68.1777 155.176 68.3755 155.554 68.6052 155.848C68.8476 156.143 69.1284 156.29 69.4474 156.29C69.8175 156.29 70.1493 156.117 70.4429 155.771C70.7364 155.413 70.9916 154.939 71.2086 154.349C71.4383 153.76 71.6361 153.081 71.802 152.312C71.9679 151.543 72.1083 150.743 72.2231 149.91C72.338 149.077 72.4273 148.244 72.4911 147.412C72.5677 146.579 72.6251 145.804 72.6634 145.086C72.7145 144.369 72.7464 143.734 72.7591 143.184C72.7719 142.633 72.7783 142.223 72.7783 141.954C72.7783 140.954 72.7591 139.961 72.7209 138.975C72.6953 137.975 72.6507 136.983 72.5869 135.996H81.5456C81.6988 137.764 81.7754 139.558 81.7754 141.377Z" fill="#01A6CA"/>
<path d="M112.477 135.189L111.099 161.249L101.068 162.171L95.7082 148.219L94.8659 162.44H86.2517L86.9408 135.189L96.5122 134.728L103.136 148.565L103.442 135.496L112.477 135.189Z" fill="#01A6CA"/>
<path d="M138.872 147.488C138.872 149.282 138.642 150.903 138.183 152.351C137.723 153.786 137.079 155.067 136.249 156.194C135.433 157.309 134.456 158.27 133.321 159.077C132.185 159.884 130.94 160.55 129.588 161.076C128.235 161.588 126.793 161.972 125.261 162.229C123.743 162.472 122.179 162.594 120.572 162.594C119.972 162.594 119.385 162.581 118.81 162.555C118.236 162.517 117.649 162.466 117.049 162.402L117.585 136.611C118.989 136.163 120.431 135.849 121.911 135.669C123.405 135.477 124.885 135.381 126.353 135.381C128.178 135.381 129.856 135.657 131.387 136.207C132.919 136.758 134.239 137.553 135.35 138.59C136.46 139.628 137.321 140.897 137.934 142.396C138.559 143.895 138.872 145.592 138.872 147.488ZM131.023 148.718C131.036 148.027 130.96 147.36 130.794 146.72C130.641 146.079 130.379 145.515 130.009 145.029C129.652 144.529 129.192 144.132 128.631 143.837C128.069 143.53 127.399 143.363 126.621 143.337L125.855 155.253C126.621 155.137 127.316 154.887 127.941 154.503C128.567 154.106 129.103 153.625 129.549 153.062C130.009 152.485 130.36 151.851 130.602 151.159C130.858 150.454 130.998 149.731 131.023 148.987V148.718Z" fill="#01A6CA"/>
<path d="M165.611 144.221C165.611 145.221 165.522 146.13 165.343 146.95C165.177 147.757 164.909 148.501 164.539 149.18C164.169 149.859 163.691 150.486 163.104 151.063C162.516 151.64 161.808 152.19 160.979 152.716L165.535 160.864L156.92 162.555L153.972 154.368L151.599 154.445L151.254 162.44H143.023C143.087 159.519 143.144 156.611 143.195 153.715C143.259 150.82 143.329 147.911 143.406 144.99C143.431 143.517 143.457 142.056 143.482 140.608C143.508 139.161 143.559 137.7 143.635 136.227C144.529 135.894 145.409 135.618 146.277 135.4C147.145 135.182 148.013 135.016 148.881 134.901C149.761 134.772 150.648 134.689 151.541 134.651C152.447 134.6 153.373 134.574 154.317 134.574C155.772 134.574 157.176 134.779 158.528 135.189C159.894 135.586 161.1 136.188 162.146 136.995C163.193 137.803 164.029 138.808 164.654 140.013C165.292 141.217 165.611 142.62 165.611 144.221ZM157.035 144.836C157.035 144.298 156.959 143.805 156.806 143.357C156.665 142.908 156.448 142.524 156.155 142.203C155.874 141.87 155.517 141.614 155.083 141.435C154.662 141.243 154.164 141.146 153.59 141.146C153.334 141.146 153.086 141.166 152.843 141.204C152.601 141.23 152.364 141.275 152.135 141.339L151.828 148.488H152.288C152.837 148.488 153.392 148.417 153.953 148.276C154.528 148.135 155.038 147.918 155.485 147.623C155.944 147.328 156.314 146.95 156.595 146.489C156.889 146.028 157.035 145.477 157.035 144.836Z" fill="#01A6CA"/>
<path d="M193.844 136.726L183.315 151.486L182.817 163.516H173.744L173.974 151.563L168.499 137.303L178.262 136.073L179.793 144.375L184.655 136.073L193.844 136.726Z" fill="#01A6CA"/>
<path d="M0 133.98C0.490053 127.027 6.23348 113.238 25.2868 113.711C26.7242 110.693 31.3438 104.481 38.3222 103.772L20.7783 27.1217C27.9918 19.3287 62.6615 6.03211 79.0946 0.357923C112.889 -1.68872 139.633 5.54013 148.78 9.41039V99.6398C150.897 98.7739 157.405 99.279 159.855 99.6398C167.618 101.293 173.022 108.856 174.753 112.431C177.341 112.353 179.948 112.792 180.928 113.022C196.374 115.619 201.412 128.798 202 135.063C193.767 119.713 182.561 115.941 177.987 115.974C174.537 115.344 173.936 119.647 174.067 121.877C170.147 101.509 155.739 102.493 148.78 103.576C143.213 104.442 137.705 112.792 135.647 116.859C134.314 114.813 135.483 112.792 136.235 112.038C137.881 109.834 133.981 107.577 131.824 106.724C122.651 103.34 113.758 110.693 110.458 114.793C108.655 116.525 109.184 118.204 109.674 118.827C113.359 123.235 113.627 127.158 113.3 128.568C106.165 116.288 93.8616 112.431 88.6016 112.038C88.373 111.808 86.1514 111.487 79.0946 112.038C72.0378 112.589 70.9271 115.547 71.2538 116.958C73.312 120.893 74.4881 123.353 73.9981 125.912C63.903 110.562 55.474 107.905 50.9655 106.331C48.2255 105.374 43.9088 105.766 40.3804 106.331C31.1674 107.807 25.1234 118.106 22.7385 124.042C21.6408 121.602 22.8038 117.909 23.5226 116.367C10.9772 116.761 2.61362 128.273 0 133.98Z" fill="#031142"/>
<path d="M26.3649 40.3068L41.6546 102.69H49.5934L53.2198 82.0269C51.913 78.5174 50.5539 70.9475 55.5721 68.7434C55.2584 61.2653 57.1403 58.7069 59.0025 58.215C59.6297 51.9963 67.2354 48.4737 69.2936 47.6866C74.939 48.3163 76.0236 53.4591 76.5464 53.1968C84.2304 50.2055 81.4796 47.8178 82.525 48.3753L79.0946 19.8404C66.0788 20.0765 38.5182 33.5831 26.3649 40.3068Z" fill="#01A6CA" stroke="#031142" stroke-width="2"/>
<path d="M43.5168 49.9497C46.0259 34.5211 67.8234 24.0386 78.7026 20.234L82.0349 46.8994C76.0759 45.8761 73.018 48.1457 72.1359 49.4577C72.4298 51.032 69.4569 48.9329 66.2552 49.0641C59.12 49.93 53.6772 54.1807 54.1019 57.231C49.711 59.3564 49.136 64.5451 49.3974 66.9722C46.1042 69.0189 45.3463 75.5983 45.379 76.6151C43.654 68.1136 43.0267 53.5247 43.5168 49.9497Z" fill="#0BB8DE"/>
<path d="M54.3959 37.0598C55.0232 35.4854 56.9442 34.5015 57.8263 34.2063C60.1002 35.1509 57.4669 37.0926 55.8661 37.9453C54.5332 38.6538 54.3306 37.6501 54.3959 37.0598Z" fill="#01A6CA"/>
<path d="M85.5633 50.8352L82.329 19.1516C97.9323 17.4986 130.648 21.6115 145.056 23.8746L146.526 90.981L88.7977 97.6719L85.5633 50.8352Z" fill="#01A6CA" stroke="black" stroke-width="2"/>
<path d="M107.518 24.5634C117.084 21.4147 136.268 23.2515 144.664 24.5634L145.252 89.997C143.292 90.4693 119.279 91.7025 107.518 92.2601C102.5 92.1814 99.4155 88.6194 98.5007 86.8483L94.7763 85.5692V62.2492V38.7325C96.2661 29.6013 103.891 25.4818 107.518 24.5634Z" fill="#0BB8DE"/>
<path d="M122.023 77.2295C133.683 77.2295 143.125 67.7417 143.125 56.0502C143.125 44.3588 133.683 34.871 122.023 34.871C110.363 34.871 100.921 44.3588 100.921 56.0502C100.921 67.7417 110.363 77.2295 122.023 77.2295Z" fill="white" stroke="#031142" stroke-width="3"/>
<ellipse cx="122.023" cy="56.0503" rx="13.5255" ry="13.5787" fill="#5EABBB"/>
<ellipse cx="124.572" cy="55.4599" rx="11.1732" ry="11.2172" fill="#9EE8F8"/>
<path d="M122.023 71.1289C130.327 71.1289 137.049 64.3724 137.049 56.0503C137.049 47.7281 130.327 40.9716 122.023 40.9716C113.719 40.9716 106.998 47.7281 106.998 56.0503C106.998 64.3724 113.719 71.1289 122.023 71.1289Z" stroke="#031142" stroke-width="3"/>
<path d="M99.1868 112.628V98.3607L145.938 92.7521L145.644 100.919C142.037 102.257 139.371 105.675 138.489 107.216C135.823 104.697 128.949 103.412 125.846 103.084C116.201 101.903 108.825 112.038 106.342 117.253C104.225 114.183 100.69 112.891 99.1868 112.628Z" fill="white"/>
<path d="M95.0703 70.0225C65.7455 66.1654 50.7695 75.6311 46.555 81.1413C45.1437 72.7186 48.0579 68.1858 50.0834 66.6771C49.8874 60.3797 52.2397 58.6086 53.6118 58.1166C53.6996 58.0629 53.7966 58.0065 53.9022 57.9482C54.8814 57.1693 55.7347 54.4042 56.0621 53C57.003 48.5131 65.0791 48.0474 68.9995 48.3753C71.1949 48.3753 75.8602 46.6042 77.9184 45.7186C82.7798 44.5379 84.2565 49.0313 84.3872 51.4256C90.7382 51.3469 92.522 58.9037 92.6201 62.3476C95.8348 64.2368 95.593 68.0218 95.0703 70.0225Z" fill="url(#paint0_linear_300_7083)"/>
<path d="M92.6201 62.3476C95.8348 64.2368 95.593 68.0218 95.0703 70.0225C65.7455 66.1654 50.7695 75.6311 46.555 81.1413C45.1437 72.7186 48.0579 68.1858 50.0834 66.6771M92.6201 62.3476C92.522 58.9037 90.7382 51.3469 84.3872 51.4256M92.6201 62.3476C85.7201 60.3797 76.7832 63.8268 71.2537 65.0043C68.0194 65.6931 64.398 65.8541 61.3546 65.7915C57.1359 65.7047 51.6966 66.2388 50.0834 66.6771M84.3872 51.4256C84.2565 49.0313 82.7798 44.5379 77.9184 45.7186C75.8602 46.6042 71.1949 48.3753 68.9995 48.3753C65.0791 48.0474 57.003 48.5131 56.0621 53C55.7027 54.5415 54.7095 57.723 53.6118 58.1166M84.3872 51.4256C78.5849 52.5277 71.7111 55.8863 68.9995 57.4278C67.954 57.4934 65.0398 57.4278 61.7467 56.6406C58.4535 55.8535 54.9513 57.2966 53.6118 58.1166M53.6118 58.1166C52.2397 58.6086 49.8874 60.3797 50.0834 66.6771" stroke="#031142" stroke-width="2"/>
<path d="M98.8928 113.12L97.9127 112.333C94.7705 111.148 91.743 110.499 88.8957 110.241C85.215 109.907 81.8355 110.224 78.8986 110.877C74.2994 111.898 70.7858 113.741 68.9015 115.186C67.572 113.748 66.1846 112.452 64.7851 111.291C64.1327 110.749 63.4778 110.237 62.8248 109.753C57.4429 105.765 52.1979 103.701 49.6914 103.084L48.0742 91.7189L46.4571 80.3542C49.1142 78.1465 52.2531 76.3808 55.6701 74.9802C61.1485 72.7346 67.3417 71.4276 73.41 70.7429C77.7227 70.2563 81.9723 70.084 85.8574 70.1124C90.6028 70.1471 94.8043 70.4814 97.9127 70.9081L98.2257 84.3884L98.5135 96.7863L98.7397 106.528L98.8928 113.12Z" fill="#7A4F3E"/>
<path d="M49.6914 103.084L48.0742 91.7189M49.6914 103.084C59.7624 97.5735 83.6261 88.5998 98.5135 96.7863M49.6914 103.084C52.1979 103.701 57.4429 105.765 62.8248 109.753M55.6701 74.9802C52.2531 76.3808 49.1142 78.1465 46.4571 80.3542L48.0742 91.7189M55.6701 74.9802L64.7851 111.291M55.6701 74.9802C61.1485 72.7346 67.3417 71.4276 73.41 70.7429M64.7851 111.291C66.1846 112.452 67.572 113.748 68.9015 115.186C70.7858 113.741 74.2994 111.898 78.8986 110.877M64.7851 111.291C64.1327 110.749 63.4778 110.237 62.8248 109.753M73.41 70.7429L78.8986 110.877M73.41 70.7429C77.7227 70.2563 81.9723 70.084 85.8574 70.1124M78.8986 110.877C81.8355 110.224 85.215 109.907 88.8957 110.241M85.8574 70.1124C90.6028 70.1471 94.8043 70.4814 97.9127 70.9081L98.2257 84.3884M85.8574 70.1124L88.8957 110.241M88.8957 110.241C91.743 110.499 94.7705 111.148 97.9127 112.333L98.8928 113.12L98.7397 106.528M48.0742 91.7189C57.0549 86.3891 79.658 77.4613 98.2257 84.3884M98.2257 84.3884L98.5135 96.7863M98.5135 96.7863L98.7397 106.528M62.8248 109.753C69.2568 105.792 85.4446 99.6005 98.7397 106.528" stroke="#031142" stroke-width="2"/>
<path d="M25.4828 37.2565L23.2285 28.2041C31.8535 22.3003 55.8661 8.82001 77.8205 4.09698L78.6046 16.1997C69.947 18.5284 47.202 26 25.4828 37.2565Z" fill="white"/>
<path d="M41.6028 25.118L41.9698 26.0759L42.918 25.6846L57.2276 19.7809L58.1633 19.3948L57.7659 18.4638L56.5898 15.7087L56.1954 14.7849L55.2733 15.1834L41.1598 21.284L40.2797 21.6644L40.6227 22.5597L41.6028 25.118Z" fill="white" stroke="#031142" stroke-width="2"/>
<path d="M82.0349 15.9045L81.3488 3.40821C111.144 3.40821 135.908 9.24639 145.056 12.1655V21.5131C128.786 17.1837 92.6201 15.4126 82.0349 15.9045Z" fill="white"/>
<path d="M24.4046 106.052C27.0176 106.052 29.129 103.926 29.129 101.313C29.129 98.699 27.0176 96.5735 24.4046 96.5735C21.7917 96.5735 19.6802 98.699 19.6802 101.313C19.6802 103.926 21.7917 106.052 24.4046 106.052Z" stroke="#031142" stroke-width="2"/>
<path d="M176.909 103.493C179.955 103.493 182.418 101.015 182.418 97.9671C182.418 94.9187 179.955 92.4409 176.909 92.4409C173.863 92.4409 171.401 94.9187 171.401 97.9671C171.401 101.015 173.863 103.493 176.909 103.493Z" stroke="#031142" stroke-width="2"/>
<path d="M41.7632 188C40.5086 188 39.4109 187.756 38.47 187.268C37.5448 186.764 36.8313 186.056 36.3295 185.143C35.8277 184.229 35.5768 183.151 35.5768 181.907C35.5768 180.978 35.7179 180.144 36.0002 179.404C36.2824 178.664 36.6902 178.034 37.2233 177.515C37.7722 176.995 38.4308 176.602 39.1992 176.334C39.9676 176.051 40.8223 175.909 41.7632 175.909C42.2493 175.909 42.7668 175.972 43.3157 176.098C43.8645 176.208 44.4056 176.405 44.9387 176.688C45.2524 176.83 45.4641 177.035 45.5738 177.302C45.6993 177.554 45.7463 177.822 45.715 178.105C45.6836 178.373 45.5817 178.617 45.4092 178.837C45.2524 179.042 45.0485 179.184 44.7976 179.262C44.5467 179.325 44.2644 179.278 43.9508 179.121C43.6528 178.948 43.3392 178.822 43.0099 178.743C42.6962 178.664 42.3983 178.625 42.116 178.625C41.6456 178.625 41.23 178.703 40.8693 178.861C40.5086 179.003 40.2029 179.215 39.9519 179.499C39.7167 179.766 39.5285 180.105 39.3874 180.514C39.262 180.923 39.1992 181.396 39.1992 181.931C39.1992 182.97 39.4501 183.789 39.9519 184.387C40.4694 184.969 41.1908 185.261 42.116 185.261C42.3983 185.261 42.6962 185.229 43.0099 185.166C43.3235 185.087 43.6371 184.962 43.9508 184.788C44.2644 184.631 44.5467 184.592 44.7976 184.67C45.0485 184.749 45.2445 184.899 45.3857 185.119C45.5425 185.324 45.6287 185.568 45.6444 185.851C45.6758 186.119 45.6287 186.386 45.5033 186.654C45.3935 186.906 45.1896 187.103 44.8917 187.244C44.3585 187.512 43.8253 187.701 43.2922 187.811C42.759 187.937 42.2493 188 41.7632 188Z" fill="#061445"/>
<path d="M51.5377 188C50.1421 188 49.0992 187.614 48.4092 186.843C47.7192 186.056 47.3742 184.891 47.3742 183.348V172.697C47.3742 172.099 47.5232 171.65 47.8212 171.351C48.1348 171.036 48.5817 170.879 49.162 170.879C49.7265 170.879 50.1577 171.036 50.4557 171.351C50.7693 171.65 50.9261 172.099 50.9261 172.697V183.206C50.9261 183.852 51.0594 184.332 51.326 184.647C51.6083 184.946 51.9768 185.095 52.4316 185.095C52.557 185.095 52.6747 185.087 52.7844 185.072C52.8942 185.056 53.0118 185.048 53.1373 185.048C53.3882 185.017 53.5607 185.095 53.6548 185.284C53.7645 185.457 53.8194 185.812 53.8194 186.347C53.8194 186.819 53.7253 187.181 53.5371 187.433C53.349 187.669 53.0589 187.827 52.6668 187.906C52.51 187.921 52.3297 187.937 52.1258 187.953C51.9219 187.984 51.7259 188 51.5377 188Z" fill="#061445"/>
<path d="M61.0908 188C59.7265 188 58.5504 187.756 57.5624 187.268C56.5902 186.764 55.8375 186.064 55.3043 185.166C54.7868 184.253 54.528 183.182 54.528 181.955C54.528 180.758 54.7789 179.711 55.2808 178.814C55.7826 177.901 56.4804 177.192 57.3743 176.688C58.2838 176.169 59.311 175.909 60.4557 175.909C61.2869 175.909 62.0396 176.051 62.7139 176.334C63.3882 176.602 63.9684 176.995 64.4546 177.515C64.9407 178.019 65.3092 178.641 65.5601 179.38C65.811 180.105 65.9365 180.915 65.9365 181.813C65.9365 182.112 65.8424 182.34 65.6542 182.498C65.466 182.639 65.1916 182.71 64.8309 182.71H57.4448V180.868H63.3725L62.9962 181.199C62.9962 180.553 62.9021 180.018 62.7139 179.593C62.5257 179.152 62.2513 178.822 61.8906 178.601C61.5456 178.381 61.1144 178.271 60.5969 178.271C60.0166 178.271 59.5227 178.404 59.1149 178.672C58.7072 178.94 58.3936 179.325 58.174 179.829C57.9545 180.333 57.8447 180.939 57.8447 181.648V181.836C57.8447 183.033 58.1191 183.915 58.668 184.481C59.2325 185.048 60.0637 185.331 61.1614 185.331C61.5378 185.331 61.969 185.284 62.4551 185.19C62.9413 185.095 63.396 184.946 63.8195 184.741C64.1801 184.568 64.5016 184.513 64.7839 184.576C65.0661 184.623 65.2857 184.749 65.4425 184.954C65.5993 185.158 65.6856 185.394 65.7013 185.662C65.7326 185.93 65.6777 186.197 65.5366 186.465C65.3955 186.717 65.1602 186.929 64.8309 187.103C64.2977 187.402 63.694 187.622 63.0197 187.764C62.3611 187.921 61.7181 188 61.0908 188Z" fill="#061445"/>
<path d="M71.9072 188C71.0604 188 70.2998 187.835 69.6255 187.504C68.9512 187.173 68.4258 186.725 68.0495 186.158C67.6731 185.591 67.4849 184.954 67.4849 184.245C67.4849 183.395 67.7045 182.726 68.1436 182.238C68.5826 181.734 69.2962 181.38 70.2841 181.175C71.2721 180.955 72.5815 180.845 74.2124 180.845H75.4591V182.687H74.2359C73.4361 182.687 72.7853 182.734 72.2835 182.828C71.7974 182.907 71.4446 183.049 71.225 183.253C71.0212 183.458 70.9192 183.741 70.9192 184.103C70.9192 184.544 71.0682 184.906 71.3661 185.19C71.6798 185.473 72.1267 185.615 72.7069 185.615C73.1617 185.615 73.5616 185.513 73.9066 185.308C74.2673 185.087 74.5495 184.796 74.7534 184.434C74.9573 184.056 75.0592 183.631 75.0592 183.159V180.443C75.0592 179.75 74.9024 179.262 74.5887 178.979C74.2751 178.68 73.7419 178.53 72.9892 178.53C72.5658 178.53 72.1032 178.585 71.6014 178.696C71.1152 178.79 70.5742 178.955 69.9783 179.192C69.6333 179.349 69.3275 179.388 69.0609 179.31C68.7943 179.215 68.5905 179.058 68.4494 178.837C68.3082 178.601 68.2376 178.349 68.2376 178.082C68.2376 177.798 68.3161 177.531 68.4729 177.279C68.6297 177.011 68.8884 176.814 69.2491 176.688C69.9862 176.389 70.6762 176.185 71.3191 176.074C71.9777 175.964 72.5815 175.909 73.1303 175.909C74.3378 175.909 75.3258 176.09 76.0942 176.452C76.8783 176.799 77.4663 177.342 77.8584 178.082C78.2504 178.806 78.4464 179.743 78.4464 180.892V186.134C78.4464 186.717 78.3053 187.166 78.023 187.48C77.7408 187.795 77.333 187.953 76.7999 187.953C76.2667 187.953 75.8511 187.795 75.5532 187.48C75.2709 187.166 75.1298 186.717 75.1298 186.134V185.261L75.2944 185.402C75.2003 185.938 74.9965 186.402 74.6828 186.796C74.3849 187.173 74.0007 187.473 73.5302 187.693C73.0598 187.898 72.5188 188 71.9072 188Z" fill="#061445"/>
<path d="M82.8838 187.953C82.3035 187.953 81.8566 187.795 81.543 187.48C81.245 187.166 81.096 186.717 81.096 186.134V177.751C81.096 177.169 81.245 176.728 81.543 176.429C81.8566 176.114 82.2878 175.956 82.8367 175.956C83.4012 175.956 83.8325 176.114 84.1304 176.429C84.4284 176.728 84.5774 177.169 84.5774 177.751V179.097L84.3186 178.318C84.6793 177.546 85.2125 176.956 85.9182 176.547C86.6395 176.122 87.455 175.909 88.3645 175.909C89.2897 175.909 90.0503 176.09 90.6462 176.452C91.2421 176.799 91.689 177.334 91.987 178.058C92.2849 178.766 92.4339 179.672 92.4339 180.774V186.134C92.4339 186.717 92.2771 187.166 91.9635 187.48C91.6655 187.795 91.2264 187.953 90.6462 187.953C90.0817 187.953 89.6426 187.795 89.3289 187.48C89.031 187.166 88.882 186.717 88.882 186.134V180.939C88.882 180.136 88.733 179.562 88.4351 179.215C88.1528 178.853 87.7137 178.672 87.1178 178.672C86.3651 178.672 85.7613 178.908 85.3066 179.38C84.8675 179.853 84.6479 180.483 84.6479 181.27V186.134C84.6479 187.347 84.0599 187.953 82.8838 187.953Z" fill="#061445"/>
<path d="M107.559 188C106.336 188 105.27 187.803 104.36 187.41C103.467 187.016 102.777 186.473 102.29 185.78C101.804 185.087 101.561 184.277 101.561 183.348C101.561 182.813 101.632 182.317 101.773 181.86C101.93 181.388 102.149 180.963 102.432 180.585C102.73 180.191 103.082 179.829 103.49 179.499C103.898 179.152 104.353 178.837 104.854 178.554L105.678 178.082L105.16 178.814C104.502 178.184 104.015 177.554 103.702 176.924C103.404 176.295 103.255 175.649 103.255 174.988C103.255 174.169 103.459 173.445 103.866 172.815C104.274 172.186 104.847 171.698 105.584 171.351C106.321 171.005 107.175 170.832 108.148 170.832C109.496 170.832 110.563 171.178 111.347 171.871C112.131 172.548 112.523 173.469 112.523 174.634C112.523 175.248 112.405 175.83 112.17 176.381C111.935 176.917 111.566 177.428 111.064 177.916C110.563 178.389 109.904 178.829 109.088 179.239L109.112 178.483L112.876 182.356H112.099C112.303 182.041 112.476 181.695 112.617 181.317C112.774 180.939 112.907 180.538 113.017 180.113C113.126 179.687 113.213 179.255 113.275 178.814C113.37 178.341 113.534 177.987 113.769 177.751C114.02 177.515 114.373 177.397 114.828 177.397C115.314 177.397 115.675 177.538 115.91 177.822C116.161 178.09 116.255 178.475 116.192 178.979C116.098 179.687 115.957 180.364 115.769 181.01C115.581 181.655 115.345 182.262 115.063 182.828C114.797 183.379 114.491 183.891 114.146 184.363L114.122 183.537L116.239 185.615C116.616 185.961 116.804 186.315 116.804 186.678C116.804 187.04 116.663 187.347 116.38 187.599C116.114 187.835 115.745 187.953 115.275 187.953C114.851 187.953 114.506 187.874 114.24 187.717C113.989 187.543 113.699 187.299 113.37 186.985L112.17 185.733H112.946C112.24 186.426 111.417 186.977 110.476 187.386C109.551 187.795 108.579 188 107.559 188ZM107.771 185.237C108.445 185.237 109.041 185.111 109.559 184.859C110.092 184.607 110.586 184.237 111.041 183.749L110.947 184.599L106.172 179.829L107.677 179.924L107.042 180.278C106.587 180.53 106.211 180.797 105.913 181.081C105.631 181.348 105.419 181.648 105.278 181.978C105.152 182.309 105.09 182.671 105.09 183.064C105.09 183.741 105.325 184.277 105.795 184.67C106.266 185.048 106.924 185.237 107.771 185.237ZM108.148 173.264C107.646 173.264 107.246 173.414 106.948 173.713C106.65 173.996 106.501 174.39 106.501 174.894C106.501 175.161 106.548 175.421 106.642 175.673C106.736 175.909 106.885 176.169 107.089 176.452C107.309 176.72 107.607 177.05 107.983 177.444L107.23 177.397C107.842 177.082 108.32 176.791 108.665 176.523C109.026 176.255 109.284 175.98 109.441 175.697C109.598 175.413 109.676 175.106 109.676 174.776C109.676 174.272 109.535 173.894 109.253 173.642C108.987 173.39 108.618 173.264 108.148 173.264Z" fill="#061445"/>
<path d="M128.434 187.953C127.854 187.953 127.407 187.795 127.093 187.48C126.795 187.166 126.646 186.717 126.646 186.134V178.814H125.799C125.36 178.814 125.015 178.696 124.764 178.459C124.529 178.223 124.411 177.901 124.411 177.491C124.411 177.05 124.529 176.72 124.764 176.499C125.015 176.263 125.36 176.145 125.799 176.145H127.681L126.646 177.09V176.358C126.646 174.673 127.062 173.414 127.893 172.579C128.74 171.745 129.978 171.241 131.609 171.068L132.362 170.997C132.77 170.966 133.091 171.029 133.326 171.186C133.577 171.343 133.742 171.548 133.82 171.8C133.899 172.052 133.914 172.312 133.867 172.579C133.82 172.831 133.711 173.059 133.538 173.264C133.381 173.453 133.162 173.555 132.879 173.571L132.55 173.595C131.703 173.658 131.1 173.862 130.739 174.209C130.378 174.539 130.198 175.051 130.198 175.744V176.547L129.751 176.145H131.868C132.323 176.145 132.668 176.263 132.903 176.499C133.138 176.72 133.256 177.05 133.256 177.491C133.256 177.901 133.138 178.223 132.903 178.459C132.668 178.696 132.323 178.814 131.868 178.814H130.198V186.134C130.198 187.347 129.61 187.953 128.434 187.953Z" fill="#061445"/>
<path d="M138.524 188C137.677 188 136.916 187.835 136.242 187.504C135.568 187.173 135.042 186.725 134.666 186.158C134.29 185.591 134.102 184.954 134.102 184.245C134.102 183.395 134.321 182.726 134.76 182.238C135.199 181.734 135.913 181.38 136.901 181.175C137.889 180.955 139.198 180.845 140.829 180.845H142.076V182.687H140.853C140.053 182.687 139.402 182.734 138.9 182.828C138.414 182.907 138.061 183.049 137.842 183.253C137.638 183.458 137.536 183.741 137.536 184.103C137.536 184.544 137.685 184.906 137.983 185.19C138.296 185.473 138.743 185.615 139.324 185.615C139.778 185.615 140.178 185.513 140.523 185.308C140.884 185.087 141.166 184.796 141.37 184.434C141.574 184.056 141.676 183.631 141.676 183.159V180.443C141.676 179.75 141.519 179.262 141.205 178.979C140.892 178.68 140.359 178.53 139.606 178.53C139.182 178.53 138.72 178.585 138.218 178.696C137.732 178.79 137.191 178.955 136.595 179.192C136.25 179.349 135.944 179.388 135.678 179.31C135.411 179.215 135.207 179.058 135.066 178.837C134.925 178.601 134.854 178.349 134.854 178.082C134.854 177.798 134.933 177.531 135.09 177.279C135.246 177.011 135.505 176.814 135.866 176.688C136.603 176.389 137.293 176.185 137.936 176.074C138.594 175.964 139.198 175.909 139.747 175.909C140.954 175.909 141.942 176.09 142.711 176.452C143.495 176.799 144.083 177.342 144.475 178.082C144.867 178.806 145.063 179.743 145.063 180.892V186.134C145.063 186.717 144.922 187.166 144.64 187.48C144.357 187.795 143.95 187.953 143.416 187.953C142.883 187.953 142.468 187.795 142.17 187.48C141.888 187.166 141.746 186.717 141.746 186.134V185.261L141.911 185.402C141.817 185.938 141.613 186.402 141.299 186.796C141.002 187.173 140.617 187.473 140.147 187.693C139.676 187.898 139.135 188 138.524 188Z" fill="#061445"/>
<path d="M152.135 188C151.445 188 150.731 187.937 149.994 187.811C149.273 187.685 148.614 187.473 148.018 187.173C147.705 187.016 147.477 186.819 147.336 186.583C147.211 186.331 147.156 186.079 147.172 185.827C147.187 185.575 147.266 185.347 147.407 185.143C147.564 184.938 147.76 184.804 147.995 184.741C148.246 184.662 148.52 184.686 148.818 184.812C149.461 185.08 150.049 185.268 150.582 185.379C151.116 185.489 151.641 185.544 152.158 185.544C152.833 185.544 153.319 185.442 153.617 185.237C153.93 185.017 154.087 184.733 154.087 184.387C154.087 184.072 153.985 183.836 153.782 183.678C153.578 183.521 153.28 183.411 152.888 183.348L150.418 182.899C149.445 182.726 148.693 182.372 148.16 181.836C147.642 181.285 147.383 180.585 147.383 179.735C147.383 178.948 147.603 178.271 148.042 177.704C148.481 177.121 149.085 176.68 149.853 176.381C150.637 176.066 151.523 175.909 152.511 175.909C153.217 175.909 153.868 175.972 154.464 176.098C155.06 176.224 155.632 176.429 156.181 176.712C156.463 176.854 156.659 177.043 156.769 177.279C156.894 177.515 156.934 177.759 156.886 178.011C156.855 178.263 156.761 178.491 156.604 178.696C156.447 178.9 156.244 179.034 155.993 179.097C155.757 179.16 155.483 179.129 155.169 179.003C154.668 178.766 154.205 178.601 153.782 178.507C153.358 178.396 152.95 178.341 152.558 178.341C151.853 178.341 151.343 178.459 151.029 178.696C150.716 178.916 150.559 179.199 150.559 179.546C150.559 179.813 150.645 180.042 150.818 180.231C151.006 180.404 151.288 180.522 151.664 180.585L154.134 181.034C155.154 181.207 155.93 181.553 156.463 182.073C156.996 182.576 157.263 183.269 157.263 184.151C157.263 185.347 156.792 186.292 155.851 186.985C154.926 187.661 153.687 188 152.135 188Z" fill="#061445"/>
<path d="M164.844 188C163.762 188 162.853 187.819 162.116 187.457C161.394 187.095 160.853 186.567 160.493 185.875C160.148 185.182 159.975 184.308 159.975 183.253V178.814H158.987C158.548 178.814 158.203 178.696 157.952 178.459C157.717 178.223 157.599 177.901 157.599 177.491C157.599 177.05 157.717 176.72 157.952 176.499C158.203 176.263 158.548 176.145 158.987 176.145H159.975V174.35C159.975 173.752 160.132 173.304 160.446 173.004C160.759 172.69 161.198 172.532 161.763 172.532C162.343 172.532 162.782 172.69 163.08 173.004C163.378 173.304 163.527 173.752 163.527 174.35V176.145H165.762C166.201 176.145 166.538 176.263 166.773 176.499C167.008 176.72 167.126 177.05 167.126 177.491C167.126 177.901 167.008 178.223 166.773 178.459C166.538 178.696 166.201 178.814 165.762 178.814H163.527V183.112C163.527 183.773 163.676 184.269 163.974 184.599C164.288 184.93 164.782 185.095 165.456 185.095C165.691 185.095 165.911 185.072 166.114 185.024C166.318 184.977 166.507 184.946 166.679 184.93C166.899 184.914 167.079 184.985 167.22 185.143C167.361 185.284 167.432 185.607 167.432 186.111C167.432 186.489 167.369 186.819 167.244 187.103C167.118 187.386 166.899 187.591 166.585 187.717C166.381 187.795 166.099 187.858 165.738 187.906C165.393 187.968 165.095 188 164.844 188Z" fill="#061445"/>
<defs>
<linearGradient id="paint0_linear_300_7083" x1="70.8617" y1="55.9519" x2="80.0921" y2="50.7679" gradientUnits="userSpaceOnUse">
<stop stop-color="#F7941F"/>
<stop offset="1" stop-color="#B06710"/>
</linearGradient>
</defs>
</svg>
