<svg width="347" height="245" viewBox="0 0 347 245" fill="none" xmlns="http://www.w3.org/2000/svg">
<g clip-path="url(#clip0_638_7092)">
<path d="M347 245H0C3.80228 235.32 10.8225 227.108 20.7223 224.671C35.2005 221.112 50.5253 230.898 64.9726 227.219C73.1808 225.13 79.6428 219.044 86.433 213.99C112.05 194.922 147.155 189.286 177.468 199.379C193.313 204.652 207.75 213.873 223.982 217.794C244.97 222.865 266.92 218.66 288.504 217.967C309.525 217.293 339.644 225.844 347 245Z" fill="#F3F5FD"/>
<path d="M238.224 30.3755H146.89C139.895 30.3755 134.226 36.0362 134.226 43.0189V229.077C134.226 236.06 139.895 241.721 146.89 241.721H238.224C245.219 241.721 250.888 236.06 250.888 229.077V43.0189C250.888 36.0362 245.219 30.3755 238.224 30.3755Z" fill="white"/>
<path d="M238.224 245H146.889C142.66 244.995 138.607 243.316 135.617 240.331C132.627 237.346 130.945 233.299 130.94 229.078V43.0191C130.945 38.7978 132.627 34.7509 135.617 31.766C138.607 28.7811 142.661 27.1021 146.889 27.0972H238.224C242.452 27.1021 246.506 28.7811 249.495 31.766C252.485 34.7509 254.167 38.7978 254.172 43.0191V229.078C254.167 233.299 252.485 237.346 249.495 240.331C246.506 243.316 242.452 244.995 238.224 245ZM146.889 33.6541C144.403 33.6572 142.019 34.6447 140.261 36.4001C138.502 38.1555 137.513 40.5355 137.51 43.018V229.077C137.513 231.559 138.502 233.939 140.261 235.695C142.019 237.45 144.403 238.437 146.889 238.44H238.225C240.711 238.437 243.095 237.45 244.853 235.695C246.612 233.939 247.601 231.559 247.604 229.077V43.0191C247.601 40.5366 246.611 38.1566 244.853 36.4012C243.095 34.6458 240.711 33.6583 238.225 33.6552L146.889 33.6541Z" fill="#DEE8F5"/>
<path d="M172.559 30.3755H212.555V38.1241C212.554 39.6616 211.942 41.136 210.853 42.223C209.763 43.31 208.286 43.9207 206.746 43.9208H178.367C176.827 43.9207 175.35 43.31 174.261 42.223C173.172 41.136 172.559 39.6616 172.559 38.1241V30.3755Z" fill="#DEE8F5"/>
<path d="M199.602 89.219C197.216 89.2191 194.884 88.513 192.9 87.1897C190.917 85.8665 189.37 83.9857 188.457 81.7852C187.544 79.5846 187.305 77.1632 187.771 74.827C188.236 72.4909 189.385 70.3451 191.072 68.6609C192.759 66.9766 194.909 65.8297 197.249 65.3651C199.588 64.9005 202.014 65.1391 204.218 66.0507C206.422 66.9624 208.306 68.5061 209.631 70.4866C210.957 72.4672 211.664 74.7956 211.664 77.1775C211.66 80.37 210.388 83.4305 208.126 85.6879C205.865 87.9453 202.8 89.2152 199.602 89.219ZM199.602 68.1068C197.805 68.1067 196.049 68.6385 194.555 69.635C193.061 70.6315 191.896 72.0479 191.208 73.7052C190.521 75.3624 190.341 77.1861 190.691 78.9455C191.041 80.7049 191.907 82.3211 193.177 83.5897C194.447 84.8582 196.066 85.7222 197.828 86.0723C199.591 86.4224 201.417 86.2429 203.077 85.5566C204.737 84.8702 206.156 83.7078 207.155 82.2164C208.153 80.7249 208.686 78.9714 208.686 77.1775C208.684 74.7728 207.726 72.4673 206.023 70.7668C204.32 69.0663 202.011 68.1097 199.602 68.1068Z" fill="#0CBC8B"/>
<g opacity="0.12">
<path d="M199.602 89.219C197.216 89.2191 194.884 88.5128 192.9 87.1896C190.916 85.8663 189.37 83.9855 188.457 81.7849C187.544 79.5843 187.305 77.1629 187.771 74.8268C188.236 72.4907 189.385 70.3449 191.072 68.6607C192.759 66.9765 194.909 65.8297 197.249 65.3651C199.589 64.9005 202.014 65.1391 204.218 66.0508C206.422 66.9624 208.306 68.5061 209.631 70.4867C210.957 72.4672 211.664 74.7956 211.664 77.1775C211.66 80.3701 210.388 83.4307 208.126 85.6882C205.865 87.9456 202.799 89.2154 199.602 89.219ZM199.602 68.1068C197.805 68.1068 196.048 68.6386 194.554 69.6352C193.06 70.6317 191.896 72.0482 191.208 73.7054C190.521 75.3627 190.341 77.1863 190.691 78.9457C191.041 80.7051 191.907 82.3213 193.177 83.5898C194.447 84.8583 196.066 85.7222 197.828 86.0723C199.591 86.4224 201.417 86.2429 203.077 85.5566C204.737 84.8702 206.156 83.7078 207.155 82.2163C208.153 80.7249 208.686 78.9714 208.686 77.1775C208.684 74.7727 207.726 72.4671 206.023 70.7666C204.32 69.066 202.01 68.1095 199.602 68.1068Z" fill="black"/>
</g>
<path d="M225.453 77.332H173.751V136.049H225.453V77.332Z" fill="#0CBC8B"/>
<g opacity="0.12">
<path d="M225.453 77.332H173.751V136.049H225.453V77.332Z" fill="black"/>
</g>
<path d="M211.362 77.332H159.66V136.049H211.362V77.332Z" fill="#0CBC8B"/>
<path d="M185.511 89.219C183.125 89.219 180.793 88.5127 178.809 87.1894C176.826 85.8661 175.28 83.9852 174.367 81.7846C173.454 79.5841 173.215 77.1627 173.681 74.8266C174.146 72.4905 175.295 70.3447 176.982 68.6606C178.669 66.9765 180.819 65.8296 183.158 65.3651C185.498 64.9005 187.924 65.1392 190.128 66.0508C192.332 66.9624 194.216 68.5062 195.541 70.4867C196.866 72.4672 197.573 74.7957 197.573 77.1775C197.569 80.3701 196.297 83.4309 194.036 85.6883C191.775 87.9457 188.709 89.2155 185.511 89.219ZM185.511 68.1068C183.714 68.1068 181.958 68.6387 180.464 69.6353C178.97 70.6319 177.805 72.0484 177.118 73.7057C176.43 75.3629 176.25 77.1866 176.601 78.946C176.951 80.7053 177.816 82.3214 179.087 83.5899C180.357 84.8584 181.976 85.7223 183.738 86.0723C185.5 86.4224 187.327 86.2429 188.987 85.5565C190.647 84.8701 192.066 83.7077 193.064 82.2163C194.063 80.7249 194.596 78.9713 194.596 77.1775C194.593 74.7727 193.636 72.467 191.932 70.7664C190.229 69.0659 187.92 68.1094 185.511 68.1068Z" fill="#0CBC8B"/>
<path d="M192.557 212.729C206.399 212.729 217.62 201.525 217.62 187.706C217.62 173.886 206.399 162.683 192.557 162.683C178.714 162.683 167.493 173.886 167.493 187.706C167.493 201.525 178.714 212.729 192.557 212.729Z" fill="#C1D8ED"/>
<path d="M188.259 201.368C187.737 201.367 187.234 201.168 186.854 200.81L177.334 191.841C177.134 191.658 176.972 191.437 176.858 191.191C176.744 190.946 176.68 190.679 176.67 190.409C176.66 190.138 176.704 189.868 176.8 189.614C176.896 189.36 177.041 189.128 177.227 188.931C177.413 188.734 177.637 188.576 177.885 188.466C178.133 188.356 178.401 188.296 178.672 188.291C178.943 188.285 179.213 188.333 179.466 188.432C179.718 188.531 179.949 188.68 180.143 188.869L188.145 196.407L204.859 178.02C205.039 177.82 205.257 177.658 205.5 177.543C205.744 177.427 206.007 177.361 206.276 177.348C206.545 177.334 206.814 177.374 207.068 177.465C207.322 177.555 207.555 177.695 207.754 177.875C207.954 178.056 208.115 178.274 208.23 178.518C208.345 178.761 208.411 179.024 208.423 179.293C208.436 179.561 208.396 179.83 208.304 180.083C208.213 180.336 208.072 180.568 207.891 180.767L189.775 200.697C189.592 200.898 189.37 201.061 189.124 201.176C188.877 201.291 188.61 201.356 188.338 201.366C188.312 201.367 188.285 201.368 188.259 201.368Z" fill="white"/>
<path d="M67.9487 35.5371C67.9487 35.5371 66.8452 31.1291 62.9074 31.6905C58.2309 32.3594 63.2595 44.733 66.428 52.2851C66.7662 53.0929 66.9299 53.9628 66.9085 54.8381C66.887 55.7134 66.6809 56.5743 66.3036 57.3646C65.9262 58.155 65.3862 58.857 64.7186 59.4248C64.0511 59.9926 63.2711 60.4134 62.4295 60.6598C61.6186 60.8982 60.7675 60.9695 59.928 60.8694C59.0885 60.7693 58.2782 60.4998 57.5463 60.0773C56.8144 59.6548 56.1762 59.0882 55.6704 58.4118C55.1647 57.7355 54.8019 56.9635 54.6043 56.1428C52.2189 46.2179 49.7837 27.6247 60.435 26.4709C67.3555 25.721 68.3358 32.5753 68.3358 32.5753L67.9487 35.5371Z" fill="#0F1011"/>
<path d="M70.1489 50.9182C70.1489 50.9182 72.7822 49.0038 71.0381 41.3488L76.7698 39.4199C76.7698 39.4199 77.1018 46.4588 80.3953 48.239L70.1489 50.9182Z" fill="#E98862"/>
<g opacity="0.15">
<path d="M78.9803 46.959L73.5557 43.921L77.3911 43.3335C77.6898 44.6303 78.2288 45.86 78.9803 46.959Z" fill="black"/>
</g>
<path d="M67.2687 38.8218C68.013 41.1137 69.6134 43.1559 71.8001 43.6189C74.1915 44.193 76.6872 44.1741 79.0696 43.5639C85.4385 42.1177 82.071 27.671 78.6052 25.2657C75.1393 22.8605 66.4178 25.9402 66.0054 30.8484C65.7922 33.387 66.5608 36.6402 67.2687 38.8218Z" fill="#E98862"/>
<path d="M76.1516 35.7028C76.4495 35.7028 76.6909 35.4618 76.6909 35.1644C76.6909 34.867 76.4495 34.626 76.1516 34.626C75.8538 34.626 75.6123 34.867 75.6123 35.1644C75.6123 35.4618 75.8538 35.7028 76.1516 35.7028Z" fill="#0F1011"/>
<path d="M80.3142 34.7575C80.612 34.7575 80.8535 34.5164 80.8535 34.2191C80.8535 33.9217 80.612 33.6807 80.3142 33.6807C80.0164 33.6807 79.7749 33.9217 79.7749 34.2191C79.7749 34.5164 80.0164 34.7575 80.3142 34.7575Z" fill="#0F1011"/>
<path d="M79.6239 33.1377C79.5597 33.1374 79.498 33.1127 79.4512 33.0688C79.4045 33.0248 79.3762 32.9648 79.3721 32.9008C79.368 32.8368 79.3884 32.7737 79.4291 32.7241C79.4698 32.6746 79.5278 32.6423 79.5915 32.6338L81.0084 32.448C81.0419 32.4427 81.0761 32.4441 81.109 32.4522C81.142 32.4602 81.1729 32.4748 81.2001 32.4951C81.2273 32.5153 81.2501 32.5408 81.2672 32.57C81.2843 32.5992 81.2954 32.6316 81.2998 32.6652C81.3042 32.6987 81.3018 32.7328 81.2927 32.7654C81.2837 32.7981 81.2682 32.8285 81.2471 32.8551C81.226 32.8816 81.1998 32.9036 81.1701 32.9199C81.1404 32.9361 81.1076 32.9462 81.0739 32.9496L79.657 33.1354C79.646 33.1369 79.6349 33.1377 79.6239 33.1377Z" fill="#0F1011"/>
<path d="M74.8258 34.3652C74.7668 34.3654 74.7095 34.3451 74.6639 34.3076C74.6184 34.2701 74.5874 34.2179 74.5763 34.16C74.5652 34.1021 74.5747 34.0421 74.6032 33.9905C74.6318 33.9389 74.6774 33.8989 74.7324 33.8773L76.0786 33.3434C76.1098 33.3298 76.1434 33.3226 76.1775 33.3223C76.2115 33.3219 76.2452 33.3285 76.2767 33.3414C76.3082 33.3544 76.3367 33.3736 76.3606 33.3978C76.3844 33.422 76.4032 33.4508 76.4157 33.4824C76.4282 33.514 76.4342 33.5478 76.4333 33.5817C76.4325 33.6157 76.4248 33.6491 76.4107 33.6801C76.3966 33.711 76.3764 33.7388 76.3513 33.7618C76.3262 33.7847 76.2968 33.8024 76.2647 33.8138L74.9185 34.3474C74.889 34.3592 74.8576 34.3652 74.8258 34.3652Z" fill="#0F1011"/>
<path d="M76.999 39.3267C76.999 39.3267 78.9995 39.2524 80.3115 38.5742C80.3115 38.5742 80.4861 39.8718 78.9448 40.2218C77.4036 40.5718 76.999 39.3267 76.999 39.3267Z" fill="white"/>
<path d="M70.7333 32.115C72.8291 42.7564 71.5149 44.0733 71.5149 44.0733C71.5149 44.0733 65.6868 41.6171 64.0652 35.2779C62.5452 29.3356 66.4904 25.1363 69.4042 24.0353C80.4776 19.8506 83.2273 30.068 83.2273 30.068C77.713 32.3532 69.5248 32.5059 69.5248 32.5059" fill="#0F1011"/>
<path d="M73.5612 36.8646C73.6957 37.4549 73.5898 38.0744 73.2668 38.5867C72.9438 39.0991 72.4302 39.4624 71.8389 39.5967C71.2476 39.7309 70.6271 39.6252 70.1139 39.3027C69.6007 38.9803 69.2369 38.4675 69.1024 37.8772C69.0305 37.5847 69.0183 37.2807 69.0665 36.9834C69.1147 36.6861 69.2224 36.4015 69.3831 36.1466C69.5438 35.8917 69.7542 35.6717 70.0018 35.4996C70.2495 35.3276 70.5292 35.2071 70.8245 35.1453C72.4301 34.8625 73.2809 35.6347 73.5612 36.8646Z" fill="#E98862"/>
<g opacity="0.15">
<path d="M78.9179 37.7845C78.8756 37.7843 78.8347 37.7699 78.8018 37.7434C78.769 37.717 78.746 37.6802 78.7369 37.6391C78.7277 37.5979 78.7328 37.5549 78.7513 37.5171C78.7699 37.4792 78.8008 37.4488 78.839 37.4307L79.877 36.9429L78.8758 35.3625C78.8494 35.3208 78.8407 35.2704 78.8515 35.2223C78.8624 35.1741 78.8919 35.1323 78.9337 35.1059C78.9754 35.0796 79.026 35.0709 79.0742 35.0817C79.1224 35.0925 79.1643 35.122 79.1907 35.1637L80.3043 36.922C80.3184 36.9443 80.3276 36.9693 80.3313 36.9954C80.335 37.0215 80.3331 37.0481 80.3257 37.0734C80.3183 37.0987 80.3056 37.1222 80.2884 37.1422C80.2712 37.1622 80.25 37.1784 80.2261 37.1896L78.9979 37.7667C78.9729 37.7785 78.9455 37.7846 78.9179 37.7845Z" fill="black"/>
</g>
<path d="M63.7835 32.5775C63.5391 32.5776 63.3045 32.4816 63.1304 32.3103C62.9563 32.1391 62.8566 31.9063 62.853 31.6623C62.8757 29.9299 63.4814 28.2555 64.5725 26.9083C64.7337 26.7217 64.9625 26.6067 65.2086 26.5885C65.4547 26.5703 65.698 26.6504 65.8849 26.8113C66.0718 26.9722 66.187 27.2006 66.2052 27.4463C66.2235 27.6921 66.1432 27.9349 65.982 28.1215C65.1895 29.1247 64.7445 30.3576 64.714 31.6348C64.7158 31.7568 64.6935 31.878 64.6484 31.9914C64.6034 32.1048 64.5363 32.2082 64.4512 32.2958C64.3661 32.3833 64.2645 32.4532 64.1523 32.5016C64.0401 32.5499 63.9195 32.5757 63.7973 32.5775H63.7835Z" fill="#262626"/>
<path d="M92.9855 10.4906L97.1194 8.96372C97.1194 8.96372 97.6405 3.29487 92.8727 0.297317C91.2924 -0.695922 90.1394 1.06984 90.429 1.64653C91.3859 3.55275 92.5206 5.30699 92.4979 7.13888C91.8868 6.56925 91.0055 5.84058 90.7457 6.10626C90.0623 6.8052 92.9855 10.4906 92.9855 10.4906Z" fill="#E98862"/>
<path d="M31.7532 136.357C31.5239 136.31 30.8253 136.171 24.1978 133.991L26.6419 126.579C29.4523 127.503 32.8329 128.585 33.3942 128.728C33.3588 128.719 33.329 128.713 33.3056 128.709L31.7532 136.357Z" fill="#E98862"/>
<path d="M18.9846 142.76C18.9353 142.964 18.9286 143.176 18.965 143.382C19.0014 143.589 19.0801 143.786 19.1961 143.961C19.3122 144.136 19.4632 144.285 19.6395 144.399C19.8159 144.513 20.014 144.59 20.2214 144.624C20.5088 144.671 20.8038 144.636 21.0717 144.522C21.3396 144.407 21.5692 144.219 21.7336 143.979L26.8698 135.888C26.9686 135.731 27.0323 135.555 27.0566 135.371C27.0808 135.187 27.0649 135.001 27.0101 134.823C26.4667 133.404 26.394 131.848 26.8028 130.384C27.1681 129.255 27.8437 128.252 28.7527 127.488C28.8402 127.423 28.9072 127.334 28.9461 127.232C28.9849 127.13 28.9939 127.019 28.972 126.913C28.9501 126.806 28.8982 126.707 28.8224 126.629C28.7466 126.55 28.65 126.495 28.5439 126.469L24.2246 125.406C24.0972 125.375 23.9648 125.369 23.8351 125.389C23.7054 125.409 23.5808 125.454 23.4686 125.522C23.3565 125.59 23.2588 125.679 23.1814 125.785C23.1039 125.891 23.0481 126.011 23.0173 126.138L18.9846 142.76Z" fill="#C1D8ED"/>
<path d="M89.3528 189.846L82.1792 186.752C83.3523 184.039 84.7372 180.776 84.9286 180.23C84.9166 180.265 84.9081 180.294 84.901 180.317L92.3921 182.547C92.3239 182.769 92.1204 183.45 89.3528 189.846Z" fill="#E98862"/>
<path d="M97.6334 195.815C97.8326 195.883 98.0436 195.909 98.2533 195.892C98.4629 195.874 98.6667 195.814 98.8518 195.714C99.037 195.614 99.1995 195.477 99.3293 195.312C99.4591 195.147 99.5533 194.956 99.606 194.753C99.679 194.472 99.6699 194.175 99.5798 193.899C99.4898 193.622 99.3225 193.377 99.0976 193.192L91.4875 187.359C91.3399 187.246 91.1696 187.167 90.9885 187.126C90.8073 187.086 90.6195 187.085 90.4379 187.123C88.973 187.537 87.414 187.469 85.9903 186.932C84.8971 186.467 83.9567 185.705 83.2763 184.733C83.2189 184.64 83.1364 184.566 83.0382 184.518C82.94 184.47 82.8303 184.451 82.7218 184.464C82.6133 184.476 82.5105 184.519 82.4254 184.587C82.3403 184.655 82.2764 184.746 82.2412 184.849L80.7934 189.048C80.7508 189.172 80.733 189.303 80.7412 189.434C80.7494 189.565 80.7833 189.693 80.8411 189.81C80.8989 189.928 80.9794 190.033 81.0779 190.12C81.1764 190.206 81.2911 190.272 81.4153 190.315L97.6334 195.815Z" fill="#C1D8ED"/>
<path d="M105.888 140.049C105.504 131.589 97.6588 93.0987 96.8277 88.9478L68.6754 90.22C68.6754 90.22 59.3428 126.456 58.9635 127.466L31.9117 125.552L29.1382 139.019L62.5931 144.652C64.3752 145.088 66.2543 144.886 67.9021 144.08C69.55 143.274 70.862 141.916 71.609 140.242C71.609 140.242 82.2469 109.022 82.4613 108.447L91.214 137.411L81.3313 181.932L94.4807 186.016C94.4807 186.016 106.042 143.47 105.888 140.049Z" fill="#262626"/>
<path d="M42.8258 21.7089L38.4266 21.9794C38.4266 21.9794 36.119 16.3128 39.2662 11.6494C40.3083 10.1033 42.0792 11.2537 42.0476 11.898C41.9437 14.0276 41.1543 16.781 41.9154 18.4479C42.2441 17.6802 42.7555 16.658 43.1005 16.7962C44.0086 17.1585 42.8258 21.7089 42.8258 21.7089Z" fill="#E98862"/>
<path d="M106.295 31.112L98.5589 6.81055L90.8252 9.26299L97.9102 31.5208L85.874 46.8006C84.8052 46.6522 83.7207 46.6552 82.6527 46.8095C82.4219 46.8392 82.0535 46.895 81.5734 46.9693C81.8264 48.9981 69.3358 51.1607 68.7105 49.1542C67.1254 49.4145 65.5938 49.9324 64.1765 50.6873L48.0306 41.4026L43.8118 19.3035L35.8418 20.8203L40.4089 44.745C40.5181 45.3175 40.7498 45.8597 41.0881 46.3346C41.4264 46.8096 41.8634 47.206 42.3692 47.4969L59.7032 57.465C59.4799 63.4036 65.3887 70.1783 66.464 76.3659C67.8039 84.0576 64.9231 88.1079 65.8648 92.0095C67.3498 98.1406 97.2812 91.4335 98.208 87.6434C99.157 83.7343 95.5543 82.0548 93.6226 70.1456C92.704 64.4771 93.2076 57.3873 91.7148 52.4954L105.619 34.8453C106.028 34.3254 106.304 33.7133 106.422 33.0625C106.54 32.4118 106.496 31.7421 106.295 31.112Z" fill="#367CFF"/>
<path d="M77.8993 52.9596C73.4405 54.0372 69.3352 51.1612 68.71 49.1546C68.7143 49.1517 68.7196 49.1504 68.7248 49.1509C73.1651 48.378 78.9786 47.3785 81.5728 46.9697C81.8266 48.9986 81.2423 52.1496 77.8993 52.9596Z" fill="#E98862"/>
<path d="M282.272 207.928H278.497V245H282.272V207.928Z" fill="#C1D8ED"/>
<path d="M279.165 207.928H275.391V245H279.165V207.928Z" fill="#DEE8F5"/>
<path d="M329.287 207.928H325.513V245H329.287V207.928Z" fill="#C1D8ED"/>
<path d="M326.181 207.928H322.406V245H326.181V207.928Z" fill="#DEE8F5"/>
<path d="M292.624 207.928H288.85V245H292.624V207.928Z" fill="#C1D8ED"/>
<path d="M289.518 207.928H285.743V245H289.518V207.928Z" fill="#DEE8F5"/>
<path d="M339.64 207.928H335.865V245H339.64V207.928Z" fill="#C1D8ED"/>
<path d="M336.534 207.928H332.759V245H336.534V207.928Z" fill="#DEE8F5"/>
<path d="M339.64 184.198H288.873V208.817H339.64V184.198Z" fill="#C1D8ED"/>
<path d="M326.157 184.198H275.391V208.817H326.157V184.198Z" fill="#DEE8F5"/>
<g opacity="0.53">
<path d="M323.425 187.697H278.121V205.208H323.425V187.697Z" fill="#F3F5FD"/>
</g>
<path d="M300.774 198.461C301.885 198.461 302.786 197.562 302.786 196.453C302.786 195.343 301.885 194.444 300.774 194.444C299.663 194.444 298.762 195.343 298.762 196.453C298.762 197.562 299.663 198.461 300.774 198.461Z" fill="white"/>
<path d="M296.268 159.716L292.433 160.622L297.242 180.928L301.077 180.023L296.268 159.716Z" fill="#F0F6FF"/>
<path d="M300.489 158.142L297.195 175.966L299.325 176.358L302.618 158.534L300.489 158.142Z" fill="#C1D8ED"/>
<path d="M300.49 158.136L300.115 160.102L302.242 160.506L302.617 158.54L300.49 158.136Z" fill="#DEE8F5"/>
<path d="M293.895 162.669L292.713 163.134L299.614 180.622L300.796 180.157L293.895 162.669Z" fill="#0CBC8B"/>
<path d="M302.786 170.323H292.384V183.596H302.786V170.323Z" fill="#C1D8ED"/>
</g>
<defs>
<clipPath id="clip0_638_7092">
<rect width="347" height="245" fill="white"/>
</clipPath>
</defs>
</svg>
